<?xml version="1.0" encoding="UTF-8" standalone="no"?>
<svg width="120px" height="32px" viewBox="0 0 120 32" version="1.1" xmlns="http://www.w3.org/2000/svg" xmlns:xlink="http://www.w3.org/1999/xlink" xmlns:sketch="http://www.bohemiancoding.com/sketch/ns">
    <!-- Generator: Sketch 3.4.2 (15857) - http://www.bohemiancoding.com/sketch -->
    <title>ot-logo</title>
    <desc>Created with Sketch.</desc>
    <defs></defs>
    <g id="Page-1" stroke="none" stroke-width="1" fill="none" fill-rule="evenodd" sketch:type="MSPage">
        <g id="ot-logo" sketch:type="MSLayerGroup">
            <g id="Group" sketch:type="MSShapeGroup">
                <g transform="translate(35.162791, 0.000000)" id="Shape" fill="#555759">
                    <path d="M76.855814,6.7699422 C72.427907,6.7699422 68.9488372,10.1734104 68.9488372,14.5942197 C68.9488372,19.0150289 72.427907,22.4184971 76.855814,22.4184971 C81.2837209,22.4184971 84.7627907,19.033526 84.7627907,14.5942197 C84.744186,10.1549133 81.2837209,6.7699422 76.855814,6.7699422 M76.855814,9.47052023 C79.6651163,9.47052023 81.9162791,11.8011561 81.9162791,14.5942197 C81.9162791,17.350289 79.6651163,19.7179191 76.855814,19.7179191 C74.0465116,19.7179191 71.7953488,17.3687861 71.7953488,14.5942197 C71.7953488,11.8011561 74.0465116,9.47052023 76.855814,9.47052023"></path>
                    <path d="M40.2790698,19.7179191 C37.4697674,19.7179191 35.2186047,17.3687861 35.2186047,14.5942197 C35.2186047,11.8011561 37.4697674,9.47052023 40.2790698,9.47052023 C43.0883721,9.47052023 45.3395349,11.8011561 45.3395349,14.5942197 C45.3395349,17.350289 43.1069767,19.7179191 40.2790698,19.7179191 L40.2790698,19.7179191 Z M45.2837209,7.19537572 L45.2837209,8.87861272 L45.172093,8.87861272 C44.0186047,7.58381503 42.1395349,6.75144509 40.1860465,6.75144509 C35.7581395,6.75144509 32.2790698,10.1549133 32.2790698,14.5757225 C32.2790698,19.0150289 35.7581395,22.4 40.1860465,22.4 C42.1395349,22.4 44.0186047,21.5491329 45.172093,20.2728324 L45.2837209,20.2728324 L45.2837209,21.9190751 L48.1302326,21.9190751 L48.1302326,7.17687861 L45.2837209,7.17687861 L45.2837209,7.19537572 Z"></path>
                    <path d="M58.5674419,19.7179191 C55.7581395,19.7179191 53.5069767,17.3687861 53.5069767,14.5942197 C53.5069767,11.8011561 55.7581395,9.47052023 58.5674419,9.47052023 C61.3767442,9.47052023 63.627907,11.8011561 63.627907,14.5942197 C63.627907,17.350289 61.3767442,19.7179191 58.5674419,19.7179191 L58.5674419,19.7179191 Z M63.572093,0.147976879 L63.572093,8.87861272 L63.4604651,8.87861272 C62.3069767,7.58381503 60.427907,6.75144509 58.4744186,6.75144509 C54.0465116,6.75144509 50.5674419,10.1549133 50.5674419,14.5757225 C50.5674419,19.0150289 54.0465116,22.4 58.4744186,22.4 C60.427907,22.4 62.3069767,21.5491329 63.4604651,20.2728324 L63.572093,20.2728324 L63.572093,21.9190751 L66.4186047,21.9190751 L66.4186047,0.147976879 L63.572093,0.147976879 L63.572093,0.147976879 Z"></path>
                    <path d="M29.7302326,18.1086705 C28.8,19.1075145 27.5162791,19.7364162 26.0465116,19.7364162 C23.2372093,19.7364162 20.9860465,17.3687861 20.9860465,14.6127168 C20.9860465,11.8196532 23.2186047,9.48901734 26.0465116,9.48901734 C27.5162791,9.48901734 28.8,10.1179191 29.7302326,11.116763 L31.1069767,8.54566474 C29.7488372,7.43583815 28,6.78843931 26.0465116,6.78843931 C21.6186047,6.78843931 18.1395349,10.1734104 18.1395349,14.6127168 C18.1395349,19.0520231 21.6186047,22.4369942 26.0465116,22.4369942 C27.9813953,22.4369942 29.7488372,21.7895954 31.1069767,20.6797688 L29.7302326,18.1086705 L29.7302326,18.1086705 Z"></path>
                    <path d="M8.05581395,6.7699422 C3.62790698,6.7699422 0.148837209,10.1734104 0.148837209,14.5942197 C0.148837209,19.0150289 3.62790698,22.4184971 8.05581395,22.4184971 C12.4837209,22.4184971 15.9627907,19.033526 15.9627907,14.5942197 C15.9627907,10.1549133 12.4837209,6.7699422 8.05581395,6.7699422 M8.05581395,9.47052023 C10.8651163,9.47052023 13.1162791,11.8011561 13.1162791,14.5942197 C13.1162791,17.350289 10.8651163,19.7179191 8.05581395,19.7179191 C5.24651163,19.7179191 2.99534884,17.3687861 2.99534884,14.5942197 C3.01395349,11.8011561 5.24651163,9.47052023 8.05581395,9.47052023"></path>
                </g>
                <g transform="translate(41.860465, 25.526012)" id="Shape" fill="#00A1DF">
                    <path d="M1.97209302,0.813872832 L0.111627907,0.813872832 L0.111627907,0.166473988 L4.61395349,0.166473988 L4.61395349,0.813872832 L2.75348837,0.813872832 L2.75348837,6.27052023 L1.97209302,6.27052023 L1.97209302,0.813872832 L1.97209302,0.813872832 Z"></path>
                    <path d="M7.49767442,0.166473988 L11.0511628,0.166473988 L11.0511628,0.813872832 L8.27906977,0.813872832 L8.27906977,2.73757225 L10.6232558,2.73757225 L10.6232558,3.40346821 L8.27906977,3.40346821 L8.27906977,5.62312139 L11.144186,5.62312139 L11.144186,6.28901734 L7.49767442,6.28901734 L7.49767442,0.166473988 L7.49767442,0.166473988 Z"></path>
                    <path d="M13.8790698,3.21849711 C13.8790698,2.71907514 13.9534884,2.29364162 14.0837209,1.8867052 C14.2139535,1.4982659 14.4186047,1.16531792 14.6604651,0.887861272 C14.9023256,0.610404624 15.2,0.406936416 15.5348837,0.258959538 C15.8697674,0.110982659 16.2418605,0.0369942197 16.6325581,0.0369942197 C17.0046512,0.0369942197 17.3395349,0.110982659 17.6186047,0.258959538 C17.8976744,0.406936416 18.1395349,0.591907514 18.3069767,0.776878613 L17.8604651,1.29479769 C17.6930233,1.1283237 17.5255814,0.980346821 17.3209302,0.887861272 C17.1162791,0.776878613 16.8930233,0.739884393 16.6325581,0.739884393 C16.3348837,0.739884393 16.0744186,0.795375723 15.8325581,0.906358382 C15.5906977,1.01734104 15.3860465,1.18381503 15.2186047,1.40578035 C15.0511628,1.62774566 14.9209302,1.8867052 14.827907,2.18265896 C14.7348837,2.47861272 14.6790698,2.8300578 14.6790698,3.2 C14.6790698,3.58843931 14.7162791,3.93988439 14.8093023,4.23583815 C14.9023256,4.55028902 15.0325581,4.80924855 15.1813953,5.03121387 C15.3302326,5.25317919 15.5348837,5.41965318 15.7767442,5.53063584 C16.0186047,5.6416185 16.2790698,5.71560694 16.5767442,5.71560694 C16.8744186,5.71560694 17.1348837,5.66011561 17.3581395,5.53063584 C17.5813953,5.41965318 17.7860465,5.25317919 17.9906977,5.03121387 L18.4372093,5.51213873 C18.1953488,5.78959538 17.9162791,6.01156069 17.6186047,6.15953757 C17.3209302,6.30751445 16.9674419,6.4 16.5767442,6.4 C16.1860465,6.4 15.8325581,6.32601156 15.4976744,6.17803468 C15.1627907,6.0300578 14.8837209,5.8265896 14.6418605,5.54913295 C14.4,5.2716763 14.2139535,4.93872832 14.0837209,4.55028902 C13.9348837,4.16184971 13.8790698,3.71791908 13.8790698,3.21849711 L13.8790698,3.21849711 Z"></path>
                    <path d="M21.3767442,0.166473988 L22.1581395,0.166473988 L22.1581395,2.73757225 L25.0232558,2.73757225 L25.0232558,0.166473988 L25.8046512,0.166473988 L25.8046512,6.28901734 L25.0232558,6.28901734 L25.0232558,3.40346821 L22.1581395,3.40346821 L22.1581395,6.28901734 L21.3767442,6.28901734 L21.3767442,0.166473988 L21.3767442,0.166473988 Z"></path>
                    <path d="M29.2651163,0.166473988 L30.0651163,0.166473988 L32.2790698,4.01387283 L32.9488372,5.29017341 L32.9860465,5.29017341 C32.9674419,4.97572254 32.9488372,4.66127168 32.9302326,4.3283237 C32.9116279,3.99537572 32.8930233,3.66242775 32.8930233,3.34797688 L32.8930233,0.184971098 L33.6372093,0.184971098 L33.6372093,6.30751445 L32.8372093,6.30751445 L30.6046512,2.46011561 L29.9348837,1.20231214 L29.8976744,1.20231214 C29.9162791,1.51676301 29.9534884,1.83121387 29.972093,2.14566474 C29.9906977,2.46011561 30.0093023,2.79306358 30.0093023,3.10751445 L30.0093023,6.30751445 L29.2651163,6.30751445 L29.2651163,0.166473988 L29.2651163,0.166473988 Z"></path>
                    <path d="M39.3860465,6.38150289 C38.9953488,6.38150289 38.6418605,6.30751445 38.3255814,6.15953757 C38.0093023,6.01156069 37.7302326,5.78959538 37.4883721,5.51213873 C37.2651163,5.23468208 37.0790698,4.9017341 36.9488372,4.5132948 C36.8186047,4.12485549 36.7627907,3.68092486 36.7627907,3.18150289 C36.7627907,2.68208092 36.8186047,2.2566474 36.9488372,1.86820809 C37.0790698,1.47976879 37.2651163,1.14682081 37.4883721,0.887861272 C37.7116279,0.628901734 37.9906977,0.406936416 38.3255814,0.258959538 C38.6418605,0.110982659 38.9953488,0.0369942197 39.3860465,0.0369942197 C39.7767442,0.0369942197 40.1302326,0.110982659 40.4465116,0.258959538 C40.7627907,0.406936416 41.0418605,0.610404624 41.2837209,0.887861272 C41.5255814,1.16531792 41.6930233,1.47976879 41.8232558,1.86820809 C41.9534884,2.2566474 42.0093023,2.70057803 42.0093023,3.18150289 C42.0093023,3.68092486 41.9534884,4.12485549 41.8232558,4.5132948 C41.6930233,4.9017341 41.5069767,5.25317919 41.2837209,5.51213873 C41.0418605,5.78959538 40.7627907,5.99306358 40.4465116,6.15953757 C40.1302326,6.30751445 39.7767442,6.38150289 39.3860465,6.38150289 L39.3860465,6.38150289 Z M39.3860465,5.71560694 C39.6651163,5.71560694 39.9069767,5.66011561 40.1302326,5.53063584 C40.3534884,5.41965318 40.5395349,5.23468208 40.7069767,5.03121387 C40.8744186,4.80924855 40.9860465,4.55028902 41.0790698,4.23583815 C41.172093,3.92138728 41.2093023,3.58843931 41.2093023,3.2 C41.2093023,2.8300578 41.172093,2.47861272 41.0790698,2.18265896 C40.9860465,1.8867052 40.8744186,1.62774566 40.7069767,1.40578035 C40.5395349,1.20231214 40.3534884,1.03583815 40.1302326,0.924855491 C39.9069767,0.813872832 39.6651163,0.758381503 39.3860465,0.758381503 C39.1069767,0.758381503 38.8651163,0.813872832 38.6418605,0.924855491 C38.4186047,1.03583815 38.2325581,1.20231214 38.0651163,1.40578035 C37.8976744,1.60924855 37.7860465,1.86820809 37.6930233,2.18265896 C37.6,2.47861272 37.5627907,2.8300578 37.5627907,3.2 C37.5627907,3.58843931 37.6,3.93988439 37.6930233,4.23583815 C37.7860465,4.55028902 37.8976744,4.80924855 38.0651163,5.03121387 C38.2325581,5.25317919 38.4186047,5.41965318 38.6418605,5.53063584 C38.8651163,5.6416185 39.1069767,5.71560694 39.3860465,5.71560694 L39.3860465,5.71560694 Z"></path>
                    <path d="M45.1348837,0.166473988 L45.9162791,0.166473988 L45.9162791,5.62312139 L48.6139535,5.62312139 L48.6139535,6.28901734 L45.1348837,6.28901734 L45.1348837,0.166473988 L45.1348837,0.166473988 Z"></path>
                    <path d="M53.4883721,6.38150289 C53.0976744,6.38150289 52.744186,6.30751445 52.427907,6.15953757 C52.1116279,6.01156069 51.8325581,5.78959538 51.5906977,5.51213873 C51.3674419,5.23468208 51.1813953,4.9017341 51.0511628,4.5132948 C50.9209302,4.12485549 50.8651163,3.68092486 50.8651163,3.18150289 C50.8651163,2.68208092 50.9209302,2.2566474 51.0511628,1.86820809 C51.1813953,1.47976879 51.3674419,1.14682081 51.5906977,0.887861272 C51.8139535,0.610404624 52.0930233,0.406936416 52.427907,0.258959538 C52.7627907,0.110982659 53.0976744,0.0369942197 53.4883721,0.0369942197 C53.8790698,0.0369942197 54.2325581,0.110982659 54.5488372,0.258959538 C54.8651163,0.406936416 55.144186,0.610404624 55.3860465,0.887861272 C55.627907,1.16531792 55.7953488,1.47976879 55.9255814,1.86820809 C56.055814,2.2566474 56.1116279,2.70057803 56.1116279,3.18150289 C56.1116279,3.68092486 56.055814,4.12485549 55.9255814,4.5132948 C55.7953488,4.9017341 55.6093023,5.25317919 55.3860465,5.51213873 C55.144186,5.78959538 54.8651163,5.99306358 54.5488372,6.15953757 C54.2325581,6.30751445 53.8790698,6.38150289 53.4883721,6.38150289 L53.4883721,6.38150289 Z M53.4883721,5.71560694 C53.7674419,5.71560694 54.0093023,5.66011561 54.2325581,5.53063584 C54.455814,5.40115607 54.6418605,5.23468208 54.8093023,5.03121387 C54.9767442,4.80924855 55.0883721,4.55028902 55.1813953,4.23583815 C55.2744186,3.92138728 55.3116279,3.58843931 55.3116279,3.2 C55.3116279,2.8300578 55.2744186,2.47861272 55.1813953,2.18265896 C55.0883721,1.8867052 54.9767442,1.62774566 54.8093023,1.40578035 C54.6418605,1.18381503 54.455814,1.03583815 54.2325581,0.924855491 C54.0093023,0.813872832 53.7674419,0.758381503 53.4883721,0.758381503 C53.2093023,0.758381503 52.9674419,0.813872832 52.744186,0.924855491 C52.5209302,1.03583815 52.3348837,1.20231214 52.1674419,1.40578035 C52,1.60924855 51.8883721,1.86820809 51.7953488,2.18265896 C51.7023256,2.47861272 51.6651163,2.8300578 51.6651163,3.2 C51.6651163,3.58843931 51.7023256,3.93988439 51.7953488,4.23583815 C51.8883721,4.55028902 52,4.80924855 52.1674419,5.03121387 C52.3348837,5.25317919 52.5209302,5.41965318 52.744186,5.53063584 C52.9674419,5.6416185 53.227907,5.71560694 53.4883721,5.71560694 L53.4883721,5.71560694 Z"></path>
                    <path d="M58.8837209,3.21849711 C58.8837209,2.71907514 58.9581395,2.29364162 59.0883721,1.8867052 C59.2372093,1.4982659 59.4232558,1.16531792 59.6837209,0.887861272 C59.944186,0.610404624 60.2418605,0.406936416 60.5767442,0.258959538 C60.9116279,0.110982659 61.3023256,0.0369942197 61.7116279,0.0369942197 C62.1395349,0.0369942197 62.4930233,0.110982659 62.772093,0.277456647 C63.0511628,0.443930636 63.2930233,0.610404624 63.4790698,0.795375723 L63.0325581,1.29479769 C62.8837209,1.1283237 62.6976744,0.998843931 62.4930233,0.887861272 C62.2883721,0.776878613 62.027907,0.721387283 61.7116279,0.721387283 C61.3953488,0.721387283 61.1162791,0.776878613 60.8744186,0.887861272 C60.6325581,0.998843931 60.4093023,1.16531792 60.2418605,1.38728324 C60.0744186,1.60924855 59.9255814,1.86820809 59.8325581,2.16416185 C59.7395349,2.46011561 59.6837209,2.81156069 59.6837209,3.18150289 C59.6837209,3.5699422 59.7209302,3.92138728 59.8139535,4.21734104 C59.9069767,4.53179191 60.0372093,4.79075145 60.2046512,5.01271676 C60.372093,5.23468208 60.5953488,5.40115607 60.8372093,5.51213873 C61.0790698,5.62312139 61.3767442,5.69710983 61.7116279,5.69710983 C61.9348837,5.69710983 62.1395349,5.66011561 62.344186,5.60462428 C62.5488372,5.53063584 62.6976744,5.4566474 62.827907,5.34566474 L62.827907,3.75491329 L61.5255814,3.75491329 L61.5255814,3.10751445 L63.5348837,3.10751445 L63.5348837,5.67861272 C63.3302326,5.88208092 63.0697674,6.04855491 62.7348837,6.17803468 C62.4,6.30751445 62.027907,6.38150289 61.6186047,6.38150289 C61.2093023,6.38150289 60.8372093,6.30751445 60.5023256,6.15953757 C60.1674419,6.01156069 59.8697674,5.80809249 59.627907,5.53063584 C59.3860465,5.25317919 59.2,4.92023121 59.0511628,4.53179191 C58.9581395,4.16184971 58.8837209,3.71791908 58.8837209,3.21849711 L58.8837209,3.21849711 Z"></path>
                    <path d="M67.7953488,3.90289017 L65.9534884,0.147976879 L66.7906977,0.147976879 L67.5906977,1.86820809 C67.6837209,2.09017341 67.7953488,2.31213873 67.8883721,2.53410405 C67.9813953,2.75606936 68.0744186,2.97803468 68.1860465,3.2 L68.2232558,3.2 C68.3348837,2.97803468 68.427907,2.73757225 68.5395349,2.53410405 C68.6511628,2.33063584 68.744186,2.09017341 68.8372093,1.86820809 L69.6186047,0.147976879 L70.4372093,0.147976879 L68.5953488,3.90289017 L68.5953488,6.27052023 L67.8139535,6.27052023 L67.8139535,3.90289017 L67.7953488,3.90289017 Z"></path>
                </g>
                <g transform="translate(0.000000, 3.329480)" id="Shape">
                    <path d="M28.6697674,21.0682081 L28.6511628,21.0867052 L28.6325581,21.1052023 C28.6139535,21.1236994 28.5953488,21.1421965 28.5581395,21.1606936 C28.5581395,21.1606936 28.5581395,21.1606936 28.5395349,21.1606936 C28.5023256,21.1791908 28.4651163,21.216185 28.427907,21.2531792 L28.427907,21.2531792 C28.3906977,21.2901734 28.3348837,21.3271676 28.2790698,21.3456647 L28.2604651,21.3641618 C28.2232558,21.4011561 28.1674419,21.4196532 28.1116279,21.4566474 C28.0930233,21.4751445 28.055814,21.4936416 28.0372093,21.5121387 C28,21.5306358 27.9627907,21.5491329 27.9255814,21.5861272 C27.8697674,21.6231214 27.8139535,21.6601156 27.7581395,21.6971098 C27.7395349,21.6971098 27.7395349,21.7156069 27.7209302,21.7156069 C26.9209302,22.1780347 25.6372093,22.6959538 24.055814,22.732948 L21.0790698,22.732948 L11.2186047,22.732948 L11.2372093,22.732948 L11.2186047,22.732948 C11.2186047,22.732948 11.4976744,23.2323699 12.6697674,25.2300578 C14.1395349,27.7086705 16.4837209,28.467052 16.4837209,28.467052 L14.5116279,28.467052 L14.5116279,28.467052 L17.7302326,28.467052 L22.2883721,28.467052 C23.572093,28.467052 24.7627907,27.782659 25.4139535,26.6728324 L27.7023256,22.732948 L28.6697674,21.0682081 L28.6697674,21.0682081 L28.6697674,21.0682081 Z" fill="#AAAD00"></path>
                    <path d="M31.6093023,12.4485549 L28.3534884,6.84393064 L28.3534884,6.84393064 C28.3534884,6.88092486 28.9116279,9.13757225 27.4790698,11.7641618 L26.0093023,14.2427746 L21.0604651,22.7514451 L24.0372093,22.7514451 C25.6372093,22.7144509 26.9023256,22.1780347 27.7023256,21.734104 C27.7209302,21.734104 27.7209302,21.7156069 27.7395349,21.7156069 C27.7953488,21.6786127 27.8511628,21.6416185 27.9069767,21.6046243 C27.944186,21.5861272 27.9813953,21.5676301 28.0186047,21.5306358 C28.0372093,21.5121387 28.0744186,21.4936416 28.0930233,21.4751445 C28.1488372,21.4381503 28.1860465,21.4011561 28.2418605,21.382659 L28.2604651,21.3641618 C28.3162791,21.3271676 28.3534884,21.2901734 28.4093023,21.2716763 L28.4093023,21.2716763 C28.4465116,21.2346821 28.4837209,21.216185 28.5209302,21.1791908 L28.5395349,21.1791908 C28.5581395,21.1606936 28.5953488,21.1421965 28.6139535,21.1236994 L28.6325581,21.1052023 C28.6511628,21.1052023 28.6511628,21.0867052 28.6511628,21.0867052 L28.6697674,21.0867052 L29.3209302,19.9768786 L31.5906977,16.0554913 C32.2604651,14.9271676 32.2604651,13.5583815 31.6093023,12.4485549 L31.6093023,12.4485549 Z" fill="#00A1DF"></path>
                    <path d="M8.31627907,5.75260116 C5.5627907,5.75260116 3.72093023,7.32485549 3.57209302,7.47283237 L3.57209302,7.47283237 L2.93953488,8.54566474 L0.669767442,12.467052 C0.0186046512,13.5768786 0.0186046512,14.9456647 0.669767442,16.0554913 L2.95813953,19.9953757 L3.9255814,21.6786127 C3.9255814,21.6786127 3.77674419,20.9942197 3.85116279,19.9953757 C3.9255814,19.0890173 4.14883721,17.9421965 4.81860465,16.7583815 L11.1813953,5.78959538 L11.1813953,5.78959538 L8.31627907,5.75260116 L8.31627907,5.75260116 Z" fill="#00A1DF"></path>
                    <path d="M12.6511628,25.2485549 C11.4790698,23.2693642 11.2,22.7699422 11.2,22.7514451 L6.26976744,14.2612717 L4.8372093,16.7398844 C4.16744186,17.9236994 3.9255814,19.0705202 3.86976744,19.9768786 C3.79534884,20.9942197 3.94418605,21.6601156 3.94418605,21.6601156 L2.97674419,19.9768786 L2.97674419,19.9768786 L4.57674419,22.7514451 L6.84651163,26.6728324 C7.49767442,27.782659 8.68837209,28.467052 9.97209302,28.467052 L14.5116279,28.467052 L16.4651163,28.467052 C16.4837209,28.467052 14.1209302,27.7271676 12.6511628,25.2485549 L12.6511628,25.2485549 Z" fill="#555759"></path>
                    <path d="M28.3534884,6.84393064 L27.7209302,5.73410405 L25.4511628,1.81271676 C24.8,0.702890173 23.6093023,0.0184971098 22.3255814,0.0184971098 L15.8511628,0.0184971098 C15.8511628,0.0184971098 15.8511628,0.0184971098 15.8325581,0.0184971098 C15.9255814,0.0554913295 18.1953488,0.813872832 19.627907,3.23699422 C20.8,5.23468208 21.0790698,5.73410405 21.0790698,5.73410405 L26.0093023,14.2242775 L27.4790698,11.7456647 C28.9116279,9.13757225 28.372093,6.88092486 28.3534884,6.84393064 L28.3534884,6.84393064 Z" fill="#555759"></path>
                    <path d="M19.627907,3.25549133 C18.1953488,0.832369942 15.9255814,0.0554913295 15.8325581,0.0369942197 L14.5674419,0.0369942197 L10.0093023,0.0369942197 C8.7255814,0.0369942197 7.53488372,0.721387283 6.88372093,1.83121387 L4.59534884,5.77109827 L3.59069767,7.47283237 C3.73953488,7.3433526 5.5627907,5.75260116 8.33488372,5.75260116 L11.2186047,5.75260116 L11.2186047,5.75260116 L11.2372093,5.75260116 L11.2372093,5.73410405 L21.0976744,5.73410405 C21.0790698,5.75260116 20.8,5.25317919 19.627907,3.25549133 L19.627907,3.25549133 Z" fill="#AAAD00"></path>
                </g>
            </g>
        </g>
    </g>
</svg>