<?xml version="1.0" standalone="yes"?>

<svg version="1.1" viewBox="0.0 0.0 582.0472440944882 379.84251968503935" fill="none" stroke="none" stroke-linecap="square" stroke-miterlimit="10" xmlns="http://www.w3.org/2000/svg" xmlns:xlink="http://www.w3.org/1999/xlink"><clipPath id="p.0"><path d="m0 0l582.04724 0l0 379.84253l-582.04724 0l0 -379.84253z" clip-rule="nonzero"></path></clipPath><g clip-path="url(#p.0)"><path fill="#000000" fill-opacity="0.0" d="m0 0l582.04724 0l0 379.84253l-582.04724 0z" fill-rule="nonzero"></path><path fill="#000000" fill-opacity="0.0" d="m101.1811 99.614174l44.850395 0l0 45.448814l-44.850395 0z" fill-rule="nonzero"></path><path fill="#000000" d="m111.4311 126.53417l0 -9.859375l1.5 0l0 1.40625q1.09375 -1.625 3.140625 -1.625q0.890625 0 1.640625 0.328125q0.75 0.3125 1.109375 0.84375q0.375 0.515625 0.53125 1.21875q0.09375 0.46875 0.09375 1.625l0 6.0625l-1.671875 0l0 -6.0q0 -1.015625 -0.203125 -1.515625q-0.1875 -0.515625 -0.6875 -0.8125q-0.5 -0.296875 -1.171875 -0.296875q-1.0625 0 -1.84375 0.671875q-0.765625 0.671875 -0.765625 2.578125l0 5.375l-1.671875 0zm16.203842 0l-1.671875 0l0 -10.640625q-0.59375 0.578125 -1.578125 1.15625q-0.984375 0.5625 -1.765625 0.859375l0 -1.625q1.40625 -0.65625 2.453125 -1.59375q1.046875 -0.9375 1.484375 -1.8125l1.078125 0l0 13.65625z" fill-rule="nonzero"></path><path fill="#f6e1b9" d="m38.51706 189.92126l0 0c0 -97.37607 51.98432 -176.31497 116.110245 -176.31497l0 0c30.794342 0 60.32744 18.575985 82.102325 51.641457c21.774887 33.065468 34.00789 77.911865 34.00789 124.67351l0 0c0 97.37607 -51.984314 176.31494 -116.110214 176.31494l0 0c-64.12592 0 -116.110245 -78.93887 -116.110245 -176.31494z" fill-rule="nonzero"></path><path stroke="#5f5e5d" stroke-width="4.0" stroke-linejoin="round" stroke-linecap="butt" d="m38.51706 189.92126l0 0c0 -97.37607 51.98432 -176.31497 116.110245 -176.31497l0 0c30.794342 0 60.32744 18.575985 82.102325 51.641457c21.774887 33.065468 34.00789 77.911865 34.00789 124.67351l0 0c0 97.37607 -51.984314 176.31494 -116.110214 176.31494l0 0c-64.12592 0 -116.110245 -78.93887 -116.110245 -176.31494z" fill-rule="nonzero"></path><path fill="#f6e1b9" d="m311.30972 189.92126l0 0c0 -97.37607 51.984314 -176.31497 116.11023 -176.31497l0 0c30.794342 0 60.327423 18.575985 82.102325 51.641457c21.774902 33.065468 34.007935 77.911865 34.007935 124.67351l0 0c0 97.37607 -51.984344 176.31494 -116.11026 176.31494l0 0c-64.125916 0 -116.11023 -78.93887 -116.11023 -176.31494z" fill-rule="nonzero"></path><path stroke="#5f5e5d" stroke-width="4.0" stroke-linejoin="round" stroke-linecap="butt" d="m311.30972 189.92126l0 0c0 -97.37607 51.984314 -176.31497 116.11023 -176.31497l0 0c30.794342 0 60.327423 18.575985 82.102325 51.641457c21.774902 33.065468 34.007935 77.911865 34.007935 124.67351l0 0c0 97.37607 -51.984344 176.31494 -116.11026 176.31494l0 0c-64.125916 0 -116.11023 -78.93887 -116.11023 -176.31494z" fill-rule="nonzero"></path><path fill="#000000" fill-opacity="0.0" d="m88.89501 16.065617l131.46457 0l0 71.87402l-131.46457 0z" fill-rule="nonzero"></path><path fill="#000000" d="m116.96185 47.922623l0 -0.421875l1.4375 -0.09375l0 -12.21875l-1.4375 -0.09375l0 -0.40625l5.234375 0l0 0.40625l-1.421875 0.09375l0 12.21875l1.421875 0.09375l0 0.421875l-5.234375 0zm6.561493 -4.421875q0 -0.8125 0.140625 -1.546875q0.15625 -0.75 0.46875 -1.40625q0.328125 -0.671875 0.796875 -1.15625q0.484375 -0.484375 1.171875 -0.765625q0.6875 -0.296875 1.53125 -0.296875q0.34375 0 0.8125 0.125q0.484375 0.109375 0.78125 0.34375l0 -3.375l-1.140625 0l0 -0.390625l1.9375 -0.203125l1.3125 -0.34375l0.171875 0.265625l0 12.703125l0.9375 0.09375l0 0.375l-3.09375 0l-0.125 -1.3125l-0.015625 0q-0.53125 0.90625 -1.125 1.25q-0.578125 0.34375 -1.390625 0.34375q-0.21875 0 -0.46875 -0.046875q-0.234375 -0.046875 -0.546875 -0.1875q-0.3125 -0.125 -0.609375 -0.328125q-0.296875 -0.21875 -0.578125 -0.59375q-0.28125 -0.375 -0.5 -0.84375q-0.21875 -0.46875 -0.34375 -1.171875q-0.125 -0.703125 -0.125 -1.53125zm2.375 -0.09375q0 4.015625 1.65625 4.015625q0.65625 0 1.15625 -0.78125q0.515625 -0.796875 0.515625 -1.703125l0 -5.6875q-0.53125 -0.390625 -1.1875 -0.390625q-0.421875 0 -0.765625 0.171875q-0.328125 0.171875 -0.5625 0.453125q-0.21875 0.265625 -0.375 0.6875q-0.15625 0.40625 -0.25 0.78125q-0.078125 0.375 -0.125 0.875q-0.046875 0.484375 -0.0625 0.828125q0 0.328125 0 0.75zm7.6844788 -0.140625q0 -0.71875 0.140625 -1.40625q0.140625 -0.703125 0.453125 -1.34375q0.3125 -0.640625 0.765625 -1.125q0.453125 -0.484375 1.125 -0.765625q0.6875 -0.296875 1.5 -0.296875q0.765625 0 1.375 0.21875q0.609375 0.21875 1.015625 0.609375q0.421875 0.390625 0.6875 0.953125q0.265625 0.5625 0.375 1.21875q0.125 0.640625 0.125 1.421875l-0.25 0.234375l-4.9375 0l0 0.5625q0 4.046875 2.296875 4.046875q1.640625 0 2.609375 -1.625l0.359375 0.21875q-1.1875 2.015625 -3.40625 2.015625q-2.125 0 -3.1875 -1.3125q-1.046875 -1.328125 -1.046875 -3.625zm2.375 -0.703125l3.0 -0.109375q0.03125 -0.484375 0.03125 -0.921875q0 -1.34375 -0.328125 -2.0625q-0.3125 -0.71875 -1.0625 -0.71875q-0.4375 0 -0.765625 0.296875q-0.3125 0.28125 -0.5 0.828125q-0.171875 0.546875 -0.265625 1.203125q-0.078125 0.640625 -0.109375 1.484375zm6.336151 -3.59375l1.9375 -0.203125l1.3125 -0.34375l0.171875 0.265625l-0.046875 1.25l0.046875 0q1.09375 -1.609375 2.859375 -1.609375q0.328125 0 0.625 0.0625q0.3125 0.046875 0.6875 0.25q0.375 0.1875 0.640625 0.5q0.265625 0.3125 0.453125 0.90625q0.1875 0.578125 0.1875 1.359375l0 6.046875l0.9375 0.09375l0 0.375l-4.171875 0l0 -0.375l0.953125 -0.09375l0 -6.3125q0 -1.984375 -1.28125 -1.984375q-0.828125 0 -1.359375 0.765625q-0.53125 0.765625 -0.53125 2.0l0 5.53125l0.953125 0.09375l0 0.375l-4.1875 0l0 -0.375l0.953125 -0.09375l0 -8.125l-1.125 0.015625l-0.015625 -0.375zm10.134705 0.03125l0 -0.390625l1.578125 0l0 -2.046875l0.796875 -0.09375l1.3125 -0.34375l0.171875 0.28125l0 2.203125l2.03125 0l0 0.390625l-2.03125 0.09375l0 6.53125q0 0.5625 0.125 0.9375q0.140625 0.375 0.359375 0.515625q0.21875 0.140625 0.34375 0.1875q0.140625 0.03125 0.296875 0.03125q0.28125 0 0.546875 -0.125q0.265625 -0.125 0.484375 -0.359375q0.21875 -0.25 0.359375 -0.453125q0.140625 -0.203125 0.3125 -0.484375l0.40625 0.234375q-0.5 0.8125 -0.859375 1.1875q-0.875 0.90625 -2.03125 0.90625q-0.4375 0 -0.78125 -0.0625q-0.328125 -0.0625 -0.703125 -0.25q-0.359375 -0.203125 -0.59375 -0.53125q-0.234375 -0.328125 -0.390625 -0.90625q-0.15625 -0.578125 -0.15625 -1.359375l0 -6.0l-1.578125 -0.09375zm7.3438263 0.34375l0 -0.375l1.9375 -0.203125l1.3125 -0.34375l0.15625 0.265625l0 8.765625l0.96875 0.09375l0 0.375l-4.1875 0l0 -0.375l0.953125 -0.09375l0 -8.109375l-1.140625 0zm1.015625 -4.21875q0 -0.25 0.09375 -0.46875q0.09375 -0.234375 0.25 -0.390625q0.171875 -0.171875 0.390625 -0.265625q0.234375 -0.09375 0.484375 -0.09375q0.25 0 0.46875 0.09375q0.21875 0.09375 0.390625 0.265625q0.171875 0.171875 0.265625 0.390625q0.109375 0.21875 0.109375 0.46875q0 0.25 -0.109375 0.484375q-0.09375 0.21875 -0.265625 0.390625q-0.15625 0.171875 -0.375 0.265625q-0.21875 0.09375 -0.484375 0.09375q-0.265625 0 -0.484375 -0.09375q-0.21875 -0.09375 -0.390625 -0.265625q-0.171875 -0.171875 -0.265625 -0.390625q-0.078125 -0.21875 -0.078125 -0.484375zm4.1194153 3.875l0 -0.390625l1.375 0q0 -0.8125 0.140625 -1.46875q0.140625 -0.671875 0.34375 -1.09375q0.203125 -0.421875 0.5 -0.734375q0.3125 -0.3125 0.578125 -0.453125q0.265625 -0.15625 0.59375 -0.234375q0.34375 -0.09375 0.546875 -0.109375q0.203125 -0.03125 0.453125 -0.03125q0.984375 0 1.53125 0.453125q0.546875 0.4375 0.546875 1.109375q0 0.453125 -0.296875 0.78125q-0.28125 0.328125 -0.78125 0.328125q-0.484375 0 -0.765625 -0.328125q-0.28125 -0.328125 -0.28125 -0.75q0 -0.25 0.109375 -0.515625q0.109375 -0.265625 0.296875 -0.390625l0 -0.03125q-0.03125 -0.09375 -0.171875 -0.15625q-0.125 -0.078125 -0.3125 -0.078125q-0.25 0 -0.421875 0.140625q-0.15625 0.140625 -0.234375 0.40625q-0.0625 0.25 -0.078125 0.46875q-0.015625 0.203125 -0.015625 0.53125l0 2.15625l2.234375 0l0 0.390625l-2.234375 0.09375l0 8.359375l1.328125 0.09375l0 0.375l-4.5625 0l0 -0.375l0.953125 -0.09375l0 -8.359375l-1.375 -0.09375zm6.397583 0.34375l0 -0.375l1.9375 -0.203125l1.3125 -0.34375l0.15625 0.265625l0 8.765625l0.96875 0.09375l0 0.375l-4.1875 0l0 -0.375l0.953125 -0.09375l0 -8.109375l-1.140625 0zm1.015625 -4.21875q0 -0.25 0.09375 -0.46875q0.09375 -0.234375 0.25 -0.390625q0.171875 -0.171875 0.390625 -0.265625q0.234375 -0.09375 0.484375 -0.09375q0.25 0 0.46875 0.09375q0.21875 0.09375 0.390625 0.265625q0.171875 0.171875 0.265625 0.390625q0.109375 0.21875 0.109375 0.46875q0 0.25 -0.109375 0.484375q-0.09375 0.21875 -0.265625 0.390625q-0.15625 0.171875 -0.375 0.265625q-0.21875 0.09375 -0.484375 0.09375q-0.265625 0 -0.484375 -0.09375q-0.21875 -0.09375 -0.390625 -0.265625q-0.171875 -0.171875 -0.265625 -0.390625q-0.078125 -0.21875 -0.078125 -0.484375zm4.5412903 8.140625q0 -0.71875 0.140625 -1.40625q0.140625 -0.703125 0.453125 -1.34375q0.3125 -0.640625 0.765625 -1.125q0.453125 -0.484375 1.125 -0.765625q0.6875 -0.296875 1.5 -0.296875q0.765625 0 1.375 0.21875q0.609375 0.21875 1.015625 0.609375q0.421875 0.390625 0.6875 0.953125q0.265625 0.5625 0.375 1.21875q0.125 0.640625 0.125 1.421875l-0.25 0.234375l-4.9375 0l0 0.5625q0 4.046875 2.296875 4.046875q1.640625 0 2.609375 -1.625l0.359375 0.21875q-1.1875 2.015625 -3.40625 2.015625q-2.125 0 -3.1875 -1.3125q-1.046875 -1.328125 -1.046875 -3.625zm2.375 -0.703125l3.0 -0.109375q0.03125 -0.484375 0.03125 -0.921875q0 -1.34375 -0.328125 -2.0625q-0.3125 -0.71875 -1.0625 -0.71875q-0.4375 0 -0.765625 0.296875q-0.3125 0.28125 -0.5 0.828125q-0.171875 0.546875 -0.265625 1.203125q-0.078125 0.640625 -0.109375 1.484375zm6.351776 -3.21875l0 -0.375l1.9375 -0.203125l1.3125 -0.34375l0.125 0.265625l0 1.59375l0.03125 0q0.1875 -0.359375 0.453125 -0.71875q0.28125 -0.359375 0.59375 -0.625q0.328125 -0.28125 0.6875 -0.4375q0.359375 -0.171875 0.734375 -0.171875q0.71875 0 1.109375 0.390625q0.390625 0.375 0.390625 1.015625q0 0.28125 -0.078125 0.515625q-0.078125 0.21875 -0.234375 0.390625q-0.15625 0.15625 -0.375 0.25q-0.21875 0.09375 -0.46875 0.09375q-0.28125 0 -0.515625 -0.078125q-0.21875 -0.09375 -0.375 -0.25q-0.140625 -0.171875 -0.234375 -0.375q-0.078125 -0.203125 -0.078125 -0.453125q0 -0.484375 0.203125 -0.71875l0 -0.0625q-0.328125 0.078125 -0.65625 0.359375q-0.3125 0.28125 -0.578125 0.765625q-0.25 0.46875 -0.421875 1.140625q-0.15625 0.671875 -0.15625 1.515625l0 4.625l0.96875 0.09375l0 0.375l-4.1875 0l0 -0.375l0.953125 -0.09375l0 -8.109375l-1.140625 0z" fill-rule="nonzero"></path><path fill="#000000" d="m114.30251 57.094498l0 -0.40625l1.984375 0l7.953125 9.640625l0.03125 0l-0.140625 -9.140625l-1.40625 -0.09375l0 -0.40625l3.421875 0l0 0.40625l-1.421875 0.09375l0.09375 12.921875l-0.5625 0l-7.953125 -9.671875l-0.03125 0l0.140625 8.96875l1.421875 0.09375l0 0.421875l-3.4375 0l0 -0.421875l1.421875 -0.09375l-0.09375 -12.21875l-1.421875 -0.09375zm12.912079 10.8125q0 -0.453125 0.140625 -0.875q0.140625 -0.421875 0.46875 -0.8125q0.32813263 -0.390625 0.7968826 -0.671875q0.46875 -0.296875 1.171875 -0.46875q0.703125 -0.171875 1.5625 -0.171875q0.453125 0 0.859375 0.046875l0 -1.28125q0 -0.609375 -0.03125 -0.984375q-0.015625 -0.390625 -0.109375 -0.796875q-0.09375 -0.40625 -0.265625 -0.625q-0.171875 -0.21875 -0.484375 -0.359375q-0.3125 -0.140625 -0.75 -0.140625q-1.359375 0 -1.984375 1.0625l0 0.046875q0.15625 -0.03125 0.296875 -0.03125q0.484375 0 0.75 0.296875q0.28125 0.296875 0.28125 0.84375q0 0.484375 -0.34375 0.8125q-0.328125 0.328125 -0.828125 0.328125q-0.546875 0 -0.8593826 -0.359375q-0.3125 -0.375 -0.3125 -0.875q0 -1.09375 1.0000076 -1.828125q1.015625 -0.734375 2.3125 -0.734375q0.9375 0 1.59375 0.203125q0.65625 0.1875 1.03125 0.515625q0.390625 0.3125 0.609375 0.875q0.21875 0.546875 0.28125 1.125q0.078125 0.5625 0.078125 1.40625l0 5.0l0.953125 0.09375l0 0.375l-2.9375 0l-0.265625 -1.46875l-0.015625 0q-0.453125 0.890625 -1.109375 1.328125q-0.640625 0.421875 -1.5625 0.421875q-1.125 0 -1.7343826 -0.671875q-0.59375 -0.6875 -0.59375 -1.625zm2.2343826 -0.1875q0 0.734375 0.28125 1.203125q0.28125 0.453125 0.828125 0.453125q0.625 0 1.140625 -0.78125q0.515625 -0.796875 0.515625 -1.9375l0 -1.28125q-0.375 -0.046875 -0.609375 -0.046875q-0.484375 0 -0.859375 0.140625q-0.375 0.125 -0.59375 0.34375q-0.21875 0.21875 -0.375 0.46875q-0.140625 0.25 -0.21875 0.546875q-0.0625 0.296875 -0.09375 0.5q-0.015625 0.1875 -0.015625 0.390625zm6.7800446 -6.375l0 -0.375l1.9375 -0.203125l1.3125 -0.34375l0.125 0.265625l0 1.25l0.03125 0q1.109375 -1.609375 2.671875 -1.609375q0.328125 0 0.625 0.078125q0.3125 0.0625 0.640625 0.234375q0.34375 0.171875 0.625 0.546875q0.28125 0.359375 0.4375 0.875l0.015625 0q1.25 -1.734375 2.890625 -1.734375q0.328125 0 0.625 0.0625q0.3125 0.0625 0.671875 0.265625q0.359375 0.203125 0.609375 0.53125q0.265625 0.3125 0.4375 0.90625q0.1875 0.59375 0.1875 1.375l0 5.984375l0.953125 0.09375l0 0.375l-4.1875 0l0 -0.375l0.953125 -0.09375l0 -6.3125q0 -0.546875 -0.109375 -0.9375q-0.09375 -0.40625 -0.21875 -0.59375q-0.125 -0.1875 -0.3125 -0.296875q-0.1875 -0.109375 -0.296875 -0.125q-0.109375 -0.03125 -0.25 -0.03125q-0.625 0 -1.21875 0.6875q-0.578125 0.6875 -0.578125 1.890625l0 5.71875l0.953125 0.09375l0 0.375l-4.1875 0l0 -0.375l0.953125 -0.09375l0 -6.3125q0 -0.546875 -0.09375 -0.9375q-0.09375 -0.40625 -0.21875 -0.59375q-0.125 -0.1875 -0.3125 -0.296875q-0.171875 -0.109375 -0.28125 -0.125q-0.109375 -0.03125 -0.25 -0.03125q-0.59375 0 -1.171875 0.8125q-0.5625 0.796875 -0.5625 1.953125l0 5.53125l0.96875 0.09375l0 0.375l-4.1875 0l0 -0.375l0.953125 -0.09375l0 -8.109375l-1.140625 0zm15.704895 3.921875q0 -0.71875 0.140625 -1.40625q0.140625 -0.703125 0.453125 -1.34375q0.3125 -0.640625 0.765625 -1.125q0.453125 -0.484375 1.125 -0.765625q0.6875 -0.296875 1.5 -0.296875q0.765625 0 1.375 0.21875q0.609375 0.21875 1.015625 0.609375q0.421875 0.390625 0.6875 0.953125q0.265625 0.5625 0.375 1.21875q0.125 0.640625 0.125 1.421875l-0.25 0.234375l-4.9375 0l0 0.5625q0 4.046875 2.296875 4.046875q1.640625 0 2.609375 -1.625l0.359375 0.21875q-1.1875 2.015625 -3.40625 2.015625q-2.125 0 -3.1875 -1.3125q-1.046875 -1.328125 -1.046875 -3.625zm2.375 -0.703125l3.0 -0.109375q0.03125 -0.484375 0.03125 -0.921875q0 -1.34375 -0.328125 -2.0625q-0.3125 -0.71875 -1.0625 -0.71875q-0.4375 0 -0.765625 0.296875q-0.3125 0.28125 -0.5 0.828125q-0.171875 0.546875 -0.265625 1.203125q-0.078125 0.640625 -0.109375 1.484375zm9.711151 5.1875q1.046875 0 1.546875 -0.390625q0.515625 -0.390625 0.515625 -0.984375q0 -0.296875 -0.09375 -0.53125q-0.09375 -0.234375 -0.3125 -0.453125q-0.21875 -0.21875 -0.578125 -0.4375q-0.359375 -0.234375 -0.890625 -0.53125q-0.453125 -0.265625 -0.984375 -0.546875q-0.515625 -0.296875 -0.953125 -0.6875q-0.4375 -0.390625 -0.734375 -0.890625q-0.296875 -0.515625 -0.296875 -1.234375q0 -0.625 0.234375 -1.125q0.25 -0.515625 0.671875 -0.875q0.4375 -0.359375 1.03125 -0.546875q0.609375 -0.203125 1.328125 -0.203125q0.53125 0 1.078125 0.140625q0.546875 0.125 0.96875 0.40625q0.4375 0.265625 0.703125 0.671875q0.28125 0.390625 0.28125 0.90625q0 0.203125 -0.078125 0.40625q-0.0625 0.1875 -0.203125 0.359375q-0.140625 0.15625 -0.34375 0.25q-0.1875 0.09375 -0.453125 0.09375q-0.53125 0 -0.8125 -0.296875q-0.265625 -0.296875 -0.265625 -0.71875q0 -0.265625 0.078125 -0.453125q0.078125 -0.203125 0.203125 -0.328125q0.125 -0.125 0.28125 -0.1875q0.15625 -0.0625 0.328125 -0.0625l0.078125 0l0 -0.015625q-0.09375 -0.140625 -0.265625 -0.265625q-0.171875 -0.140625 -0.421875 -0.25q-0.234375 -0.109375 -0.53125 -0.171875q-0.296875 -0.0625 -0.625 -0.0625q-0.5 0 -0.84375 0.125q-0.34375 0.125 -0.5625 0.328125q-0.21875 0.203125 -0.328125 0.453125q-0.09375 0.234375 -0.09375 0.453125q0 0.265625 0.078125 0.46875q0.09375 0.1875 0.296875 0.390625q0.21875 0.203125 0.578125 0.4375q0.375 0.21875 0.921875 0.546875q0.546875 0.28125 1.140625 0.59375q0.59375 0.3125 1.09375 0.734375q0.5 0.40625 0.828125 0.9375q0.34375 0.53125 0.34375 1.25q0 0.609375 -0.234375 1.109375q-0.234375 0.5 -0.71875 0.859375q-0.46875 0.359375 -1.203125 0.5625q-0.734375 0.203125 -1.75 0.203125q-0.484375 0 -1.03125 -0.125q-0.546875 -0.125 -1.015625 -0.390625q-0.453125 -0.265625 -0.765625 -0.6875q-0.296875 -0.421875 -0.296875 -1.03125q0 -0.265625 0.078125 -0.5q0.078125 -0.234375 0.234375 -0.421875q0.15625 -0.203125 0.375 -0.3125q0.21875 -0.109375 0.515625 -0.109375q0.25 0 0.4375 0.09375q0.203125 0.078125 0.328125 0.234375q0.140625 0.140625 0.21875 0.34375q0.078125 0.1875 0.078125 0.40625q0 0.265625 -0.09375 0.46875q-0.09375 0.1875 -0.25 0.328125q-0.140625 0.125 -0.328125 0.203125q-0.1875 0.0625 -0.375 0.0625q-0.03125 0 -0.078125 0q-0.046875 0 -0.078125 -0.015625l0 0.015625q0.078125 0.1875 0.25 0.375q0.171875 0.171875 0.421875 0.3125q0.25 0.125 0.59375 0.21875q0.34375 0.09375 0.75 0.09375zm9.228683 -4.296875q0 -2.515625 1.09375 -4.96875q1.109375 -2.453125 2.765625 -4.125l0.359375 0.34375q-2.125 2.984375 -2.125 8.75q0 5.734375 2.125 8.734375l-0.359375 0.328125q-1.65625 -1.6875 -2.765625 -4.125q-1.09375 -2.421875 -1.09375 -4.9375zm5.0753174 -8.359375l0 -0.40625l1.984375 0l7.953125 9.640625l0.03125 0l-0.140625 -9.140625l-1.40625 -0.09375l0 -0.40625l3.421875 0l0 0.40625l-1.421875 0.09375l0.09375 12.921875l-0.5625 0l-7.953125 -9.671875l-0.03125 0l0.140625 8.96875l1.421875 0.09375l0 0.421875l-3.4375 0l0 -0.421875l1.421875 -0.09375l-0.09375 -12.21875l-1.421875 -0.09375zm12.552704 17.09375q2.125 -3.0 2.125 -8.734375q0 -5.765625 -2.125 -8.75l0.359375 -0.34375q1.640625 1.671875 2.75 4.125q1.109375 2.453125 1.109375 4.96875q0 2.515625 -1.109375 4.9375q-1.109375 2.4375 -2.75 4.125l-0.359375 -0.328125z" fill-rule="nonzero"></path><path fill="#000000" fill-opacity="0.0" d="m361.68765 16.065617l131.46457 0l0 71.87402l-131.46457 0z" fill-rule="nonzero"></path><path fill="#000000" d="m391.00003 41.531998q0 -1.015625 0.21875 -2.015625q0.234375 -1.015625 0.71875 -1.953125q0.484375 -0.9375 1.1875 -1.640625q0.703125 -0.703125 1.734375 -1.125q1.046875 -0.4375 2.296875 -0.4375q1.4375 0 2.546875 0.796875q1.109375 0.78125 1.109375 1.875q0 0.546875 -0.359375 0.9375q-0.34375 0.390625 -0.9375 0.390625q-0.578125 0 -0.9375 -0.359375q-0.359375 -0.359375 -0.359375 -0.90625q0 -0.53125 0.328125 -0.890625q0.34375 -0.375 0.859375 -0.375q0.109375 0 0.15625 0l0 -0.03125q-0.140625 -0.265625 -0.765625 -0.578125q-0.609375 -0.328125 -1.46875 -0.328125q-1.6875 0 -2.78125 1.75q-1.078125 1.75 -1.078125 4.625q0 1.234375 0.203125 2.34375q0.21875 1.09375 0.640625 2.0q0.421875 0.890625 1.140625 1.421875q0.71875 0.53125 1.640625 0.53125q1.3125 0 2.28125 -0.78125q0.984375 -0.78125 1.53125 -2.0l0.4375 0.203125q-1.328125 3.265625 -4.46875 3.265625q-1.359375 0 -2.40625 -0.375q-1.046875 -0.390625 -1.703125 -1.015625q-0.640625 -0.625 -1.046875 -1.515625q-0.40625 -0.890625 -0.5625 -1.8125q-0.15625 -0.921875 -0.15625 -2.0zm11.257965 1.78125q0 -1.390625 0.53125 -2.53125q0.546875 -1.140625 1.515625 -1.796875q0.984375 -0.65625 2.21875 -0.65625q1.03125 0 1.84375 0.421875q0.828125 0.421875 1.3125 1.125q0.5 0.703125 0.765625 1.578125q0.265625 0.859375 0.265625 1.8125q0 1.359375 -0.515625 2.484375q-0.515625 1.125 -1.5 1.796875q-0.96875 0.65625 -2.1875 0.65625q-1.078125 0 -1.921875 -0.375q-0.828125 -0.390625 -1.328125 -1.078125q-0.5 -0.6875 -0.75 -1.546875q-0.25 -0.859375 -0.25 -1.890625zm2.375 -0.109375q0 1.03125 0.09375 1.84375q0.109375 0.8125 0.3125 1.4375q0.21875 0.625 0.578125 0.96875q0.359375 0.328125 0.859375 0.328125q1.859375 0 1.859375 -4.46875q0 -1.109375 -0.09375 -1.921875q-0.078125 -0.8125 -0.296875 -1.421875q-0.203125 -0.625 -0.578125 -0.921875q-0.359375 -0.296875 -0.890625 -0.296875q-0.5 0 -0.859375 0.34375q-0.359375 0.328125 -0.578125 0.9375q-0.203125 0.609375 -0.3125 1.40625q-0.09375 0.78125 -0.09375 1.765625zm7.146881 -4.234375l1.9375 -0.203125l1.3125 -0.34375l0.171875 0.265625l-0.046875 1.25l0.046875 0q1.09375 -1.609375 2.859375 -1.609375q0.328125 0 0.625 0.0625q0.3125 0.046875 0.6875 0.25q0.375 0.1875 0.640625 0.5q0.265625 0.3125 0.453125 0.90625q0.1875 0.578125 0.1875 1.359375l0 6.046875l0.9375 0.09375l0 0.375l-4.171875 0l0 -0.375l0.953125 -0.09375l0 -6.3125q0 -1.984375 -1.28125 -1.984375q-0.828125 0 -1.359375 0.765625q-0.53125 0.765625 -0.53125 2.0l0 5.53125l0.953125 0.09375l0 0.375l-4.1875 0l0 -0.375l0.953125 -0.09375l0 -8.125l-1.125 0.015625l-0.015625 -0.375zm10.83783 4.34375q0 -0.671875 0.15625 -1.359375q0.15625 -0.6875 0.5 -1.34375q0.359375 -0.65625 0.84375 -1.15625q0.5 -0.515625 1.234375 -0.8125q0.734375 -0.3125 1.59375 -0.3125q1.296875 0 2.140625 0.734375q0.859375 0.71875 0.859375 1.71875q0 0.5 -0.328125 0.84375q-0.3125 0.34375 -0.859375 0.34375q-0.5 0 -0.828125 -0.3125q-0.328125 -0.328125 -0.328125 -0.828125q0 -0.453125 0.296875 -0.78125q0.3125 -0.34375 0.78125 -0.34375q0.0625 0 0.234375 0.015625l0 -0.046875q-0.109375 -0.1875 -0.265625 -0.34375q-0.15625 -0.171875 -0.53125 -0.34375q-0.375 -0.1875 -0.828125 -0.1875q-0.8125 0 -1.34375 0.609375q-0.53125 0.609375 -0.75 1.578125q-0.203125 0.96875 -0.203125 2.296875q0 4.28125 2.28125 4.28125q0.296875 0 0.546875 -0.046875q0.265625 -0.0625 0.609375 -0.203125q0.34375 -0.15625 0.6875 -0.5q0.34375 -0.359375 0.65625 -0.890625l0.375 0.203125q-1.140625 2.078125 -3.265625 2.078125q-4.265625 0 -4.265625 -4.890625zm8.617584 -0.046875q0 -0.71875 0.140625 -1.40625q0.140625 -0.703125 0.453125 -1.34375q0.3125 -0.640625 0.765625 -1.125q0.453125 -0.484375 1.125 -0.765625q0.6875 -0.296875 1.5 -0.296875q0.765625 0 1.375 0.21875q0.609375 0.21875 1.015625 0.609375q0.421875 0.390625 0.6875 0.953125q0.265625 0.5625 0.375 1.21875q0.125 0.640625 0.125 1.421875l-0.25 0.234375l-4.9375 0l0 0.5625q0 4.046875 2.296875 4.046875q1.640625 0 2.609375 -1.625l0.359375 0.21875q-1.1875 2.015625 -3.40625 2.015625q-2.125 0 -3.1875 -1.3125q-1.046875 -1.328125 -1.046875 -3.625zm2.375 -0.703125l3.0 -0.109375q0.03125 -0.484375 0.03125 -0.921875q0 -1.34375 -0.328125 -2.0625q-0.3125 -0.71875 -1.0625 -0.71875q-0.4375 0 -0.765625 0.296875q-0.3125 0.28125 -0.5 0.828125q-0.171875 0.546875 -0.265625 1.203125q-0.078125 0.640625 -0.109375 1.484375zm6.242401 -3.21875l0 -0.375l1.9375 -0.203125l1.3125 -0.34375l0.125 0.265625l0 1.203125l0.046875 0q0.53125 -0.890625 1.109375 -1.21875q0.578125 -0.34375 1.40625 -0.34375q0.203125 0 0.4375 0.046875q0.25 0.046875 0.5625 0.1875q0.328125 0.125 0.625 0.34375q0.296875 0.21875 0.59375 0.59375q0.296875 0.375 0.5 0.875q0.21875 0.484375 0.34375 1.203125q0.140625 0.71875 0.140625 1.59375q0 1.046875 -0.265625 1.953125q-0.25 0.890625 -0.75 1.59375q-0.5 0.6875 -1.328125 1.09375q-0.8125 0.390625 -1.859375 0.390625q-0.921875 0 -1.515625 -0.46875l0 4.125l0.953125 0.09375l0 0.375l-4.1875 0l0 -0.375l0.953125 -0.09375l0 -12.515625l-1.140625 0zm3.421875 7.890625q0.53125 0.46875 1.140625 0.46875q0.4375 0 0.78125 -0.171875q0.359375 -0.171875 0.578125 -0.421875q0.234375 -0.265625 0.390625 -0.6875q0.171875 -0.4375 0.25 -0.8125q0.09375 -0.375 0.140625 -0.890625q0.046875 -0.515625 0.046875 -0.859375q0.015625 -0.34375 0.015625 -0.8125q0 -1.515625 -0.21875 -2.40625q-0.203125 -0.90625 -0.546875 -1.234375q-0.34375 -0.328125 -0.859375 -0.328125q-0.734375 0 -1.234375 0.765625q-0.484375 0.75 -0.484375 1.6875l0 5.703125zm6.3511047 -8.234375l0 -0.390625l1.578125 0l0 -2.046875l0.796875 -0.09375l1.3125 -0.34375l0.171875 0.28125l0 2.203125l2.03125 0l0 0.390625l-2.03125 0.09375l0 6.53125q0 0.5625 0.125 0.9375q0.140625 0.375 0.359375 0.515625q0.21875 0.140625 0.34375 0.1875q0.140625 0.03125 0.296875 0.03125q0.28125 0 0.546875 -0.125q0.265625 -0.125 0.484375 -0.359375q0.21875 -0.25 0.359375 -0.453125q0.140625 -0.203125 0.3125 -0.484375l0.40625 0.234375q-0.5 0.8125 -0.859375 1.1875q-0.875 0.90625 -2.03125 0.90625q-0.4375 0 -0.78125 -0.0625q-0.328125 -0.0625 -0.703125 -0.25q-0.359375 -0.203125 -0.59375 -0.53125q-0.234375 -0.328125 -0.390625 -0.90625q-0.15625 -0.578125 -0.15625 -1.359375l0 -6.0l-1.578125 -0.09375zm10.703217 8.75q1.046875 0 1.546875 -0.390625q0.515625 -0.390625 0.515625 -0.984375q0 -0.296875 -0.09375 -0.53125q-0.09375 -0.234375 -0.3125 -0.453125q-0.21875 -0.21875 -0.578125 -0.4375q-0.359375 -0.234375 -0.890625 -0.53125q-0.453125 -0.265625 -0.984375 -0.546875q-0.515625 -0.296875 -0.953125 -0.6875q-0.4375 -0.390625 -0.734375 -0.890625q-0.296875 -0.515625 -0.296875 -1.234375q0 -0.625 0.234375 -1.125q0.25 -0.515625 0.671875 -0.875q0.4375 -0.359375 1.03125 -0.546875q0.609375 -0.203125 1.328125 -0.203125q0.53125 0 1.078125 0.140625q0.546875 0.125 0.96875 0.40625q0.4375 0.265625 0.703125 0.671875q0.28125 0.390625 0.28125 0.90625q0 0.203125 -0.078125 0.40625q-0.0625 0.1875 -0.203125 0.359375q-0.140625 0.15625 -0.34375 0.25q-0.1875 0.09375 -0.453125 0.09375q-0.53125 0 -0.8125 -0.296875q-0.265625 -0.296875 -0.265625 -0.71875q0 -0.265625 0.078125 -0.453125q0.078125 -0.203125 0.203125 -0.328125q0.125 -0.125 0.28125 -0.1875q0.15625 -0.0625 0.328125 -0.0625l0.078125 0l0 -0.015625q-0.09375 -0.140625 -0.265625 -0.265625q-0.171875 -0.140625 -0.421875 -0.25q-0.234375 -0.109375 -0.53125 -0.171875q-0.296875 -0.0625 -0.625 -0.0625q-0.5 0 -0.84375 0.125q-0.34375 0.125 -0.5625 0.328125q-0.21875 0.203125 -0.328125 0.453125q-0.09375 0.234375 -0.09375 0.453125q0 0.265625 0.078125 0.46875q0.09375 0.1875 0.296875 0.390625q0.21875 0.203125 0.578125 0.4375q0.375 0.21875 0.921875 0.546875q0.546875 0.28125 1.140625 0.59375q0.59375 0.3125 1.09375 0.734375q0.5 0.40625 0.828125 0.9375q0.34375 0.53125 0.34375 1.25q0 0.609375 -0.234375 1.109375q-0.234375 0.5 -0.71875 0.859375q-0.46875 0.359375 -1.203125 0.5625q-0.734375 0.203125 -1.75 0.203125q-0.484375 0 -1.03125 -0.125q-0.546875 -0.125 -1.015625 -0.390625q-0.453125 -0.265625 -0.765625 -0.6875q-0.296875 -0.421875 -0.296875 -1.03125q0 -0.265625 0.078125 -0.5q0.078125 -0.234375 0.234375 -0.421875q0.15625 -0.203125 0.375 -0.3125q0.21875 -0.109375 0.515625 -0.109375q0.25 0 0.4375 0.09375q0.203125 0.078125 0.328125 0.234375q0.140625 0.140625 0.21875 0.34375q0.078125 0.1875 0.078125 0.40625q0 0.265625 -0.09375 0.46875q-0.09375 0.1875 -0.25 0.328125q-0.140625 0.125 -0.328125 0.203125q-0.1875 0.0625 -0.375 0.0625q-0.03125 0 -0.078125 0q-0.046875 0 -0.078125 -0.015625l0 0.015625q0.078125 0.1875 0.25 0.375q0.171875 0.171875 0.421875 0.3125q0.25 0.125 0.59375 0.21875q0.34375 0.09375 0.75 0.09375z" fill-rule="nonzero"></path><path fill="#000000" d="m417.27817 65.45387q0 -2.515625 1.09375 -4.96875q1.109375 -2.453125 2.765625 -4.125l0.359375 0.34375q-2.125 2.984375 -2.125 8.75q0 5.734375 2.125 8.734375l-0.359375 0.328125q-1.65625 -1.6875 -2.765625 -4.125q-1.09375 -2.421875 -1.09375 -4.9375zm5.3409424 -1.921875q0 -1.015625 0.21875 -2.015625q0.234375 -1.015625 0.71875 -1.953125q0.484375 -0.9375 1.1875 -1.640625q0.703125 -0.703125 1.734375 -1.125q1.046875 -0.4375 2.296875 -0.4375q1.4375 0 2.546875 0.796875q1.109375 0.78125 1.109375 1.875q0 0.546875 -0.359375 0.9375q-0.34375 0.390625 -0.9375 0.390625q-0.578125 0 -0.9375 -0.359375q-0.359375 -0.359375 -0.359375 -0.90625q0 -0.53125 0.328125 -0.890625q0.34375 -0.375 0.859375 -0.375q0.109375 0 0.15625 0l0 -0.03125q-0.140625 -0.265625 -0.765625 -0.578125q-0.609375 -0.328125 -1.46875 -0.328125q-1.6875 0 -2.78125 1.75q-1.078125 1.75 -1.078125 4.625q0 1.234375 0.203125 2.34375q0.21875 1.09375 0.640625 2.0q0.421875 0.890625 1.140625 1.421875q0.71875 0.53125 1.640625 0.53125q1.3125 0 2.28125 -0.78125q0.984375 -0.78125 1.53125 -2.0l0.4375 0.203125q-1.328125 3.265625 -4.46875 3.265625q-1.359375 0 -2.40625 -0.375q-1.046875 -0.390625 -1.703125 -1.015625q-0.640625 -0.625 -1.046875 -1.515625q-0.40625 -0.890625 -0.5625 -1.8125q-0.15625 -0.921875 -0.15625 -2.0zm10.820435 10.65625q2.125 -3.0 2.125 -8.734375q0 -5.765625 -2.125 -8.75l0.359375 -0.34375q1.640625 1.671875 2.75 4.125q1.109375 2.453125 1.109375 4.96875q0 2.515625 -1.109375 4.9375q-1.109375 2.4375 -2.75 4.125l-0.359375 -0.328125z" fill-rule="nonzero"></path><path fill="#f2eeea" d="m98.10761 95.95801l75.55906 0l0 41.76378l-75.55906 0z" fill-rule="nonzero"></path><path stroke="#000000" stroke-width="2.0" stroke-linejoin="round" stroke-linecap="butt" d="m98.10761 95.95801l75.55906 0l0 41.76378l-75.55906 0z" fill-rule="nonzero"></path><path fill="#000000" d="m122.87203 118.99177q0 1.28125 -0.359375 2.296875q-0.34375 1.0 -1.0 1.703125q-0.65625 0.703125 -1.59375 1.078125q-0.921875 0.375 -2.09375 0.375q-0.90625 0 -1.859375 -0.171875q-0.953125 -0.171875 -1.890625 -0.5625l0 -13.875l1.78125 0l0 3.984375l-0.078125 1.90625q0.765625 -1.03125 1.640625 -1.453125q0.875 -0.4375 1.890625 -0.4375q0.875 0 1.53125 0.375q0.671875 0.375 1.125 1.046875q0.453125 0.671875 0.671875 1.625q0.234375 0.9375 0.234375 2.109375zm-1.828125 0.078125q0 -0.8125 -0.125 -1.484375q-0.109375 -0.671875 -0.375 -1.15625q-0.25 -0.484375 -0.65625 -0.75q-0.390625 -0.28125 -0.9375 -0.28125q-0.34375 0 -0.703125 0.109375q-0.34375 0.109375 -0.71875 0.359375q-0.359375 0.25 -0.78125 0.671875q-0.421875 0.40625 -0.890625 1.03125l0 4.984375q0.53125 0.203125 1.0625 0.328125q0.546875 0.109375 1.046875 0.109375q0.609375 0 1.171875 -0.1875q0.5625 -0.203125 0.984375 -0.65625q0.421875 -0.453125 0.671875 -1.203125q0.25 -0.75 0.25 -1.875zm13.726295 0.015625q0 1.203125 -0.34375 2.203125q-0.34375 1.0 -0.984375 1.71875q-0.625 0.703125 -1.546875 1.109375q-0.90625 0.390625 -2.0624847 0.390625q-1.109375 0 -1.9843826 -0.34375q-0.875 -0.34375 -1.484375 -1.0q-0.609375 -0.671875 -0.9375 -1.65625q-0.328125 -0.984375 -0.328125 -2.28125q0 -1.1875 0.34375 -2.171875q0.34375 -1.0 0.96875 -1.703125q0.640625 -0.71875 1.546875 -1.109375q0.9218826 -0.40625 2.0781326 -0.40625q1.1093597 0 1.9843597 0.34375q0.875 0.34375 1.484375 1.015625q0.609375 0.65625 0.9375 1.640625q0.328125 0.984375 0.328125 2.25zm-1.828125 0.09375q0 -0.953125 -0.21875 -1.671875q-0.203125 -0.71875 -0.59375 -1.1875q-0.390625 -0.484375 -0.953125 -0.71875q-0.5625 -0.25 -1.2499847 -0.25q-0.796875 0 -1.375 0.3125q-0.5625076 0.3125 -0.9218826 0.84375q-0.359375 0.515625 -0.53125 1.21875q-0.171875 0.6875 -0.171875 1.453125q0 0.953125 0.203125 1.671875q0.21875 0.703125 0.609375 1.1875q0.39063263 0.46875 0.9375076 0.71875q0.5625 0.234375 1.25 0.234375q0.81248474 0 1.3749847 -0.3125q0.578125 -0.3125 0.9375 -0.828125q0.359375 -0.53125 0.53125 -1.21875q0.171875 -0.6875 0.171875 -1.453125zm13.554428 -0.09375q0 1.203125 -0.34375 2.203125q-0.34375 1.0 -0.984375 1.71875q-0.625 0.703125 -1.546875 1.109375q-0.90625 0.390625 -2.0625 0.390625q-1.109375 0 -1.984375 -0.34375q-0.875 -0.34375 -1.484375 -1.0q-0.609375 -0.671875 -0.9375 -1.65625q-0.328125 -0.984375 -0.328125 -2.28125q0 -1.1875 0.34375 -2.171875q0.34375 -1.0 0.96875 -1.703125q0.640625 -0.71875 1.546875 -1.109375q0.921875 -0.40625 2.078125 -0.40625q1.109375 0 1.984375 0.34375q0.875 0.34375 1.484375 1.015625q0.609375 0.65625 0.9375 1.640625q0.328125 0.984375 0.328125 2.25zm-1.828125 0.09375q0 -0.953125 -0.21875 -1.671875q-0.203125 -0.71875 -0.59375 -1.1875q-0.390625 -0.484375 -0.953125 -0.71875q-0.5625 -0.25 -1.25 -0.25q-0.796875 0 -1.375 0.3125q-0.5625 0.3125 -0.921875 0.84375q-0.359375 0.515625 -0.53125 1.21875q-0.171875 0.6875 -0.171875 1.453125q0 0.953125 0.203125 1.671875q0.21875 0.703125 0.609375 1.1875q0.390625 0.46875 0.9375 0.71875q0.5625 0.234375 1.25 0.234375q0.8125 0 1.375 -0.3125q0.578125 -0.3125 0.9375 -0.828125q0.359375 -0.53125 0.53125 -1.21875q0.171875 -0.6875 0.171875 -1.453125zm13.851303 5.140625l-2.453125 0l-4.796875 -5.515625l0 5.515625l-1.796875 0l0 -14.484375l1.796875 0l0 8.890625l4.625 -4.703125l2.359375 0l-4.84375 4.75l5.109375 5.546875z" fill-rule="nonzero"></path><path fill="#eefdef" d="m359.10236 92.29921l113.13385 0l0 41.76378l-113.13385 0z" fill-rule="nonzero"></path><path stroke="#000000" stroke-width="2.0" stroke-linejoin="round" stroke-linecap="butt" d="m359.10236 92.29921l113.13385 0l0 41.76378l-113.13385 0z" fill-rule="nonzero"></path><path fill="#000000" d="m378.66235 111.37985l0 5.671875q0 0.796875 0.421875 1.265625q0.421875 0.46875 1.171875 0.46875q0.765625 0 1.453125 -0.734375l0.96875 1.671875q-1.234375 1.109375 -2.734375 1.109375q-1.5 0 -2.5625 -1.03125q-1.0625 -1.046875 -1.0625 -2.8125l0 -5.609375l-1.40625 0l0 -1.890625l1.40625 0l0 -3.5l2.34375 0l0 3.5l2.9375 0l0 1.890625l-2.9375 0zm8.633942 6.328125q1.0 1.015625 2.53125 1.015625q1.53125 0 2.53125 -1.015625q1.0 -1.015625 1.0 -2.625q0 -1.625 -1.0 -2.640625q-1.0 -1.015625 -2.53125 -1.015625q-1.53125 0 -2.53125 1.015625q-1.0 1.015625 -1.0 2.640625q0 1.609375 1.0 2.625zm6.71875 1.453125q-1.671875 1.671875 -4.1875 1.671875q-2.515625 0 -4.203125 -1.671875q-1.671875 -1.671875 -1.671875 -4.078125q0 -2.421875 1.671875 -4.09375q1.6875 -1.671875 4.203125 -1.671875q2.515625 0 4.1875 1.671875q1.6875 1.671875 1.6875 4.09375q0 2.40625 -1.6875 4.078125zm16.406189 -9.84375q2.25 0 3.84375 1.5625q1.59375 1.546875 1.59375 4.140625q0 2.578125 -1.59375 4.203125q-1.578125 1.609375 -3.6875 1.609375q-2.109375 0 -3.796875 -1.859375l0 1.6875l-2.34375 0l0 -15.578125l2.34375 0l0 6.359375q1.390625 -2.125 3.640625 -2.125zm-3.671875 5.78125q0 1.59375 0.953125 2.609375q0.96875 1.015625 2.359375 1.015625q1.390625 0 2.40625 -1.0q1.03125 -1.015625 1.03125 -2.609375q0 -1.609375 -1.015625 -2.671875q-1.0 -1.0625 -2.40625 -1.0625q-1.40625 0 -2.375 1.0625q-0.953125 1.0625 -0.953125 2.65625zm14.629425 2.609375q1.0 1.015625 2.53125 1.015625q1.53125 0 2.53125 -1.015625q1.0 -1.015625 1.0 -2.625q0 -1.625 -1.0 -2.640625q-1.0 -1.015625 -2.53125 -1.015625q-1.53125 0 -2.53125 1.015625q-1.0 1.015625 -1.0 2.640625q0 1.609375 1.0 2.625zm6.71875 1.453125q-1.671875 1.671875 -4.1875 1.671875q-2.515625 0 -4.203125 -1.671875q-1.671875 -1.671875 -1.671875 -4.078125q0 -2.421875 1.671875 -4.09375q1.6875 -1.671875 4.203125 -1.671875q2.515625 0 4.1875 1.671875q1.6875 1.671875 1.6875 4.09375q0 2.40625 -1.6875 4.078125zm7.187256 -1.453125q1.0 1.015625 2.53125 1.015625q1.53125 0 2.53125 -1.015625q1.0 -1.015625 1.0 -2.625q0 -1.625 -1.0 -2.640625q-1.0 -1.015625 -2.53125 -1.015625q-1.53125 0 -2.53125 1.015625q-1.0 1.015625 -1.0 2.640625q0 1.609375 1.0 2.625zm6.71875 1.453125q-1.671875 1.671875 -4.1875 1.671875q-2.515625 0 -4.203125 -1.671875q-1.671875 -1.671875 -1.671875 -4.078125q0 -2.421875 1.671875 -4.09375q1.6875 -1.671875 4.203125 -1.671875q2.515625 0 4.1875 1.671875q1.6875 1.671875 1.6875 4.09375q0 2.40625 -1.6875 4.078125zm6.9216003 1.5l-2.34375 0l0 -15.578125l2.34375 0l0 9.15625l4.546875 -4.75l3.015625 0l-4.234375 4.4375l4.546875 6.734375l-2.84375 0l-3.328125 -4.890625l-1.703125 1.71875l0 3.171875z" fill-rule="nonzero"></path><path fill="#eefdef" d="m401.64304 138.42258l106.23624 0l0 41.76378l-106.23624 0z" fill-rule="nonzero"></path><path stroke="#000000" stroke-width="2.0" stroke-linejoin="round" stroke-linecap="butt" d="m401.64304 138.42258l106.23624 0l0 41.76378l-106.23624 0z" fill-rule="nonzero"></path><path fill="#000000" d="m429.06125 166.78445l-2.140625 0l0 -1.484375q-1.390625 1.65625 -3.71875 1.65625q-1.734375 0 -2.890625 -0.984375q-1.140625 -1.0 -1.140625 -2.640625q0 -1.65625 1.21875 -2.46875q1.21875 -0.8125 3.296875 -0.8125l3.046875 0l0 -0.421875q0 -2.234375 -2.484375 -2.234375q-1.546875 0 -3.234375 1.140625l-1.046875 -1.46875q2.046875 -1.625 4.625 -1.625q1.96875 0 3.21875 1.0q1.25 1.0 1.25 3.140625l0 7.203125zm-2.34375 -4.15625l0 -0.953125l-2.65625 0q-2.53125 0 -2.53125 1.609375q0 0.8125 0.625 1.25q0.625 0.421875 1.75 0.421875q1.125 0 1.96875 -0.625q0.84375 -0.640625 0.84375 -1.703125zm17.644836 -7.1875q2.25 0 3.84375 1.5625q1.59375 1.546875 1.59375 4.140625q0 2.578125 -1.59375 4.203125q-1.578125 1.609375 -3.6875 1.609375q-2.109375 0 -3.796875 -1.859375l0 1.6875l-2.34375 0l0 -15.578125l2.34375 0l0 6.359375q1.390625 -2.125 3.640625 -2.125zm-3.671875 5.78125q0 1.59375 0.953125 2.609375q0.96875 1.015625 2.359375 1.015625q1.390625 0 2.40625 -1.0q1.03125 -1.015625 1.03125 -2.609375q0 -1.609375 -1.015625 -2.671875q-1.0 -1.0625 -2.40625 -1.0625q-1.40625 0 -2.375 1.0625q-0.953125 1.0625 -0.953125 2.65625zm14.629425 2.609375q1.0 1.015625 2.53125 1.015625q1.53125 0 2.53125 -1.015625q1.0 -1.015625 1.0 -2.625q0 -1.625 -1.0 -2.640625q-1.0 -1.015625 -2.53125 -1.015625q-1.53125 0 -2.53125 1.015625q-1.0 1.015625 -1.0 2.640625q0 1.609375 1.0 2.625zm6.71875 1.453125q-1.671875 1.671875 -4.1875 1.671875q-2.515625 0 -4.203125 -1.671875q-1.671875 -1.671875 -1.671875 -4.078125q0 -2.421875 1.671875 -4.09375q1.6875 -1.671875 4.203125 -1.671875q2.515625 0 4.1875 1.671875q1.6875 1.671875 1.6875 4.09375q0 2.40625 -1.6875 4.078125zm7.187256 -1.453125q1.0 1.015625 2.53125 1.015625q1.53125 0 2.53125 -1.015625q1.0 -1.015625 1.0 -2.625q0 -1.625 -1.0 -2.640625q-1.0 -1.015625 -2.53125 -1.015625q-1.53125 0 -2.53125 1.015625q-1.0 1.015625 -1.0 2.640625q0 1.609375 1.0 2.625zm6.71875 1.453125q-1.671875 1.671875 -4.1875 1.671875q-2.515625 0 -4.203125 -1.671875q-1.671875 -1.671875 -1.671875 -4.078125q0 -2.421875 1.671875 -4.09375q1.6875 -1.671875 4.203125 -1.671875q2.515625 0 4.1875 1.671875q1.6875 1.671875 1.6875 4.09375q0 2.40625 -1.6875 4.078125zm6.9216003 1.5l-2.34375 0l0 -15.578125l2.34375 0l0 9.15625l4.546875 -4.75l3.015625 0l-4.234375 4.4375l4.546875 6.734375l-2.84375 0l-3.328125 -4.890625l-1.703125 1.71875l0 3.171875z" fill-rule="nonzero"></path><path fill="#000000" fill-opacity="0.0" d="m173.66667 116.8399l185.4488 -3.6535492" fill-rule="nonzero"></path><path stroke="#e87162" stroke-width="3.0" stroke-linejoin="round" stroke-linecap="butt" d="m173.66667 116.8399l175.16954 -3.4510345" fill-rule="evenodd"></path><path fill="#e87162" stroke="#e87162" stroke-width="3.0" stroke-linecap="butt" d="m348.8362 113.38886l-3.3066406 3.4395523l9.20105 -3.5556793l-9.333954 -3.1905136z" fill-rule="evenodd"></path><path fill="#000000" fill-opacity="0.0" d="m173.66667 116.8399l227.96849 42.456688" fill-rule="nonzero"></path><path stroke="#e87162" stroke-width="3.0" stroke-linejoin="round" stroke-linecap="butt" d="m173.66667 116.8399l217.86104 40.574287" fill-rule="evenodd"></path><path fill="#e87162" stroke="#e87162" stroke-width="3.0" stroke-linecap="butt" d="m391.5277 157.41418l-3.9344177 2.6990204l9.730316 -1.6195984l-8.494934 -5.013855z" fill-rule="evenodd"></path><path fill="#f2eeea" d="m88.89501 245.56693l113.13386 0l0 41.763794l-113.13386 0z" fill-rule="nonzero"></path><path stroke="#000000" stroke-width="2.0" stroke-linejoin="round" stroke-linecap="butt" d="m88.89501 245.56693l113.13386 0l0 41.763794l-113.13386 0z" fill-rule="nonzero"></path><path fill="#000000" d="m111.92366 263.63196l1.59375 0l0.0625 1.65625q0.453125 -0.53125 0.875 -0.875q0.421875 -0.359375 0.828125 -0.578125q0.40625 -0.21875 0.828125 -0.296875q0.421875 -0.09375 0.875 -0.09375q1.578125 0 2.390625 0.9375q0.828125 0.9375 0.828125 2.828125l0 6.71875l-1.796875 0l0 -6.578125q0 -1.203125 -0.453125 -1.78125q-0.4375 -0.578125 -1.328125 -0.578125q-0.328125 0 -0.640625 0.09375q-0.3125 0.09375 -0.65625 0.34375q-0.34375 0.234375 -0.734375 0.65625q-0.390625 0.40625 -0.890625 1.015625l0 6.828125l-1.78125 0l0 -10.296875zm20.007553 10.296875l-1.609375 0l-0.0625 -1.65625q-0.453125 0.53125 -0.875 0.890625q-0.40625 0.34375 -0.828125 0.5625q-0.40625 0.21875 -0.828125 0.296875q-0.40625 0.09375 -0.875 0.09375q-1.578125 0 -2.390625 -0.9375q-0.8125 -0.9375 -0.8125 -2.8125l0 -6.734375l1.78125 0l0 6.578125q0 2.375 1.78125 2.375q0.328125 0 0.640625 -0.09375q0.3125 -0.09375 0.65625 -0.328125q0.34375 -0.25 0.734375 -0.65625q0.40625 -0.421875 0.890625 -1.046875l0 -6.828125l1.796875 0l0 10.296875zm10.788803 0l0 -7.390625q0 -0.484375 -0.046875 -0.78125q-0.03125 -0.3125 -0.109375 -0.484375q-0.078125 -0.1875 -0.203125 -0.265625q-0.109375 -0.078125 -0.28125 -0.078125q-0.203125 0 -0.375 0.125q-0.171875 0.125 -0.375 0.40625q-0.203125 0.28125 -0.453125 0.734375q-0.234375 0.453125 -0.5625 1.125l0 6.609375l-1.625 0l0 -7.203125q0 -0.5625 -0.046875 -0.90625q-0.03125 -0.34375 -0.109375 -0.53125q-0.0625 -0.203125 -0.1875 -0.28125q-0.125 -0.078125 -0.296875 -0.078125q-0.1875 0 -0.359375 0.109375q-0.15625 0.109375 -0.359375 0.375q-0.203125 0.265625 -0.453125 0.734375q-0.234375 0.453125 -0.578125 1.171875l0 6.609375l-1.640625 0l0 -10.296875l1.359375 0l0.09375 1.953125q0.265625 -0.578125 0.515625 -0.984375q0.25 -0.40625 0.515625 -0.65625q0.265625 -0.265625 0.5625 -0.375q0.3125 -0.125 0.671875 -0.125q0.828125 0 1.265625 0.546875q0.4375 0.546875 0.4375 1.6875q0.234375 -0.53125 0.46875 -0.953125q0.25 -0.421875 0.515625 -0.703125q0.265625 -0.28125 0.59375 -0.421875q0.328125 -0.15625 0.765625 -0.15625q1.9375 0 1.9375 2.984375l0 7.5l-1.640625 0zm13.179428 -5.328125q0 1.28125 -0.359375 2.296875q-0.34375 1.0 -1.0 1.703125q-0.65625 0.703125 -1.59375 1.078125q-0.921875 0.375 -2.09375 0.375q-0.90625 0 -1.859375 -0.171875q-0.953125 -0.171875 -1.890625 -0.5625l0 -13.875l1.78125 0l0 3.984375l-0.078125 1.90625q0.765625 -1.03125 1.640625 -1.453125q0.875 -0.4375 1.890625 -0.4375q0.875 0 1.53125 0.375q0.671875 0.375 1.125 1.046875q0.453125 0.671875 0.671875 1.625q0.234375 0.9375 0.234375 2.109375zm-1.828125 0.078125q0 -0.8125 -0.125 -1.484375q-0.109375 -0.671875 -0.375 -1.15625q-0.25 -0.484375 -0.65625 -0.75q-0.390625 -0.28125 -0.9375 -0.28125q-0.34375 0 -0.703125 0.109375q-0.34375 0.109375 -0.71875 0.359375q-0.359375 0.25 -0.78125 0.671875q-0.421875 0.40625 -0.890625 1.03125l0 4.984375q0.53125 0.203125 1.0625 0.328125q0.546875 0.109375 1.046875 0.109375q0.609375 0 1.171875 -0.1875q0.5625 -0.203125 0.984375 -0.65625q0.421875 -0.453125 0.671875 -1.203125q0.25 -0.75 0.25 -1.875zm13.460678 -0.4375q0 0.375 -0.015625 0.640625q-0.015625 0.25 -0.03125 0.46875l-7.234375 0q0 1.578125 0.875 2.4375q0.890625 0.84375 2.546875 0.84375q0.453125 0 0.90625 -0.03125q0.453125 -0.046875 0.875 -0.109375q0.421875 -0.0625 0.796875 -0.140625q0.390625 -0.078125 0.71875 -0.171875l0 1.46875q-0.734375 0.203125 -1.65625 0.328125q-0.90625 0.140625 -1.890625 0.140625q-1.328125 0 -2.28125 -0.359375q-0.953125 -0.359375 -1.5625 -1.03125q-0.609375 -0.6875 -0.90625 -1.671875q-0.28125 -1.0 -0.28125 -2.25q0 -1.09375 0.3125 -2.0625q0.3125 -0.96875 0.90625 -1.703125q0.609375 -0.734375 1.46875 -1.15625q0.875 -0.4375 1.984375 -0.4375q1.078125 0 1.90625 0.34375q0.828125 0.34375 1.390625 0.96875q0.578125 0.609375 0.875 1.5q0.296875 0.890625 0.296875 1.984375zm-1.859375 -0.265625q0.03125 -0.6875 -0.140625 -1.25q-0.15625 -0.5625 -0.5 -0.96875q-0.34375 -0.421875 -0.859375 -0.640625q-0.515625 -0.234375 -1.1875 -0.234375q-0.59375 0 -1.078125 0.21875q-0.46875 0.21875 -0.828125 0.640625q-0.34375 0.40625 -0.5625 0.984375q-0.203125 0.5625 -0.265625 1.25l5.421875 0zm5.304428 -4.34375l1.625 0l0.0625 1.90625q0.90625 -1.109375 1.78125 -1.59375q0.890625 -0.5 1.796875 -0.5q1.609375 0 2.421875 1.046875q0.828125 1.03125 0.765625 3.0625l-1.796875 0q0.03125 -1.34375 -0.40625 -1.953125q-0.421875 -0.609375 -1.234375 -0.609375q-0.359375 0 -0.734375 0.125q-0.359375 0.125 -0.75 0.40625q-0.375 0.28125 -0.8125 0.734375q-0.421875 0.4375 -0.921875 1.0625l0 6.609375l-1.796875 0l0 -10.296875z" fill-rule="nonzero"></path><path fill="#f2eeea" d="m60.637794 148.66798l181.85828 0l0 41.76378l-181.85828 0z" fill-rule="nonzero"></path><path stroke="#000000" stroke-width="2.0" stroke-linejoin="round" stroke-linecap="butt" d="m60.637794 148.66798l181.85828 0l0 41.76378l-181.85828 0z" fill-rule="nonzero"></path><path fill="#000000" d="m83.595955 177.02986l-0.03125 -1.390625q-0.84375 0.84375 -1.71875 1.21875q-0.859375 0.359375 -1.8125 0.359375q-0.890625 0 -1.515625 -0.21875q-0.625 -0.234375 -1.03125 -0.625q-0.390625 -0.40625 -0.59375 -0.9375q-0.1875 -0.53125 -0.1875 -1.15625q0 -1.546875 1.15625 -2.421875q1.15625 -0.875 3.40625 -0.875l2.140625 0l0 -0.90625q0 -0.90625 -0.59375 -1.453125q-0.578125 -0.5625 -1.78125 -0.5625q-0.875 0 -1.71875 0.203125q-0.84375 0.1875 -1.75 0.546875l0 -1.609375q0.34375 -0.125 0.75 -0.234375q0.421875 -0.125 0.875 -0.203125q0.46875 -0.09375 0.96875 -0.15625q0.515625 -0.0625 1.015625 -0.0625q0.9375 0 1.6875 0.21875q0.75 0.203125 1.265625 0.625q0.515625 0.40625 0.796875 1.046875q0.28125 0.640625 0.28125 1.5l0 7.09375l-1.609375 0zm-0.1875 -4.6875l-2.265625 0q-0.671875 0 -1.15625 0.140625q-0.484375 0.125 -0.796875 0.375q-0.296875 0.25 -0.453125 0.59375q-0.140625 0.34375 -0.140625 0.765625q0 0.296875 0.09375 0.578125q0.09375 0.265625 0.296875 0.484375q0.203125 0.203125 0.53125 0.328125q0.328125 0.125 0.796875 0.125q0.625 0 1.40625 -0.375q0.796875 -0.375 1.6875 -1.1875l0 -1.828125zm13.304428 4.3125q-0.703125 0.265625 -1.4375 0.390625q-0.734375 0.125 -1.5 0.125q-2.453125 0 -3.765625 -1.3125q-1.3125 -1.328125 -1.3125 -3.875q0 -1.21875 0.375 -2.203125q0.375 -1.0 1.0625 -1.703125q0.6875 -0.71875 1.640625 -1.09375q0.953125 -0.390625 2.109375 -0.390625q0.796875 0 1.484375 0.109375q0.703125 0.109375 1.34375 0.375l0 1.703125q-0.671875 -0.359375 -1.359375 -0.515625q-0.6875 -0.15625 -1.4375 -0.15625q-0.6875 0 -1.296875 0.265625q-0.609375 0.265625 -1.078125 0.765625q-0.453125 0.484375 -0.71875 1.1875q-0.265625 0.703125 -0.265625 1.59375q0 1.875 0.90625 2.796875q0.90625 0.921875 2.515625 0.921875q0.734375 0 1.40625 -0.15625q0.6875 -0.171875 1.328125 -0.5l0 1.671875zm11.726303 0q-0.703125 0.265625 -1.4375 0.390625q-0.734375 0.125 -1.5 0.125q-2.453125 0 -3.765625 -1.3125q-1.3125 -1.328125 -1.3125 -3.875q0 -1.21875 0.375 -2.203125q0.375 -1.0 1.0625 -1.703125q0.6875 -0.71875 1.640625 -1.09375q0.953125 -0.390625 2.109375 -0.390625q0.796875 0 1.484375 0.109375q0.703125 0.109375 1.34375 0.375l0 1.703125q-0.671875 -0.359375 -1.359375 -0.515625q-0.6875 -0.15625 -1.4375 -0.15625q-0.6875 0 -1.296875 0.265625q-0.609375 0.265625 -1.078125 0.765625q-0.453125 0.484375 -0.71875 1.1875q-0.265625 0.703125 -0.265625 1.59375q0 1.875 0.90625 2.796875q0.90625 0.921875 2.515625 0.921875q0.734375 0 1.40625 -0.15625q0.6875 -0.171875 1.328125 -0.5l0 1.671875zm12.695053 -4.859375q0 1.203125 -0.34375 2.203125q-0.34375 1.0 -0.984375 1.71875q-0.625 0.703125 -1.546875 1.109375q-0.90625 0.390625 -2.0625 0.390625q-1.109375 0 -1.984375 -0.34375q-0.875 -0.34375 -1.484375 -1.0q-0.609375 -0.671875 -0.9375 -1.65625q-0.328125 -0.984375 -0.328125 -2.28125q0 -1.1875 0.34375 -2.171875q0.34375 -1.0 0.96875 -1.703125q0.640625 -0.71875 1.546875 -1.109375q0.921875 -0.40625 2.078125 -0.40625q1.109375 0 1.984375 0.34375q0.875 0.34375 1.484375 1.015625q0.609375 0.65625 0.9375 1.640625q0.328125 0.984375 0.328125 2.25zm-1.828125 0.09375q0 -0.953125 -0.21875 -1.671875q-0.203125 -0.71875 -0.59375 -1.1875q-0.390625 -0.484375 -0.953125 -0.71875q-0.5625 -0.25 -1.25 -0.25q-0.796875 0 -1.375 0.3125q-0.5625 0.3125 -0.921875 0.84375q-0.359375 0.515625 -0.53125 1.21875q-0.171875 0.6875 -0.171875 1.453125q0 0.953125 0.203125 1.671875q0.21875 0.703125 0.609375 1.1875q0.390625 0.46875 0.9375 0.71875q0.5625 0.234375 1.25 0.234375q0.8125 0 1.375 -0.3125q0.578125 -0.3125 0.9375 -0.828125q0.359375 -0.53125 0.53125 -1.21875q0.171875 -0.6875 0.171875 -1.453125zm12.866936 5.140625l-1.609375 0l-0.0625 -1.65625q-0.453125 0.53125 -0.875 0.890625q-0.40625 0.34375 -0.828125 0.5625q-0.40625 0.21875 -0.8281326 0.296875q-0.40625 0.09375 -0.875 0.09375q-1.578125 0 -2.390625 -0.9375q-0.8125 -0.9375 -0.8125 -2.8125l0 -6.734375l1.78125 0l0 6.578125q0 2.375 1.78125 2.375q0.328125 0 0.6406326 -0.09375q0.3125 -0.09375 0.65625 -0.328125q0.34375 -0.25 0.734375 -0.65625q0.40625 -0.421875 0.890625 -1.046875l0 -6.828125l1.796875 0l0 10.296875zm3.445053 -10.296875l1.59375 0l0.0625 1.65625q0.453125 -0.53125 0.875 -0.875q0.421875 -0.359375 0.828125 -0.578125q0.40625 -0.21875 0.828125 -0.296875q0.421875 -0.09375 0.875 -0.09375q1.578125 0 2.390625 0.9375q0.828125 0.9375 0.828125 2.828125l0 6.71875l-1.796875 0l0 -6.578125q0 -1.203125 -0.453125 -1.78125q-0.4375 -0.578125 -1.328125 -0.578125q-0.328125 0 -0.640625 0.09375q-0.3125 0.09375 -0.65625 0.34375q-0.34375 0.234375 -0.734375 0.65625q-0.390625 0.40625 -0.890625 1.015625l0 6.828125l-1.78125 0l0 -10.296875zm20.023178 10.15625q-0.609375 0.15625 -1.25 0.21875q-0.640625 0.0625 -1.3125 0.0625q-1.9375 0 -2.890625 -0.875q-0.953125 -0.875 -0.953125 -2.6875l0 -5.375l-2.890625 0l0 -1.5l2.890625 0l0 -2.828125l1.78125 -0.46875l0 3.296875l4.625 0l0 1.5l-4.625 0l0 5.234375q0 1.09375 0.578125 1.65625q0.59375 0.546875 1.75 0.546875q0.484375 0 1.0625 -0.078125q0.59375 -0.078125 1.234375 -0.25l0 1.546875zm12.132553 0.140625l-2.390625 0l-3.90625 -8.359375l-1.125 -2.6875l0 6.765625l0 4.28125l-1.703125 0l0 -13.40625l2.34375 0l3.734375 7.921875l1.34375 3.0625l0 -7.171875l0 -3.8125l1.703125 0l0 13.40625zm11.304428 0l-1.609375 0l-0.0625 -1.65625q-0.453125 0.53125 -0.875 0.890625q-0.40625 0.34375 -0.828125 0.5625q-0.40625 0.21875 -0.828125 0.296875q-0.40625 0.09375 -0.875 0.09375q-1.578125 0 -2.390625 -0.9375q-0.8125 -0.9375 -0.8125 -2.8125l0 -6.734375l1.78125 0l0 6.578125q0 2.375 1.78125 2.375q0.328125 0 0.640625 -0.09375q0.3125 -0.09375 0.65625 -0.328125q0.34375 -0.25 0.734375 -0.65625q0.40625 -0.421875 0.890625 -1.046875l0 -6.828125l1.796875 0l0 10.296875zm10.788803 0l0 -7.390625q0 -0.484375 -0.046875 -0.78125q-0.03125 -0.3125 -0.109375 -0.484375q-0.078125 -0.1875 -0.203125 -0.265625q-0.109375 -0.078125 -0.28125 -0.078125q-0.203125 0 -0.375 0.125q-0.171875 0.125 -0.375 0.40625q-0.203125 0.28125 -0.453125 0.734375q-0.234375 0.453125 -0.5625 1.125l0 6.609375l-1.625 0l0 -7.203125q0 -0.5625 -0.046875 -0.90625q-0.03125 -0.34375 -0.109375 -0.53125q-0.0625 -0.203125 -0.1875 -0.28125q-0.125 -0.078125 -0.296875 -0.078125q-0.1875 0 -0.359375 0.109375q-0.15625 0.109375 -0.359375 0.375q-0.203125 0.265625 -0.453125 0.734375q-0.234375 0.453125 -0.578125 1.171875l0 6.609375l-1.640625 0l0 -10.296875l1.359375 0l0.09375 1.953125q0.265625 -0.578125 0.515625 -0.984375q0.25 -0.40625 0.515625 -0.65625q0.265625 -0.265625 0.5625 -0.375q0.3125 -0.125 0.671875 -0.125q0.828125 0 1.265625 0.546875q0.4375 0.546875 0.4375 1.6875q0.234375 -0.53125 0.46875 -0.953125q0.25 -0.421875 0.515625 -0.703125q0.265625 -0.28125 0.59375 -0.421875q0.328125 -0.15625 0.765625 -0.15625q1.9375 0 1.9375 2.984375l0 7.5l-1.640625 0zm13.179428 -5.328125q0 1.28125 -0.359375 2.296875q-0.34375 1.0 -1.0 1.703125q-0.65625 0.703125 -1.59375 1.078125q-0.921875 0.375 -2.09375 0.375q-0.90625 0 -1.859375 -0.171875q-0.953125 -0.171875 -1.890625 -0.5625l0 -13.875l1.78125 0l0 3.984375l-0.078125 1.90625q0.765625 -1.03125 1.640625 -1.453125q0.875 -0.4375 1.890625 -0.4375q0.875 0 1.53125 0.375q0.671875 0.375 1.125 1.046875q0.453125 0.671875 0.671875 1.625q0.234375 0.9375 0.234375 2.109375zm-1.828125 0.078125q0 -0.8125 -0.125 -1.484375q-0.109375 -0.671875 -0.375 -1.15625q-0.25 -0.484375 -0.65625 -0.75q-0.390625 -0.28125 -0.9375 -0.28125q-0.34375 0 -0.703125 0.109375q-0.34375 0.109375 -0.71875 0.359375q-0.359375 0.25 -0.78125 0.671875q-0.421875 0.40625 -0.890625 1.03125l0 4.984375q0.53125 0.203125 1.0625 0.328125q0.546875 0.109375 1.046875 0.109375q0.609375 0 1.171875 -0.1875q0.5625 -0.203125 0.984375 -0.65625q0.421875 -0.453125 0.671875 -1.203125q0.25 -0.75 0.25 -1.875zm13.460678 -0.4375q0 0.375 -0.015625 0.640625q-0.015625 0.25 -0.03125 0.46875l-7.234375 0q0 1.578125 0.875 2.4375q0.890625 0.84375 2.546875 0.84375q0.453125 0 0.90625 -0.03125q0.453125 -0.046875 0.875 -0.109375q0.421875 -0.0625 0.796875 -0.140625q0.390625 -0.078125 0.71875 -0.171875l0 1.46875q-0.734375 0.203125 -1.65625 0.328125q-0.90625 0.140625 -1.890625 0.140625q-1.328125 0 -2.28125 -0.359375q-0.953125 -0.359375 -1.5625 -1.03125q-0.609375 -0.6875 -0.90625 -1.671875q-0.28125 -1.0 -0.28125 -2.25q0 -1.09375 0.3125 -2.0625q0.3125 -0.96875 0.90625 -1.703125q0.609375 -0.734375 1.46875 -1.15625q0.875 -0.4375 1.984375 -0.4375q1.078125 0 1.90625 0.34375q0.828125 0.34375 1.390625 0.96875q0.578125 0.609375 0.875 1.5q0.296875 0.890625 0.296875 1.984375zm-1.859375 -0.265625q0.03125 -0.6875 -0.140625 -1.25q-0.15625 -0.5625 -0.5 -0.96875q-0.34375 -0.421875 -0.859375 -0.640625q-0.515625 -0.234375 -1.1875 -0.234375q-0.59375 0 -1.078125 0.21875q-0.46875 0.21875 -0.828125 0.640625q-0.34375 0.40625 -0.5625 0.984375q-0.203125 0.5625 -0.265625 1.25l5.421875 0zm5.304428 -4.34375l1.625 0l0.0625 1.90625q0.90625 -1.109375 1.78125 -1.59375q0.890625 -0.5 1.796875 -0.5q1.609375 0 2.421875 1.046875q0.828125 1.03125 0.765625 3.0625l-1.796875 0q0.03125 -1.34375 -0.40625 -1.953125q-0.421875 -0.609375 -1.234375 -0.609375q-0.359375 0 -0.734375 0.125q-0.359375 0.125 -0.75 0.40625q-0.375 0.28125 -0.8125 0.734375q-0.421875 0.4375 -0.921875 1.0625l0 6.609375l-1.796875 0l0 -10.296875z" fill-rule="nonzero"></path><path fill="#eefdef" d="m335.27036 194.0328l148.78738 0l0 56.44095l-148.78738 0z" fill-rule="nonzero"></path><path stroke="#000000" stroke-width="2.0" stroke-linejoin="round" stroke-linecap="butt" d="m335.27036 194.0328l148.78738 0l0 56.44095l-148.78738 0z" fill-rule="nonzero"></path><path fill="#000000" d="m360.60974 216.73328l-2.140625 0l0 -1.484375q-1.390625 1.65625 -3.71875 1.65625q-1.734375 0 -2.890625 -0.984375q-1.140625 -1.0 -1.140625 -2.640625q0 -1.65625 1.21875 -2.46875q1.21875 -0.8125 3.296875 -0.8125l3.046875 0l0 -0.421875q0 -2.234375 -2.484375 -2.234375q-1.546875 0 -3.234375 1.140625l-1.046875 -1.46875q2.046875 -1.625 4.625 -1.625q1.96875 0 3.21875 1.0q1.25 1.0 1.25 3.140625l0 7.203125zm-2.34375 -4.15625l0 -0.953125l-2.65625 0q-2.53125 0 -2.53125 1.609375q0 0.8125 0.625 1.25q0.625 0.421875 1.75 0.421875q1.125 0 1.96875 -0.625q0.84375 -0.640625 0.84375 -1.703125zm8.160278 -1.890625l0 6.046875l-2.34375 0l0 -11.171875l2.34375 0l0 2.03125q0.578125 -1.015625 1.5625 -1.609375q1.0 -0.59375 2.15625 -0.59375q1.890625 0 3.046875 1.15625q1.171875 1.15625 1.171875 3.34375l0 6.84375l-2.34375 0l0 -6.125q0 -3.09375 -2.5625 -3.09375q-1.21875 0 -2.125 0.8125q-0.90625 0.796875 -0.90625 2.359375zm26.325073 6.046875l-2.140625 0l0 -1.484375q-1.390625 1.65625 -3.71875 1.65625q-1.734375 0 -2.890625 -0.984375q-1.140625 -1.0 -1.140625 -2.640625q0 -1.65625 1.21875 -2.46875q1.21875 -0.8125 3.296875 -0.8125l3.046875 0l0 -0.421875q0 -2.234375 -2.484375 -2.234375q-1.546875 0 -3.234375 1.140625l-1.046875 -1.46875q2.046875 -1.625 4.625 -1.625q1.96875 0 3.21875 1.0q1.25 1.0 1.25 3.140625l0 7.203125zm-2.34375 -4.15625l0 -0.953125l-2.65625 0q-2.53125 0 -2.53125 1.609375q0 0.8125 0.625 1.25q0.625 0.421875 1.75 0.421875q1.125 0 1.96875 -0.625q0.84375 -0.640625 0.84375 -1.703125zm10.769653 4.328125q-2.328125 0 -4.015625 -1.578125q-1.671875 -1.59375 -1.671875 -4.15625q0 -2.5625 1.75 -4.171875q1.75 -1.609375 4.265625 -1.609375q2.53125 0 4.265625 1.75l-1.375 1.703125q-1.453125 -1.265625 -2.921875 -1.265625q-1.46875 0 -2.5625 0.984375q-1.078125 0.96875 -1.078125 2.515625q0 1.546875 1.0625 2.625q1.078125 1.0625 2.640625 1.0625q1.578125 0 2.953125 -1.4375l1.390625 1.515625q-2.03125 2.0625 -4.703125 2.0625zm12.285065 0q-2.328125 0 -4.015625 -1.578125q-1.671875 -1.59375 -1.671875 -4.15625q0 -2.5625 1.75 -4.171875q1.75 -1.609375 4.265625 -1.609375q2.53125 0 4.265625 1.75l-1.375 1.703125q-1.453125 -1.265625 -2.921875 -1.265625q-1.46875 0 -2.5625 0.984375q-1.078125 0.96875 -1.078125 2.515625q0 1.546875 1.0625 2.625q1.078125 1.0625 2.640625 1.0625q1.578125 0 2.953125 -1.4375l1.390625 1.515625q-2.03125 2.0625 -4.703125 2.0625zm9.941284 -3.125q1.0 1.015625 2.53125 1.015625q1.53125 0 2.53125 -1.015625q1.0 -1.015625 1.0 -2.625q0 -1.625 -1.0 -2.640625q-1.0 -1.015625 -2.53125 -1.015625q-1.53125 0 -2.53125 1.015625q-1.0 1.015625 -1.0 2.640625q0 1.609375 1.0 2.625zm6.71875 1.453125q-1.671875 1.671875 -4.1875 1.671875q-2.515625 0 -4.203125 -1.671875q-1.671875 -1.671875 -1.671875 -4.078125q0 -2.421875 1.671875 -4.09375q1.6875 -1.671875 4.203125 -1.671875q2.515625 0 4.1875 1.671875q1.6875 1.671875 1.6875 4.09375q0 2.40625 -1.6875 4.078125zm12.390381 -3.625l0 -6.046875l2.34375 0l0 11.171875l-2.34375 0l0 -2.03125q-0.5625 1.015625 -1.5625 1.609375q-1.0 0.59375 -2.15625 0.59375q-1.890625 0 -3.0625 -1.15625q-1.15625 -1.15625 -1.15625 -3.34375l0 -6.84375l2.34375 0l0 6.125q0 3.09375 2.5625 3.09375q1.21875 0 2.125 -0.796875q0.90625 -0.8125 0.90625 -2.375zm8.309265 -0.921875l0 6.046875l-2.34375 0l0 -11.171875l2.34375 0l0 2.03125q0.578125 -1.015625 1.5625 -1.609375q1.0 -0.59375 2.15625 -0.59375q1.890625 0 3.046875 1.15625q1.171875 1.15625 1.171875 3.34375l0 6.84375l-2.34375 0l0 -6.125q0 -3.09375 -2.5625 -3.09375q-1.21875 0 -2.125 0.8125q-0.90625 0.796875 -0.90625 2.359375zm14.324921 -3.234375l0 5.671875q0 0.796875 0.421875 1.265625q0.421875 0.46875 1.171875 0.46875q0.765625 0 1.453125 -0.734375l0.96875 1.671875q-1.234375 1.109375 -2.734375 1.109375q-1.5 0 -2.5625 -1.03125q-1.0625 -1.046875 -1.0625 -2.8125l0 -5.609375l-1.40625 0l0 -1.890625l1.40625 0l0 -3.5l2.34375 0l0 3.5l2.9375 0l0 1.890625l-2.9375 0z" fill-rule="nonzero"></path><path fill="#000000" d="m371.12915 236.6864l0 6.046875l-2.34375 0l0 -11.171875l2.34375 0l0 2.03125q0.578125 -1.015625 1.5625 -1.609375q1.0 -0.59375 2.15625 -0.59375q1.890625 0 3.046875 1.15625q1.171875 1.15625 1.171875 3.34375l0 6.84375l-2.34375 0l0 -6.125q0 -3.09375 -2.5625 -3.09375q-1.21875 0 -2.125 0.8125q-0.90625 0.796875 -0.90625 2.359375zm19.246765 0.921875l0 -6.046875l2.34375 0l0 11.171875l-2.34375 0l0 -2.03125q-0.5625 1.015625 -1.5625 1.609375q-1.0 0.59375 -2.15625 0.59375q-1.890625 0 -3.0625 -1.15625q-1.15625 -1.15625 -1.15625 -3.34375l0 -6.84375l2.34375 0l0 6.125q0 3.09375 2.5625 3.09375q1.21875 0 2.125 -0.796875q0.90625 -0.8125 0.90625 -2.375zm8.309296 -0.921875l0 6.046875l-2.34375 0l0 -11.171875l2.34375 0l0 2.03125q0.515625 -1.015625 1.53125 -1.609375q1.015625 -0.59375 2.1875 -0.59375q2.65625 0 3.59375 2.1875q1.65625 -2.1875 4.140625 -2.1875q1.890625 0 3.046875 1.15625q1.171875 1.15625 1.171875 3.34375l0 6.84375l-2.359375 0l0 -6.125q0 -3.09375 -2.546875 -3.09375q-1.203125 0 -2.09375 0.765625q-0.890625 0.765625 -0.9375 2.234375l0 6.21875l-2.359375 0l0 -6.125q0 -1.609375 -0.5625 -2.34375q-0.5625 -0.75 -1.78125 -0.75q-1.21875 0 -2.125 0.8125q-0.90625 0.796875 -0.90625 2.359375zm25.267426 -5.296875q2.25 0 3.84375 1.5625q1.59375 1.546875 1.59375 4.140625q0 2.578125 -1.59375 4.203125q-1.578125 1.609375 -3.6875 1.609375q-2.109375 0 -3.796875 -1.859375l0 1.6875l-2.34375 0l0 -15.578125l2.34375 0l0 6.359375q1.390625 -2.125 3.640625 -2.125zm-3.671875 5.78125q0 1.59375 0.953125 2.609375q0.96875 1.015625 2.359375 1.015625q1.390625 0 2.40625 -1.0q1.03125 -1.015625 1.03125 -2.609375q0 -1.609375 -1.015625 -2.671875q-1.0 -1.0625 -2.40625 -1.0625q-1.40625 0 -2.375 1.0625q-0.953125 1.0625 -0.953125 2.65625zm22.410675 1.0l-8.75 0q0.078125 1.21875 1.109375 1.96875q1.03125 0.75 2.34375 0.75q2.109375 0 3.203125 -1.328125l1.34375 1.46875q-1.8125 1.875 -4.703125 1.875q-2.359375 0 -4.015625 -1.5625q-1.640625 -1.578125 -1.640625 -4.203125q0 -2.640625 1.671875 -4.1875q1.6875 -1.5625 3.96875 -1.5625q2.28125 0 3.875 1.375q1.59375 1.375 1.59375 3.796875l0 1.609375zm-8.75 -1.84375l6.40625 0q0 -1.40625 -0.890625 -2.15625q-0.875 -0.765625 -2.171875 -0.765625q-1.296875 0 -2.328125 0.796875q-1.015625 0.78125 -1.015625 2.125zm17.399597 -2.5625q-1.75 0 -2.640625 1.140625q-0.875 1.125 -0.875 3.046875l0 4.78125l-2.34375 0l0 -11.171875l2.34375 0l0 2.25q0.578125 -1.046875 1.546875 -1.71875q0.984375 -0.671875 2.078125 -0.703125l0.015625 2.375q-0.0625 0 -0.125 0z" fill-rule="nonzero"></path><path fill="#eefdef" d="m368.00262 264.32022l118.834656 0l0 56.44095l-118.834656 0z" fill-rule="nonzero"></path><path stroke="#000000" stroke-width="2.0" stroke-linejoin="round" stroke-linecap="butt" d="m368.00262 264.32022l118.834656 0l0 56.44095l-118.834656 0z" fill-rule="nonzero"></path><path fill="#000000" d="m394.50043 287.0207l-2.140625 0l0 -1.484375q-1.390625 1.65625 -3.71875 1.65625q-1.734375 0 -2.890625 -0.984375q-1.140625 -1.0 -1.140625 -2.640625q0 -1.65625 1.21875 -2.46875q1.21875 -0.8125 3.296875 -0.8125l3.046875 0l0 -0.421875q0 -2.234375 -2.484375 -2.234375q-1.546875 0 -3.234375 1.140625l-1.046875 -1.46875q2.046875 -1.625 4.625 -1.625q1.96875 0 3.21875 1.0q1.25 1.0 1.25 3.140625l0 7.203125zm-2.34375 -4.15625l0 -0.953125l-2.65625 0q-2.53125 0 -2.53125 1.609375q0 0.8125 0.625 1.25q0.625 0.421875 1.75 0.421875q1.125 0 1.96875 -0.625q0.84375 -0.640625 0.84375 -1.703125zm17.644836 -7.1875q2.25 0 3.84375 1.5625q1.59375 1.546875 1.59375 4.140625q0 2.578125 -1.59375 4.203125q-1.578125 1.609375 -3.6875 1.609375q-2.109375 0 -3.796875 -1.859375l0 5.765625l-2.34375 0l0 -15.25l2.34375 0l0 1.953125q1.390625 -2.125 3.640625 -2.125zm-3.671875 5.78125q0 1.59375 0.953125 2.609375q0.96875 1.015625 2.359375 1.015625q1.390625 0 2.40625 -1.0q1.03125 -1.015625 1.03125 -2.609375q0 -1.609375 -1.015625 -2.671875q-1.0 -1.0625 -2.40625 -1.0625q-1.40625 0 -2.375 1.0625q-0.953125 1.0625 -0.953125 2.65625zm14.363831 -0.484375l0 6.046875l-2.34375 0l0 -15.5625l2.34375 0l0 6.421875q0.515625 -1.015625 1.53125 -1.609375q1.015625 -0.59375 2.1875 -0.59375q1.890625 0 3.046875 1.15625q1.171875 1.15625 1.171875 3.34375l0 6.84375l-2.34375 0l0 -6.125q0 -3.09375 -2.5625 -3.09375q-1.21875 0 -2.125 0.8125q-0.90625 0.796875 -0.90625 2.359375zm14.04364 3.09375q1.0 1.015625 2.53125 1.015625q1.53125 0 2.53125 -1.015625q1.0 -1.015625 1.0 -2.625q0 -1.625 -1.0 -2.640625q-1.0 -1.015625 -2.53125 -1.015625q-1.53125 0 -2.53125 1.015625q-1.0 1.015625 -1.0 2.640625q0 1.609375 1.0 2.625zm6.71875 1.453125q-1.671875 1.671875 -4.1875 1.671875q-2.515625 0 -4.203125 -1.671875q-1.671875 -1.671875 -1.671875 -4.078125q0 -2.421875 1.671875 -4.09375q1.6875 -1.671875 4.203125 -1.671875q2.515625 0 4.1875 1.671875q1.6875 1.671875 1.6875 4.09375q0 2.40625 -1.6875 4.078125zm6.921631 -4.546875l0 6.046875l-2.34375 0l0 -11.171875l2.34375 0l0 2.03125q0.578125 -1.015625 1.5625 -1.609375q1.0 -0.59375 2.15625 -0.59375q1.890625 0 3.046875 1.15625q1.171875 1.15625 1.171875 3.34375l0 6.84375l-2.34375 0l0 -6.125q0 -3.09375 -2.5625 -3.09375q-1.21875 0 -2.125 0.8125q-0.90625 0.796875 -0.90625 2.359375zm21.82489 1.484375l-8.75 0q0.078125 1.21875 1.109375 1.96875q1.03125 0.75 2.34375 0.75q2.109375 0 3.203125 -1.328125l1.34375 1.46875q-1.8125 1.875 -4.703125 1.875q-2.359375 0 -4.015625 -1.5625q-1.640625 -1.578125 -1.640625 -4.203125q0 -2.640625 1.671875 -4.1875q1.6875 -1.5625 3.96875 -1.5625q2.28125 0 3.875 1.375q1.59375 1.375 1.59375 3.796875l0 1.609375zm-8.75 -1.84375l6.40625 0q0 -1.40625 -0.890625 -2.15625q-0.875 -0.765625 -2.171875 -0.765625q-1.296875 0 -2.328125 0.796875q-1.015625 0.78125 -1.015625 2.125z" fill-rule="nonzero"></path><path fill="#000000" d="m388.88504 306.97382l0 6.046875l-2.34375 0l0 -11.171875l2.34375 0l0 2.03125q0.578125 -1.015625 1.5625 -1.609375q1.0 -0.59375 2.15625 -0.59375q1.890625 0 3.046875 1.15625q1.171875 1.15625 1.171875 3.34375l0 6.84375l-2.34375 0l0 -6.125q0 -3.09375 -2.5625 -3.09375q-1.21875 0 -2.125 0.8125q-0.90625 0.796875 -0.90625 2.359375zm19.246796 0.921875l0 -6.046875l2.34375 0l0 11.171875l-2.34375 0l0 -2.03125q-0.5625 1.015625 -1.5625 1.609375q-1.0 0.59375 -2.15625 0.59375q-1.890625 0 -3.0625 -1.15625q-1.15625 -1.15625 -1.15625 -3.34375l0 -6.84375l2.34375 0l0 6.125q0 3.09375 2.5625 3.09375q1.21875 0 2.125 -0.796875q0.90625 -0.8125 0.90625 -2.375zm8.309265 -0.921875l0 6.046875l-2.34375 0l0 -11.171875l2.34375 0l0 2.03125q0.515625 -1.015625 1.53125 -1.609375q1.015625 -0.59375 2.1875 -0.59375q2.65625 0 3.59375 2.1875q1.65625 -2.1875 4.140625 -2.1875q1.890625 0 3.046875 1.15625q1.171875 1.15625 1.171875 3.34375l0 6.84375l-2.359375 0l0 -6.125q0 -3.09375 -2.546875 -3.09375q-1.203125 0 -2.09375 0.765625q-0.890625 0.765625 -0.9375 2.234375l0 6.21875l-2.359375 0l0 -6.125q0 -1.609375 -0.5625 -2.34375q-0.5625 -0.75 -1.78125 -0.75q-1.21875 0 -2.125 0.8125q-0.90625 0.796875 -0.90625 2.359375zm25.267426 -5.296875q2.25 0 3.84375 1.5625q1.59375 1.546875 1.59375 4.140625q0 2.578125 -1.59375 4.203125q-1.578125 1.609375 -3.6875 1.609375q-2.109375 0 -3.796875 -1.859375l0 1.6875l-2.34375 0l0 -15.578125l2.34375 0l0 6.359375q1.390625 -2.125 3.640625 -2.125zm-3.671875 5.78125q0 1.59375 0.953125 2.609375q0.96875 1.015625 2.359375 1.015625q1.390625 0 2.40625 -1.0q1.03125 -1.015625 1.03125 -2.609375q0 -1.609375 -1.015625 -2.671875q-1.0 -1.0625 -2.40625 -1.0625q-1.40625 0 -2.375 1.0625q-0.953125 1.0625 -0.953125 2.65625zm22.410706 1.0l-8.75 0q0.078125 1.21875 1.109375 1.96875q1.03125 0.75 2.34375 0.75q2.109375 0 3.203125 -1.328125l1.34375 1.46875q-1.8125 1.875 -4.703125 1.875q-2.359375 0 -4.015625 -1.5625q-1.640625 -1.578125 -1.640625 -4.203125q0 -2.640625 1.671875 -4.1875q1.6875 -1.5625 3.96875 -1.5625q2.28125 0 3.875 1.375q1.59375 1.375 1.59375 3.796875l0 1.609375zm-8.75 -1.84375l6.40625 0q0 -1.40625 -0.890625 -2.15625q-0.875 -0.765625 -2.171875 -0.765625q-1.296875 0 -2.328125 0.796875q-1.015625 0.78125 -1.015625 2.125zm17.399567 -2.5625q-1.75 0 -2.640625 1.140625q-0.875 1.125 -0.875 3.046875l0 4.78125l-2.34375 0l0 -11.171875l2.34375 0l0 2.25q0.578125 -1.046875 1.546875 -1.71875q0.984375 -0.671875 2.078125 -0.703125l0.015625 2.375q-0.0625 0 -0.125 0z" fill-rule="nonzero"></path><path fill="#000000" fill-opacity="0.0" d="m242.49606 169.54987l92.787415 52.692917" fill-rule="nonzero"></path><path stroke="#e87162" stroke-width="3.0" stroke-linejoin="round" stroke-linecap="butt" d="m242.49606 169.54987l83.84717 47.61586" fill-rule="evenodd"></path><path fill="#e87162" stroke="#e87162" stroke-width="3.0" stroke-linecap="butt" d="m326.34323 217.16573l-4.599701 1.2676849l9.726288 1.643631l-6.394287 -7.511032z" fill-rule="evenodd"></path><path fill="#000000" fill-opacity="0.0" d="m202.02887 266.44882l133.22836 -44.18898" fill-rule="nonzero"></path><path stroke="#e87162" stroke-width="3.0" stroke-linejoin="round" stroke-linecap="butt" d="m202.02887 266.44882l123.46985 -40.952286" fill-rule="evenodd"></path><path fill="#e87162" stroke="#e87162" stroke-width="3.0" stroke-linecap="butt" d="m325.49872 225.49652l-2.1401062 4.2643127l7.735901 -6.1203156l-9.860107 -0.2841034z" fill-rule="evenodd"></path><path fill="#000000" fill-opacity="0.0" d="m202.02887 266.44882l165.98425 26.078735" fill-rule="nonzero"></path><path stroke="#e87162" stroke-width="3.0" stroke-linejoin="round" stroke-linecap="butt" d="m202.02887 266.44882l155.8276 24.482971" fill-rule="evenodd"></path><path fill="#e87162" stroke="#e87162" stroke-width="3.0" stroke-linecap="butt" d="m357.85645 290.9318l-3.8565063 2.809204l9.680634 -1.894165l-8.633331 -4.7715454z" fill-rule="evenodd"></path></g></svg>

