<?xml version="1.0" standalone="yes"?>

<svg version="1.1" viewBox="0.0 0.0 582.0472440944882 455.43307086614175" fill="none" stroke="none" stroke-linecap="square" stroke-miterlimit="10" xmlns="http://www.w3.org/2000/svg" xmlns:xlink="http://www.w3.org/1999/xlink"><clipPath id="p.0"><path d="m0 0l582.04724 0l0 455.43307l-582.04724 0l0 -455.43307z" clip-rule="nonzero"></path></clipPath><g clip-path="url(#p.0)"><path fill="#000000" fill-opacity="0.0" d="m0 0l582.04724 0l0 455.43307l-582.04724 0z" fill-rule="nonzero"></path><path fill="#000000" fill-opacity="0.0" d="m101.1811 116.049866l44.850395 0l0 45.448822l-44.850395 0z" fill-rule="nonzero"></path><path fill="#000000" d="m111.4311 142.96986l0 -9.859375l1.5 0l0 1.40625q1.09375 -1.625 3.140625 -1.625q0.890625 0 1.640625 0.328125q0.75 0.3125 1.109375 0.84375q0.375 0.515625 0.53125 1.21875q0.09375 0.46875 0.09375 1.625l0 6.0625l-1.671875 0l0 -6.0q0 -1.015625 -0.203125 -1.515625q-0.1875 -0.515625 -0.6875 -0.8125q-0.5 -0.296875 -1.171875 -0.296875q-1.0625 0 -1.84375 0.671875q-0.765625 0.671875 -0.765625 2.578125l0 5.375l-1.671875 0zm16.203842 0l-1.671875 0l0 -10.640625q-0.59375 0.578125 -1.578125 1.15625q-0.984375 0.5625 -1.765625 0.859375l0 -1.625q1.40625 -0.65625 2.453125 -1.59375q1.046875 -0.9375 1.484375 -1.8125l1.078125 0l0 13.65625z" fill-rule="nonzero"></path><path fill="#f6e1b9" d="m38.51706 206.35695l0 0c0 -97.37606 51.98432 -176.31496 116.110245 -176.31496l0 0c30.794342 0 60.32744 18.575987 82.102325 51.641457c21.774887 33.065468 34.00789 77.91187 34.00789 124.6735l0 0c0 97.37608 -51.984314 176.31496 -116.110214 176.31496l0 0c-64.12592 0 -116.110245 -78.93887 -116.110245 -176.31496z" fill-rule="nonzero"></path><path stroke="#5f5e5d" stroke-width="4.0" stroke-linejoin="round" stroke-linecap="butt" d="m38.51706 206.35695l0 0c0 -97.37606 51.98432 -176.31496 116.110245 -176.31496l0 0c30.794342 0 60.32744 18.575987 82.102325 51.641457c21.774887 33.065468 34.00789 77.91187 34.00789 124.6735l0 0c0 97.37608 -51.984314 176.31496 -116.110214 176.31496l0 0c-64.12592 0 -116.110245 -78.93887 -116.110245 -176.31496z" fill-rule="nonzero"></path><path fill="#f6e1b9" d="m311.30972 206.35695l0 0c0 -97.37606 51.984314 -176.31496 116.11023 -176.31496l0 0c30.794342 0 60.327423 18.575987 82.102325 51.641457c21.774902 33.065468 34.007935 77.91187 34.007935 124.6735l0 0c0 97.37608 -51.984344 176.31496 -116.11026 176.31496l0 0c-64.125916 0 -116.11023 -78.93887 -116.11023 -176.31496z" fill-rule="nonzero"></path><path stroke="#5f5e5d" stroke-width="4.0" stroke-linejoin="round" stroke-linecap="butt" d="m311.30972 206.35695l0 0c0 -97.37606 51.984314 -176.31496 116.11023 -176.31496l0 0c30.794342 0 60.327423 18.575987 82.102325 51.641457c21.774902 33.065468 34.007935 77.91187 34.007935 124.6735l0 0c0 97.37608 -51.984344 176.31496 -116.11026 176.31496l0 0c-64.125916 0 -116.11023 -78.93887 -116.11023 -176.31496z" fill-rule="nonzero"></path><path fill="#000000" fill-opacity="0.0" d="m88.89501 32.501312l131.46457 0l0 71.874016l-131.46457 0z" fill-rule="nonzero"></path><path fill="#000000" d="m116.96185 64.35832l0 -0.4218788l1.4375 -0.09375l0 -12.21875l-1.4375 -0.09375l0 -0.40625l5.234375 0l0 0.40625l-1.421875 0.09375l0 12.21875l1.421875 0.09375l0 0.4218788l-5.234375 0zm6.561493 -4.421879q0 -0.8125 0.140625 -1.546875q0.15625 -0.75 0.46875 -1.40625q0.328125 -0.671875 0.796875 -1.15625q0.484375 -0.484375 1.171875 -0.765625q0.6875 -0.296875 1.53125 -0.296875q0.34375 0 0.8125 0.125q0.484375 0.109375 0.78125 0.34375l0 -3.375l-1.140625 0l0 -0.390625l1.9375 -0.203125l1.3125 -0.34375l0.171875 0.265625l0 12.703125l0.9375 0.09375l0 0.3750038l-3.09375 0l-0.125 -1.3125038l-0.015625 0q-0.53125 0.90625 -1.125 1.2500038q-0.578125 0.34375 -1.390625 0.34375q-0.21875 0 -0.46875 -0.046875q-0.234375 -0.046875 -0.546875 -0.1875q-0.3125 -0.125 -0.609375 -0.328125q-0.296875 -0.21875381 -0.578125 -0.5937538q-0.28125 -0.375 -0.5 -0.84375q-0.21875 -0.46875 -0.34375 -1.171875q-0.125 -0.703125 -0.125 -1.53125zm2.375 -0.09375q0 4.015625 1.65625 4.015625q0.65625 0 1.15625 -0.78125q0.515625 -0.796875 0.515625 -1.703125l0 -5.6875q-0.53125 -0.390625 -1.1875 -0.390625q-0.421875 0 -0.765625 0.171875q-0.328125 0.171875 -0.5625 0.453125q-0.21875 0.265625 -0.375 0.6875q-0.15625 0.40625 -0.25 0.78125q-0.078125 0.375 -0.125 0.875q-0.046875 0.484375 -0.0625 0.828125q0 0.328125 0 0.75zm7.6844788 -0.140625q0 -0.71875 0.140625 -1.40625q0.140625 -0.703125 0.453125 -1.34375q0.3125 -0.640625 0.765625 -1.125q0.453125 -0.484375 1.125 -0.765625q0.6875 -0.296875 1.5 -0.296875q0.765625 0 1.375 0.21875q0.609375 0.21875 1.015625 0.609375q0.421875 0.390625 0.6875 0.953125q0.265625 0.5625 0.375 1.21875q0.125 0.640625 0.125 1.421875l-0.25 0.234375l-4.9375 0l0 0.5625q0 4.046879 2.296875 4.046879q1.640625 0 2.609375 -1.6250038l0.359375 0.21875q-1.1875 2.0156288 -3.40625 2.0156288q-2.125 0 -3.1875 -1.3125038q-1.046875 -1.328125 -1.046875 -3.625zm2.375 -0.703125l3.0 -0.109375q0.03125 -0.484375 0.03125 -0.921875q0 -1.34375 -0.328125 -2.0625q-0.3125 -0.71875 -1.0625 -0.71875q-0.4375 0 -0.765625 0.296875q-0.3125 0.28125 -0.5 0.828125q-0.171875 0.546875 -0.265625 1.203125q-0.078125 0.640625 -0.109375 1.484375zm6.336151 -3.59375l1.9375 -0.203125l1.3125 -0.34375l0.171875 0.265625l-0.046875 1.25l0.046875 0q1.09375 -1.609375 2.859375 -1.609375q0.328125 0 0.625 0.0625q0.3125 0.046875 0.6875 0.25q0.375 0.1875 0.640625 0.5q0.265625 0.3125 0.453125 0.90625q0.1875 0.578125 0.1875 1.359375l0 6.046875l0.9375 0.09375l0 0.3750038l-4.171875 0l0 -0.3750038l0.953125 -0.09375l0 -6.3125q0 -1.984375 -1.28125 -1.984375q-0.828125 0 -1.359375 0.765625q-0.53125 0.765625 -0.53125 2.0l0 5.53125l0.953125 0.09375l0 0.3750038l-4.1875 0l0 -0.3750038l0.953125 -0.09375l0 -8.125l-1.125 0.015625l-0.015625 -0.375zm10.134705 0.03125l0 -0.390625l1.578125 0l0 -2.046875l0.796875 -0.09375l1.3125 -0.34375l0.171875 0.28125l0 2.203125l2.03125 0l0 0.390625l-2.03125 0.09375l0 6.53125q0 0.5625 0.125 0.9375q0.140625 0.375 0.359375 0.515625q0.21875 0.140625 0.34375 0.1875q0.140625 0.03125 0.296875 0.03125q0.28125 0 0.546875 -0.125q0.265625 -0.125 0.484375 -0.359375q0.21875 -0.25 0.359375 -0.453125q0.140625 -0.203125 0.3125 -0.484375l0.40625 0.234375q-0.5 0.8125 -0.859375 1.1875q-0.875 0.9062538 -2.03125 0.9062538q-0.4375 0 -0.78125 -0.0625q-0.328125 -0.0625 -0.703125 -0.25q-0.359375 -0.203125 -0.59375 -0.5312538q-0.234375 -0.328125 -0.390625 -0.90625q-0.15625 -0.578125 -0.15625 -1.359375l0 -6.0l-1.578125 -0.09375zm7.3438263 0.34375l0 -0.375l1.9375 -0.203125l1.3125 -0.34375l0.15625 0.265625l0 8.765625l0.96875 0.09375l0 0.3750038l-4.1875 0l0 -0.3750038l0.953125 -0.09375l0 -8.109375l-1.140625 0zm1.015625 -4.21875q0 -0.25 0.09375 -0.46875q0.09375 -0.234375 0.25 -0.390625q0.171875 -0.171875 0.390625 -0.265625q0.234375 -0.09375 0.484375 -0.09375q0.25 0 0.46875 0.09375q0.21875 0.09375 0.390625 0.265625q0.171875 0.171875 0.265625 0.390625q0.109375 0.21875 0.109375 0.46875q0 0.25 -0.109375 0.484375q-0.09375 0.21875 -0.265625 0.390625q-0.15625 0.171875 -0.375 0.265625q-0.21875 0.09375 -0.484375 0.09375q-0.265625 0 -0.484375 -0.09375q-0.21875 -0.09375 -0.390625 -0.265625q-0.171875 -0.171875 -0.265625 -0.390625q-0.078125 -0.21875 -0.078125 -0.484375zm4.1194153 3.875l0 -0.390625l1.375 0q0 -0.8125 0.140625 -1.46875q0.140625 -0.671875 0.34375 -1.09375q0.203125 -0.421875 0.5 -0.734375q0.3125 -0.3125 0.578125 -0.453125q0.265625 -0.15625 0.59375 -0.234375q0.34375 -0.09375 0.546875 -0.109375q0.203125 -0.03125 0.453125 -0.03125q0.984375 0 1.53125 0.453125q0.546875 0.4375 0.546875 1.109375q0 0.453125 -0.296875 0.78125q-0.28125 0.328125 -0.78125 0.328125q-0.484375 0 -0.765625 -0.328125q-0.28125 -0.328125 -0.28125 -0.75q0 -0.25 0.109375 -0.515625q0.109375 -0.265625 0.296875 -0.390625l0 -0.03125q-0.03125 -0.09375 -0.171875 -0.15625q-0.125 -0.078125 -0.3125 -0.078125q-0.25 0 -0.421875 0.140625q-0.15625 0.140625 -0.234375 0.40625q-0.0625 0.25 -0.078125 0.46875q-0.015625 0.203125 -0.015625 0.53125l0 2.15625l2.234375 0l0 0.390625l-2.234375 0.09375l0 8.359375l1.328125 0.09375l0 0.3750038l-4.5625 0l0 -0.3750038l0.953125 -0.09375l0 -8.359375l-1.375 -0.09375zm6.397583 0.34375l0 -0.375l1.9375 -0.203125l1.3125 -0.34375l0.15625 0.265625l0 8.765625l0.96875 0.09375l0 0.3750038l-4.1875 0l0 -0.3750038l0.953125 -0.09375l0 -8.109375l-1.140625 0zm1.015625 -4.21875q0 -0.25 0.09375 -0.46875q0.09375 -0.234375 0.25 -0.390625q0.171875 -0.171875 0.390625 -0.265625q0.234375 -0.09375 0.484375 -0.09375q0.25 0 0.46875 0.09375q0.21875 0.09375 0.390625 0.265625q0.171875 0.171875 0.265625 0.390625q0.109375 0.21875 0.109375 0.46875q0 0.25 -0.109375 0.484375q-0.09375 0.21875 -0.265625 0.390625q-0.15625 0.171875 -0.375 0.265625q-0.21875 0.09375 -0.484375 0.09375q-0.265625 0 -0.484375 -0.09375q-0.21875 -0.09375 -0.390625 -0.265625q-0.171875 -0.171875 -0.265625 -0.390625q-0.078125 -0.21875 -0.078125 -0.484375zm4.5412903 8.140625q0 -0.71875 0.140625 -1.40625q0.140625 -0.703125 0.453125 -1.34375q0.3125 -0.640625 0.765625 -1.125q0.453125 -0.484375 1.125 -0.765625q0.6875 -0.296875 1.5 -0.296875q0.765625 0 1.375 0.21875q0.609375 0.21875 1.015625 0.609375q0.421875 0.390625 0.6875 0.953125q0.265625 0.5625 0.375 1.21875q0.125 0.640625 0.125 1.421875l-0.25 0.234375l-4.9375 0l0 0.5625q0 4.046879 2.296875 4.046879q1.640625 0 2.609375 -1.6250038l0.359375 0.21875q-1.1875 2.0156288 -3.40625 2.0156288q-2.125 0 -3.1875 -1.3125038q-1.046875 -1.328125 -1.046875 -3.625zm2.375 -0.703125l3.0 -0.109375q0.03125 -0.484375 0.03125 -0.921875q0 -1.34375 -0.328125 -2.0625q-0.3125 -0.71875 -1.0625 -0.71875q-0.4375 0 -0.765625 0.296875q-0.3125 0.28125 -0.5 0.828125q-0.171875 0.546875 -0.265625 1.203125q-0.078125 0.640625 -0.109375 1.484375zm6.351776 -3.21875l0 -0.375l1.9375 -0.203125l1.3125 -0.34375l0.125 0.265625l0 1.59375l0.03125 0q0.1875 -0.359375 0.453125 -0.71875q0.28125 -0.359375 0.59375 -0.625q0.328125 -0.28125 0.6875 -0.4375q0.359375 -0.171875 0.734375 -0.171875q0.71875 0 1.109375 0.390625q0.390625 0.375 0.390625 1.015625q0 0.28125 -0.078125 0.515625q-0.078125 0.21875 -0.234375 0.390625q-0.15625 0.15625 -0.375 0.25q-0.21875 0.09375 -0.46875 0.09375q-0.28125 0 -0.515625 -0.078125q-0.21875 -0.09375 -0.375 -0.25q-0.140625 -0.171875 -0.234375 -0.375q-0.078125 -0.203125 -0.078125 -0.453125q0 -0.484375 0.203125 -0.71875l0 -0.0625q-0.328125 0.078125 -0.65625 0.359375q-0.3125 0.28125 -0.578125 0.765625q-0.25 0.46875 -0.421875 1.140625q-0.15625 0.671875 -0.15625 1.515625l0 4.625l0.96875 0.09375l0 0.3750038l-4.1875 0l0 -0.3750038l0.953125 -0.09375l0 -8.109375l-1.140625 0z" fill-rule="nonzero"></path><path fill="#000000" d="m114.30251 73.5302l0 -0.40625l1.984375 0l7.953125 9.640625l0.03125 0l-0.140625 -9.140625l-1.40625 -0.09375l0 -0.40625l3.421875 0l0 0.40625l-1.421875 0.09375l0.09375 12.921875l-0.5625 0l-7.953125 -9.671875l-0.03125 0l0.140625 8.96875l1.421875 0.09375l0 0.421875l-3.4375 0l0 -0.421875l1.421875 -0.09375l-0.09375 -12.21875l-1.421875 -0.09375zm12.912079 10.8125q0 -0.453125 0.140625 -0.875q0.140625 -0.421875 0.46875 -0.8125q0.32813263 -0.390625 0.7968826 -0.671875q0.46875 -0.296875 1.171875 -0.46875q0.703125 -0.171875 1.5625 -0.171875q0.453125 0 0.859375 0.046875l0 -1.28125q0 -0.609375 -0.03125 -0.984375q-0.015625 -0.390625 -0.109375 -0.796875q-0.09375 -0.40625 -0.265625 -0.625q-0.171875 -0.21875 -0.484375 -0.359375q-0.3125 -0.140625 -0.75 -0.140625q-1.359375 0 -1.984375 1.0625l0 0.046875q0.15625 -0.03125 0.296875 -0.03125q0.484375 0 0.75 0.296875q0.28125 0.296875 0.28125 0.84375q0 0.484375 -0.34375 0.8125q-0.328125 0.328125 -0.828125 0.328125q-0.546875 0 -0.8593826 -0.359375q-0.3125 -0.375 -0.3125 -0.875q0 -1.09375 1.0000076 -1.828125q1.015625 -0.734375 2.3125 -0.734375q0.9375 0 1.59375 0.203125q0.65625 0.1875 1.03125 0.515625q0.390625 0.3125 0.609375 0.875q0.21875 0.546875 0.28125 1.125q0.078125 0.5625 0.078125 1.40625l0 5.0l0.953125 0.09375l0 0.375l-2.9375 0l-0.265625 -1.46875l-0.015625 0q-0.453125 0.890625 -1.109375 1.328125q-0.640625 0.421875 -1.5625 0.421875q-1.125 0 -1.7343826 -0.671875q-0.59375 -0.6875 -0.59375 -1.625zm2.2343826 -0.1875q0 0.734375 0.28125 1.203125q0.28125 0.453125 0.828125 0.453125q0.625 0 1.140625 -0.78125q0.515625 -0.796875 0.515625 -1.9375l0 -1.28125q-0.375 -0.046875 -0.609375 -0.046875q-0.484375 0 -0.859375 0.140625q-0.375 0.125 -0.59375 0.34375q-0.21875 0.21875 -0.375 0.46875q-0.140625 0.25 -0.21875 0.546875q-0.0625 0.296875 -0.09375 0.5q-0.015625 0.1875 -0.015625 0.390625zm6.7800446 -6.375l0 -0.375l1.9375 -0.203125l1.3125 -0.34375l0.125 0.265625l0 1.25l0.03125 0q1.109375 -1.609375 2.671875 -1.609375q0.328125 0 0.625 0.078125q0.3125 0.0625 0.640625 0.234375q0.34375 0.171875 0.625 0.546875q0.28125 0.359375 0.4375 0.875l0.015625 0q1.25 -1.734375 2.890625 -1.734375q0.328125 0 0.625 0.0625q0.3125 0.0625 0.671875 0.265625q0.359375 0.203125 0.609375 0.53125q0.265625 0.3125 0.4375 0.90625q0.1875 0.59375 0.1875 1.375l0 5.984375l0.953125 0.09375l0 0.375l-4.1875 0l0 -0.375l0.953125 -0.09375l0 -6.3125q0 -0.546875 -0.109375 -0.9375q-0.09375 -0.40625 -0.21875 -0.59375q-0.125 -0.1875 -0.3125 -0.296875q-0.1875 -0.109375 -0.296875 -0.125q-0.109375 -0.03125 -0.25 -0.03125q-0.625 0 -1.21875 0.6875q-0.578125 0.6875 -0.578125 1.890625l0 5.71875l0.953125 0.09375l0 0.375l-4.1875 0l0 -0.375l0.953125 -0.09375l0 -6.3125q0 -0.546875 -0.09375 -0.9375q-0.09375 -0.40625 -0.21875 -0.59375q-0.125 -0.1875 -0.3125 -0.296875q-0.171875 -0.109375 -0.28125 -0.125q-0.109375 -0.03125 -0.25 -0.03125q-0.59375 0 -1.171875 0.8125q-0.5625 0.796875 -0.5625 1.953125l0 5.53125l0.96875 0.09375l0 0.375l-4.1875 0l0 -0.375l0.953125 -0.09375l0 -8.109375l-1.140625 0zm15.704895 3.921875q0 -0.71875 0.140625 -1.40625q0.140625 -0.703125 0.453125 -1.34375q0.3125 -0.640625 0.765625 -1.125q0.453125 -0.484375 1.125 -0.765625q0.6875 -0.296875 1.5 -0.296875q0.765625 0 1.375 0.21875q0.609375 0.21875 1.015625 0.609375q0.421875 0.390625 0.6875 0.953125q0.265625 0.5625 0.375 1.21875q0.125 0.640625 0.125 1.421875l-0.25 0.234375l-4.9375 0l0 0.5625q0 4.046875 2.296875 4.046875q1.640625 0 2.609375 -1.625l0.359375 0.21875q-1.1875 2.015625 -3.40625 2.015625q-2.125 0 -3.1875 -1.3125q-1.046875 -1.328125 -1.046875 -3.625zm2.375 -0.703125l3.0 -0.109375q0.03125 -0.484375 0.03125 -0.921875q0 -1.34375 -0.328125 -2.0625q-0.3125 -0.71875 -1.0625 -0.71875q-0.4375 0 -0.765625 0.296875q-0.3125 0.28125 -0.5 0.828125q-0.171875 0.546875 -0.265625 1.203125q-0.078125 0.640625 -0.109375 1.484375zm9.711151 5.1875q1.046875 0 1.546875 -0.390625q0.515625 -0.390625 0.515625 -0.984375q0 -0.296875 -0.09375 -0.53125q-0.09375 -0.234375 -0.3125 -0.453125q-0.21875 -0.21875 -0.578125 -0.4375q-0.359375 -0.234375 -0.890625 -0.53125q-0.453125 -0.265625 -0.984375 -0.546875q-0.515625 -0.296875 -0.953125 -0.6875q-0.4375 -0.390625 -0.734375 -0.890625q-0.296875 -0.515625 -0.296875 -1.234375q0 -0.625 0.234375 -1.125q0.25 -0.515625 0.671875 -0.875q0.4375 -0.359375 1.03125 -0.546875q0.609375 -0.203125 1.328125 -0.203125q0.53125 0 1.078125 0.140625q0.546875 0.125 0.96875 0.40625q0.4375 0.265625 0.703125 0.671875q0.28125 0.390625 0.28125 0.90625q0 0.203125 -0.078125 0.40625q-0.0625 0.1875 -0.203125 0.359375q-0.140625 0.15625 -0.34375 0.25q-0.1875 0.09375 -0.453125 0.09375q-0.53125 0 -0.8125 -0.296875q-0.265625 -0.296875 -0.265625 -0.71875q0 -0.265625 0.078125 -0.453125q0.078125 -0.203125 0.203125 -0.328125q0.125 -0.125 0.28125 -0.1875q0.15625 -0.0625 0.328125 -0.0625l0.078125 0l0 -0.015625q-0.09375 -0.140625 -0.265625 -0.265625q-0.171875 -0.140625 -0.421875 -0.25q-0.234375 -0.109375 -0.53125 -0.171875q-0.296875 -0.0625 -0.625 -0.0625q-0.5 0 -0.84375 0.125q-0.34375 0.125 -0.5625 0.328125q-0.21875 0.203125 -0.328125 0.453125q-0.09375 0.234375 -0.09375 0.453125q0 0.265625 0.078125 0.46875q0.09375 0.1875 0.296875 0.390625q0.21875 0.203125 0.578125 0.4375q0.375 0.21875 0.921875 0.546875q0.546875 0.28125 1.140625 0.59375q0.59375 0.3125 1.09375 0.734375q0.5 0.40625 0.828125 0.9375q0.34375 0.53125 0.34375 1.25q0 0.609375 -0.234375 1.109375q-0.234375 0.5 -0.71875 0.859375q-0.46875 0.359375 -1.203125 0.5625q-0.734375 0.203125 -1.75 0.203125q-0.484375 0 -1.03125 -0.125q-0.546875 -0.125 -1.015625 -0.390625q-0.453125 -0.265625 -0.765625 -0.6875q-0.296875 -0.421875 -0.296875 -1.03125q0 -0.265625 0.078125 -0.5q0.078125 -0.234375 0.234375 -0.421875q0.15625 -0.203125 0.375 -0.3125q0.21875 -0.109375 0.515625 -0.109375q0.25 0 0.4375 0.09375q0.203125 0.078125 0.328125 0.234375q0.140625 0.140625 0.21875 0.34375q0.078125 0.1875 0.078125 0.40625q0 0.265625 -0.09375 0.46875q-0.09375 0.1875 -0.25 0.328125q-0.140625 0.125 -0.328125 0.203125q-0.1875 0.0625 -0.375 0.0625q-0.03125 0 -0.078125 0q-0.046875 0 -0.078125 -0.015625l0 0.015625q0.078125 0.1875 0.25 0.375q0.171875 0.171875 0.421875 0.3125q0.25 0.125 0.59375 0.21875q0.34375 0.09375 0.75 0.09375zm9.228683 -4.296875q0 -2.515625 1.09375 -4.96875q1.109375 -2.453125 2.765625 -4.125l0.359375 0.34375q-2.125 2.984375 -2.125 8.75q0 5.734375 2.125 8.734375l-0.359375 0.328125q-1.65625 -1.6875 -2.765625 -4.125q-1.09375 -2.421875 -1.09375 -4.9375zm5.0753174 -8.359375l0 -0.40625l1.984375 0l7.953125 9.640625l0.03125 0l-0.140625 -9.140625l-1.40625 -0.09375l0 -0.40625l3.421875 0l0 0.40625l-1.421875 0.09375l0.09375 12.921875l-0.5625 0l-7.953125 -9.671875l-0.03125 0l0.140625 8.96875l1.421875 0.09375l0 0.421875l-3.4375 0l0 -0.421875l1.421875 -0.09375l-0.09375 -12.21875l-1.421875 -0.09375zm12.552704 17.09375q2.125 -3.0 2.125 -8.734375q0 -5.765625 -2.125 -8.75l0.359375 -0.34375q1.640625 1.671875 2.75 4.125q1.109375 2.453125 1.109375 4.96875q0 2.515625 -1.109375 4.9375q-1.109375 2.4375 -2.75 4.125l-0.359375 -0.328125z" fill-rule="nonzero"></path><path fill="#000000" fill-opacity="0.0" d="m361.68765 32.501312l131.46457 0l0 71.874016l-131.46457 0z" fill-rule="nonzero"></path><path fill="#000000" d="m391.00003 57.967693q0 -1.015625 0.21875 -2.015625q0.234375 -1.015625 0.71875 -1.953125q0.484375 -0.9375 1.1875 -1.640625q0.703125 -0.703125 1.734375 -1.125q1.046875 -0.4375 2.296875 -0.4375q1.4375 0 2.546875 0.796875q1.109375 0.78125 1.109375 1.875q0 0.546875 -0.359375 0.9375q-0.34375 0.390625 -0.9375 0.390625q-0.578125 0 -0.9375 -0.359375q-0.359375 -0.359375 -0.359375 -0.90625q0 -0.53125 0.328125 -0.890625q0.34375 -0.375 0.859375 -0.375q0.109375 0 0.15625 0l0 -0.03125q-0.140625 -0.265625 -0.765625 -0.578125q-0.609375 -0.328125 -1.46875 -0.328125q-1.6875 0 -2.78125 1.75q-1.078125 1.75 -1.078125 4.625q0 1.234375 0.203125 2.34375q0.21875 1.09375 0.640625 2.0q0.421875 0.890625 1.140625 1.421875q0.71875 0.53125 1.640625 0.53125q1.3125 0 2.28125 -0.78125q0.984375 -0.78125 1.53125 -2.0l0.4375 0.203125q-1.328125 3.2656288 -4.46875 3.2656288q-1.359375 0 -2.40625 -0.375q-1.046875 -0.3906288 -1.703125 -1.0156288q-0.640625 -0.625 -1.046875 -1.515625q-0.40625 -0.890625 -0.5625 -1.8125q-0.15625 -0.921875 -0.15625 -2.0zm11.257965 1.78125q0 -1.390625 0.53125 -2.53125q0.546875 -1.140625 1.515625 -1.796875q0.984375 -0.65625 2.21875 -0.65625q1.03125 0 1.84375 0.421875q0.828125 0.421875 1.3125 1.125q0.5 0.703125 0.765625 1.578125q0.265625 0.859375 0.265625 1.8125q0 1.359375 -0.515625 2.484375q-0.515625 1.125 -1.5 1.796875q-0.96875 0.6562538 -2.1875 0.6562538q-1.078125 0 -1.921875 -0.375q-0.828125 -0.3906288 -1.328125 -1.0781288q-0.5 -0.6875 -0.75 -1.546875q-0.25 -0.859375 -0.25 -1.890625zm2.375 -0.109375q0 1.03125 0.09375 1.84375q0.109375 0.8125 0.3125 1.4375q0.21875 0.625 0.578125 0.96875q0.359375 0.3281288 0.859375 0.3281288q1.859375 0 1.859375 -4.468754q0 -1.109375 -0.09375 -1.921875q-0.078125 -0.8125 -0.296875 -1.421875q-0.203125 -0.625 -0.578125 -0.921875q-0.359375 -0.296875 -0.890625 -0.296875q-0.5 0 -0.859375 0.34375q-0.359375 0.328125 -0.578125 0.9375q-0.203125 0.609375 -0.3125 1.40625q-0.09375 0.78125 -0.09375 1.765625zm7.146881 -4.234375l1.9375 -0.203125l1.3125 -0.34375l0.171875 0.265625l-0.046875 1.25l0.046875 0q1.09375 -1.609375 2.859375 -1.609375q0.328125 0 0.625 0.0625q0.3125 0.046875 0.6875 0.25q0.375 0.1875 0.640625 0.5q0.265625 0.3125 0.453125 0.90625q0.1875 0.578125 0.1875 1.359375l0 6.046875l0.9375 0.09375l0 0.3750038l-4.171875 0l0 -0.3750038l0.953125 -0.09375l0 -6.3125q0 -1.984375 -1.28125 -1.984375q-0.828125 0 -1.359375 0.765625q-0.53125 0.765625 -0.53125 2.0l0 5.53125l0.953125 0.09375l0 0.3750038l-4.1875 0l0 -0.3750038l0.953125 -0.09375l0 -8.125l-1.125 0.015625l-0.015625 -0.375zm10.83783 4.34375q0 -0.671875 0.15625 -1.359375q0.15625 -0.6875 0.5 -1.34375q0.359375 -0.65625 0.84375 -1.15625q0.5 -0.515625 1.234375 -0.8125q0.734375 -0.3125 1.59375 -0.3125q1.296875 0 2.140625 0.734375q0.859375 0.71875 0.859375 1.71875q0 0.5 -0.328125 0.84375q-0.3125 0.34375 -0.859375 0.34375q-0.5 0 -0.828125 -0.3125q-0.328125 -0.328125 -0.328125 -0.828125q0 -0.453125 0.296875 -0.78125q0.3125 -0.34375 0.78125 -0.34375q0.0625 0 0.234375 0.015625l0 -0.046875q-0.109375 -0.1875 -0.265625 -0.34375q-0.15625 -0.171875 -0.53125 -0.34375q-0.375 -0.1875 -0.828125 -0.1875q-0.8125 0 -1.34375 0.609375q-0.53125 0.609375 -0.75 1.578125q-0.203125 0.96875 -0.203125 2.296875q0 4.28125 2.28125 4.28125q0.296875 0 0.546875 -0.046875q0.265625 -0.0625 0.609375 -0.203125q0.34375 -0.15625 0.6875 -0.5q0.34375 -0.359375 0.65625 -0.890625l0.375 0.203125q-1.140625 2.0781288 -3.265625 2.0781288q-4.265625 0 -4.265625 -4.890629zm8.617584 -0.046875q0 -0.71875 0.140625 -1.40625q0.140625 -0.703125 0.453125 -1.34375q0.3125 -0.640625 0.765625 -1.125q0.453125 -0.484375 1.125 -0.765625q0.6875 -0.296875 1.5 -0.296875q0.765625 0 1.375 0.21875q0.609375 0.21875 1.015625 0.609375q0.421875 0.390625 0.6875 0.953125q0.265625 0.5625 0.375 1.21875q0.125 0.640625 0.125 1.421875l-0.25 0.234375l-4.9375 0l0 0.5625q0 4.046879 2.296875 4.046879q1.640625 0 2.609375 -1.6250038l0.359375 0.21875q-1.1875 2.0156288 -3.40625 2.0156288q-2.125 0 -3.1875 -1.3125038q-1.046875 -1.328125 -1.046875 -3.625zm2.375 -0.703125l3.0 -0.109375q0.03125 -0.484375 0.03125 -0.921875q0 -1.34375 -0.328125 -2.0625q-0.3125 -0.71875 -1.0625 -0.71875q-0.4375 0 -0.765625 0.296875q-0.3125 0.28125 -0.5 0.828125q-0.171875 0.546875 -0.265625 1.203125q-0.078125 0.640625 -0.109375 1.484375zm6.242401 -3.21875l0 -0.375l1.9375 -0.203125l1.3125 -0.34375l0.125 0.265625l0 1.203125l0.046875 0q0.53125 -0.890625 1.109375 -1.21875q0.578125 -0.34375 1.40625 -0.34375q0.203125 0 0.4375 0.046875q0.25 0.046875 0.5625 0.1875q0.328125 0.125 0.625 0.34375q0.296875 0.21875 0.59375 0.59375q0.296875 0.375 0.5 0.875q0.21875 0.484375 0.34375 1.203125q0.140625 0.71875 0.140625 1.59375q0 1.046875 -0.265625 1.953125q-0.25 0.890625 -0.75 1.59375q-0.5 0.6875 -1.328125 1.0937538q-0.8125 0.390625 -1.859375 0.390625q-0.921875 0 -1.515625 -0.46875l0 4.125l0.953125 0.09375l0 0.375l-4.1875 0l0 -0.375l0.953125 -0.09375l0 -12.515629l-1.140625 0zm3.421875 7.890625q0.53125 0.4687538 1.140625 0.4687538q0.4375 0 0.78125 -0.17187881q0.359375 -0.171875 0.578125 -0.421875q0.234375 -0.265625 0.390625 -0.6875q0.171875 -0.4375 0.25 -0.8125q0.09375 -0.375 0.140625 -0.890625q0.046875 -0.515625 0.046875 -0.859375q0.015625 -0.34375 0.015625 -0.8125q0 -1.515625 -0.21875 -2.40625q-0.203125 -0.90625 -0.546875 -1.234375q-0.34375 -0.328125 -0.859375 -0.328125q-0.734375 0 -1.234375 0.765625q-0.484375 0.75 -0.484375 1.6875l0 5.703125zm6.3511047 -8.234375l0 -0.390625l1.578125 0l0 -2.046875l0.796875 -0.09375l1.3125 -0.34375l0.171875 0.28125l0 2.203125l2.03125 0l0 0.390625l-2.03125 0.09375l0 6.53125q0 0.5625 0.125 0.9375q0.140625 0.375 0.359375 0.515625q0.21875 0.140625 0.34375 0.1875q0.140625 0.03125 0.296875 0.03125q0.28125 0 0.546875 -0.125q0.265625 -0.125 0.484375 -0.359375q0.21875 -0.25 0.359375 -0.453125q0.140625 -0.203125 0.3125 -0.484375l0.40625 0.234375q-0.5 0.8125 -0.859375 1.1875q-0.875 0.9062538 -2.03125 0.9062538q-0.4375 0 -0.78125 -0.0625q-0.328125 -0.0625 -0.703125 -0.25q-0.359375 -0.203125 -0.59375 -0.5312538q-0.234375 -0.328125 -0.390625 -0.90625q-0.15625 -0.578125 -0.15625 -1.359375l0 -6.0l-1.578125 -0.09375zm10.703217 8.750004q1.046875 0 1.546875 -0.3906288q0.515625 -0.390625 0.515625 -0.984375q0 -0.296875 -0.09375 -0.53125q-0.09375 -0.234375 -0.3125 -0.453125q-0.21875 -0.21875 -0.578125 -0.4375q-0.359375 -0.234375 -0.890625 -0.53125q-0.453125 -0.265625 -0.984375 -0.546875q-0.515625 -0.296875 -0.953125 -0.6875q-0.4375 -0.390625 -0.734375 -0.890625q-0.296875 -0.515625 -0.296875 -1.234375q0 -0.625 0.234375 -1.125q0.25 -0.515625 0.671875 -0.875q0.4375 -0.359375 1.03125 -0.546875q0.609375 -0.203125 1.328125 -0.203125q0.53125 0 1.078125 0.140625q0.546875 0.125 0.96875 0.40625q0.4375 0.265625 0.703125 0.671875q0.28125 0.390625 0.28125 0.90625q0 0.203125 -0.078125 0.40625q-0.0625 0.1875 -0.203125 0.359375q-0.140625 0.15625 -0.34375 0.25q-0.1875 0.09375 -0.453125 0.09375q-0.53125 0 -0.8125 -0.296875q-0.265625 -0.296875 -0.265625 -0.71875q0 -0.265625 0.078125 -0.453125q0.078125 -0.203125 0.203125 -0.328125q0.125 -0.125 0.28125 -0.1875q0.15625 -0.0625 0.328125 -0.0625l0.078125 0l0 -0.015625q-0.09375 -0.140625 -0.265625 -0.265625q-0.171875 -0.140625 -0.421875 -0.25q-0.234375 -0.109375 -0.53125 -0.171875q-0.296875 -0.0625 -0.625 -0.0625q-0.5 0 -0.84375 0.125q-0.34375 0.125 -0.5625 0.328125q-0.21875 0.203125 -0.328125 0.453125q-0.09375 0.234375 -0.09375 0.453125q0 0.265625 0.078125 0.46875q0.09375 0.1875 0.296875 0.390625q0.21875 0.203125 0.578125 0.4375q0.375 0.21875 0.921875 0.546875q0.546875 0.28125 1.140625 0.59375q0.59375 0.3125 1.09375 0.734375q0.5 0.40625 0.828125 0.9375q0.34375 0.53125 0.34375 1.25q0 0.609375 -0.234375 1.109375q-0.234375 0.5 -0.71875 0.859375q-0.46875 0.3593788 -1.203125 0.5625038q-0.734375 0.203125 -1.75 0.203125q-0.484375 0 -1.03125 -0.125q-0.546875 -0.125 -1.015625 -0.390625q-0.453125 -0.2656288 -0.765625 -0.6875038q-0.296875 -0.421875 -0.296875 -1.03125q0 -0.265625 0.078125 -0.5q0.078125 -0.234375 0.234375 -0.421875q0.15625 -0.203125 0.375 -0.3125q0.21875 -0.109375 0.515625 -0.109375q0.25 0 0.4375 0.09375q0.203125 0.078125 0.328125 0.234375q0.140625 0.140625 0.21875 0.34375q0.078125 0.1875 0.078125 0.40625q0 0.265625 -0.09375 0.46875q-0.09375 0.1875 -0.25 0.328125q-0.140625 0.125 -0.328125 0.203125q-0.1875 0.0625 -0.375 0.0625q-0.03125 0 -0.078125 0q-0.046875 0 -0.078125 -0.015625l0 0.015625q0.078125 0.1875 0.25 0.375q0.171875 0.171875 0.421875 0.3125q0.25 0.125 0.59375 0.21875381q0.34375 0.09375 0.75 0.09375z" fill-rule="nonzero"></path><path fill="#000000" d="m417.27817 81.88957q0 -2.515625 1.09375 -4.96875q1.109375 -2.453125 2.765625 -4.125l0.359375 0.34375q-2.125 2.984375 -2.125 8.75q0 5.734375 2.125 8.734375l-0.359375 0.328125q-1.65625 -1.6875 -2.765625 -4.125q-1.09375 -2.421875 -1.09375 -4.9375zm5.3409424 -1.921875q0 -1.015625 0.21875 -2.015625q0.234375 -1.015625 0.71875 -1.953125q0.484375 -0.9375 1.1875 -1.640625q0.703125 -0.703125 1.734375 -1.125q1.046875 -0.4375 2.296875 -0.4375q1.4375 0 2.546875 0.796875q1.109375 0.78125 1.109375 1.875q0 0.546875 -0.359375 0.9375q-0.34375 0.390625 -0.9375 0.390625q-0.578125 0 -0.9375 -0.359375q-0.359375 -0.359375 -0.359375 -0.90625q0 -0.53125 0.328125 -0.890625q0.34375 -0.375 0.859375 -0.375q0.109375 0 0.15625 0l0 -0.03125q-0.140625 -0.265625 -0.765625 -0.578125q-0.609375 -0.328125 -1.46875 -0.328125q-1.6875 0 -2.78125 1.75q-1.078125 1.75 -1.078125 4.625q0 1.234375 0.203125 2.34375q0.21875 1.09375 0.640625 2.0q0.421875 0.890625 1.140625 1.421875q0.71875 0.53125 1.640625 0.53125q1.3125 0 2.28125 -0.78125q0.984375 -0.78125 1.53125 -2.0l0.4375 0.203125q-1.328125 3.265625 -4.46875 3.265625q-1.359375 0 -2.40625 -0.375q-1.046875 -0.390625 -1.703125 -1.015625q-0.640625 -0.625 -1.046875 -1.515625q-0.40625 -0.890625 -0.5625 -1.8125q-0.15625 -0.921875 -0.15625 -2.0zm10.820435 10.65625q2.125 -3.0 2.125 -8.734375q0 -5.765625 -2.125 -8.75l0.359375 -0.34375q1.640625 1.671875 2.75 4.125q1.109375 2.453125 1.109375 4.96875q0 2.515625 -1.109375 4.9375q-1.109375 2.4375 -2.75 4.125l-0.359375 -0.328125z" fill-rule="nonzero"></path><path fill="#f2eeea" d="m82.50131 104.37533l75.55905 0l0 41.763786l-75.55905 0z" fill-rule="nonzero"></path><path stroke="#000000" stroke-width="2.0" stroke-linejoin="round" stroke-linecap="butt" d="m82.50131 104.37533l75.55905 0l0 41.763786l-75.55905 0z" fill-rule="nonzero"></path><path fill="#000000" d="m110.19516 122.440346l1.59375 0l0.0625 1.65625q0.453125 -0.53125 0.875 -0.875q0.421875 -0.359375 0.828125 -0.578125q0.40625 -0.21875 0.828125 -0.296875q0.421875 -0.09375 0.875 -0.09375q1.578125 0 2.390625 0.9375q0.828125 0.9375 0.828125 2.828125l0 6.7187424l-1.796875 0l0 -6.5781174q0 -1.203125 -0.453125 -1.78125q-0.4375 -0.578125 -1.328125 -0.578125q-0.328125 0 -0.640625 0.09375q-0.3125 0.09375 -0.65625 0.34375q-0.34375 0.234375 -0.734375 0.65625q-0.390625 0.40625 -0.890625 1.015625l0 6.8281174l-1.78125 0l0 -10.296867zm20.304428 10.296867l-8.40625 0l0 -1.65625l3.4375 0l0 -9.781242l-3.203125 1.734375l-0.65625 -1.515625l4.265625 -2.25l1.578125 0l0 11.812492l2.984375 0l0 1.65625z" fill-rule="nonzero"></path><path fill="#eefdef" d="m353.0971 108.73491l44.850403 0l0 41.76378l-44.850403 0z" fill-rule="nonzero"></path><path stroke="#000000" stroke-width="2.0" stroke-linejoin="round" stroke-linecap="butt" d="m353.0971 108.73491l44.850403 0l0 41.76378l-44.850403 0z" fill-rule="nonzero"></path><path fill="#000000" d="m371.97302 137.26868q-2.328125 0 -4.015625 -1.578125q-1.671875 -1.59375 -1.671875 -4.15625q0 -2.5625 1.75 -4.1718826q1.75 -1.609375 4.265625 -1.609375q2.53125 0 4.265625 1.75l-1.375 1.7031326q-1.453125 -1.2656326 -2.921875 -1.2656326q-1.46875 0 -2.5625 0.9843826q-1.078125 0.96875 -1.078125 2.515625q0 1.546875 1.0625 2.625q1.078125 1.0625 2.640625 1.0625q1.578125 0 2.953125 -1.4375l1.390625 1.515625q-2.03125 2.0625 -4.703125 2.0625zm6.238159 -14.843758l5.328125 0l0 14.671883l-2.34375 0l0 -12.468758l-2.984375 0l0 -2.203125z" fill-rule="nonzero"></path><path fill="#eefdef" d="m446.41995 97.18898l64.75589 0l0 41.76378l-64.75589 0z" fill-rule="nonzero"></path><path stroke="#000000" stroke-width="2.0" stroke-linejoin="round" stroke-linecap="butt" d="m446.41995 97.18898l64.75589 0l0 41.76378l-64.75589 0z" fill-rule="nonzero"></path><path fill="#000000" d="m473.03046 125.72274q-2.328125 0 -4.015625 -1.578125q-1.671875 -1.59375 -1.671875 -4.15625q0 -2.5625 1.75 -4.171875q1.75 -1.609375 4.265625 -1.609375q2.53125 0 4.265625 1.75l-1.375 1.703125q-1.453125 -1.265625 -2.921875 -1.265625q-1.46875 0 -2.5625 0.984375q-1.078125 0.96875 -1.078125 2.515625q0 1.546875 1.0625 2.625q1.078125 1.0625 2.640625 1.0625q1.578125 0 2.953125 -1.4375l1.390625 1.515625q-2.03125 2.0625 -4.703125 2.0625zm11.30069 -6.75q1.484375 -1.5 2.109375 -2.359375q0.640625 -0.875 0.640625 -1.75q0 -0.890625 -0.671875 -1.5q-0.671875 -0.625 -1.703125 -0.625q-1.8125 0 -3.0 1.84375l-2.0 -1.140625q0.96875 -1.453125 2.125 -2.1875q1.171875 -0.734375 3.0 -0.734375q1.84375 0 3.234375 1.171875q1.390625 1.15625 1.390625 3.171875q0 1.125 -0.59375 2.15625q-0.578125 1.03125 -2.15625 2.65625l-3.453125 3.5l6.65625 0l0 2.375l-10.03125 0l0 -2.09375l4.453125 -4.484375z" fill-rule="nonzero"></path><path fill="#f2eeea" d="m171.33333 134.57217l58.299225 0l0 41.76378l-58.299225 0z" fill-rule="nonzero"></path><path stroke="#000000" stroke-width="2.0" stroke-linejoin="round" stroke-linecap="butt" d="m171.33333 134.57217l58.299225 0l0 41.76378l-58.299225 0z" fill-rule="nonzero"></path><path fill="#000000" d="m190.39726 152.63719l1.59375 0l0.0625 1.65625q0.453125 -0.53125 0.875 -0.875q0.421875 -0.359375 0.828125 -0.578125q0.40625 -0.21875 0.828125 -0.296875q0.421875 -0.09375 0.875 -0.09375q1.578125 0 2.390625 0.9375q0.828125 0.9375 0.828125 2.828125l0 6.71875l-1.796875 0l0 -6.578125q0 -1.203125 -0.453125 -1.78125q-0.4375 -0.578125 -1.328125 -0.578125q-0.328125 0 -0.640625 0.09375q-0.3125 0.09375 -0.65625 0.34375q-0.34375 0.234375 -0.734375 0.65625q-0.390625 0.40625 -0.890625 1.015625l0 6.828125l-1.78125 0l0 -10.296875zm20.429428 10.296875l-8.84375 0l0 -1.59375l3.46875 -3.453125q0.859375 -0.84375 1.390625 -1.453125q0.53125 -0.609375 0.828125 -1.109375q0.296875 -0.515625 0.390625 -0.96875q0.109375 -0.453125 0.109375 -0.984375q0 -0.484375 -0.140625 -0.921875q-0.125 -0.453125 -0.40625 -0.796875q-0.265625 -0.34375 -0.71875 -0.53125q-0.4375 -0.1875 -1.046875 -0.1875q-0.859375 0 -1.5625 0.375q-0.6875 0.375 -1.265625 0.984375l-0.984375 -1.1875q0.75 -0.796875 1.734375 -1.28125q1.0 -0.484375 2.3125 -0.484375q0.890625 0 1.625 0.28125q0.734375 0.265625 1.265625 0.765625q0.53125 0.5 0.828125 1.234375q0.296875 0.71875 0.296875 1.625q0 0.78125 -0.21875 1.4375q-0.203125 0.65625 -0.625 1.3125q-0.40625 0.640625 -1.046875 1.34375q-0.625 0.6875 -1.484375 1.515625l-2.421875 2.375l6.515625 0l0 1.703125z" fill-rule="nonzero"></path><path fill="#f2eeea" d="m88.89501 168.70604l64.75591 0l0 41.76378l-64.75591 0z" fill-rule="nonzero"></path><path stroke="#000000" stroke-width="2.0" stroke-linejoin="round" stroke-linecap="butt" d="m88.89501 168.70604l64.75591 0l0 41.76378l-64.75591 0z" fill-rule="nonzero"></path><path fill="#000000" d="m109.37101 193.83356q0.359375 0 0.671875 0.140625q0.3125 0.125 0.53125 0.375q0.234375 0.234375 0.359375 0.546875q0.140625 0.3125 0.140625 0.671875q0 0.34375 -0.140625 0.65625q-0.125 0.296875 -0.359375 0.53125q-0.21875 0.234375 -0.53125 0.359375q-0.3125 0.140625 -0.671875 0.140625q-0.359375 0 -0.671875 -0.140625q-0.296875 -0.125 -0.53125 -0.359375q-0.234375 -0.234375 -0.375 -0.53125q-0.125 -0.3125 -0.125 -0.65625q0 -0.359375 0.125 -0.671875q0.140625 -0.3125 0.375 -0.546875q0.234375 -0.25 0.53125 -0.375q0.3125 -0.140625 0.671875 -0.140625zm11.726303 0q0.359375 0 0.671875 0.140625q0.3125 0.125 0.53125 0.375q0.234375 0.234375 0.359375 0.546875q0.140625 0.3125 0.140625 0.671875q0 0.34375 -0.140625 0.65625q-0.125 0.296875 -0.359375 0.53125q-0.21875 0.234375 -0.53125 0.359375q-0.3125 0.140625 -0.671875 0.140625q-0.359375 0 -0.671875 -0.140625q-0.296875 -0.125 -0.53125 -0.359375q-0.234375 -0.234375 -0.375 -0.53125q-0.125 -0.3125 -0.125 -0.65625q0 -0.359375 0.125 -0.671875q0.140625 -0.3125 0.375 -0.546875q0.234375 -0.25 0.53125 -0.375q0.3125 -0.140625 0.671875 -0.140625zm11.726311 0q0.359375 0 0.671875 0.140625q0.3125 0.125 0.53125 0.375q0.234375 0.234375 0.359375 0.546875q0.140625 0.3125 0.140625 0.671875q0 0.34375 -0.140625 0.65625q-0.125 0.296875 -0.359375 0.53125q-0.21875 0.234375 -0.53125 0.359375q-0.3125 0.140625 -0.671875 0.140625q-0.359375 0 -0.671875 -0.140625q-0.296875 -0.125 -0.53125 -0.359375q-0.234375 -0.234375 -0.375 -0.53125q-0.125 -0.3125 -0.125 -0.65625q0 -0.359375 0.125 -0.671875q0.140625 -0.3125 0.375 -0.546875q0.234375 -0.25 0.53125 -0.375q0.3125 -0.140625 0.671875 -0.140625z" fill-rule="nonzero"></path><path fill="#000000" fill-opacity="0.0" d="m62.548557 239.14436l184.15749 0l0 71.87401l-184.15749 0z" fill-rule="nonzero"></path><path fill="#000000" d="m103.80346 260.00137l-1.9375 0l0 -1.34375q-1.265625 1.5 -3.375 1.5q-1.578125 0 -2.609375 -0.890625q-1.03125 -0.90625 -1.03125 -2.390625q0 -1.4843903 1.09375 -2.2187653q1.109375 -0.75 2.984375 -0.75l2.765625 0l0 -0.390625q0 -2.015625 -2.25 -2.015625q-1.40625 0 -2.921875 1.03125l-0.953125 -1.328125q1.84375 -1.46875 4.1875 -1.46875q1.78125 0 2.90625 0.90625q1.140625 0.90625 1.140625 2.84375l0 6.5156403zm-2.140625 -3.765625l0 -0.84376526l-2.390625 0q-2.296875 0 -2.296875 1.4375153q0 0.734375 0.5625 1.125q0.578125 0.390625 1.59375 0.390625q1.015625 0 1.765625 -0.5625q0.765625 -0.578125 0.765625 -1.546875zm7.0293427 3.765625l-2.140625 0l0 -14.093765l2.140625 0l0 14.093765zm5.1118164 0l-2.140625 0l0 -14.093765l2.140625 0l0 14.093765zm10.223633 0l-2.140625 0l0 -10.10939l2.140625 0l0 10.10939zm-2.0 -12.10939q-0.40625 -0.40625 -0.40625 -0.953125q0 -0.5625 0.40625 -0.953125q0.40625 -0.40625 0.953125 -0.40625q0.546875 0 0.9375 0.40625q0.40625 0.390625 0.40625 0.953125q0 0.546875 -0.40625 0.953125q-0.390625 0.390625 -0.9375 0.390625q-0.546875 0 -0.953125 -0.390625zm9.096199 12.26564q-1.90625 0 -3.3437576 -1.4375q-1.421875 -1.453125 -1.421875 -3.8125153q0 -2.359375 1.453125 -3.765625q1.4687576 -1.40625 3.4843826 -1.40625q2.03125 0 3.265625 1.71875l0 -5.546875l2.140625 0l0 14.093765l-2.140625 0l0 -1.515625q-1.171875 1.671875 -3.4375 1.671875zm-2.640625 -5.1562653q0 1.4531403 0.9375 2.3593903q0.9375 0.90625 2.1875 0.90625q1.25 0 2.125 -0.921875q0.875 -0.921875 0.875 -2.3593903q0 -1.4375 -0.875 -2.40625q-0.875 -0.96875 -2.15625 -0.96875q-1.265625 0 -2.1875 0.96875q-0.90625 0.96875 -0.90625 2.421875zm20.458878 0.875l-7.921875 0q0.078125 1.1093903 1.0 1.7812653q0.9375 0.671875 2.140625 0.671875q1.90625 0 2.890625 -1.203125l1.21875 1.34375q-1.640625 1.6875 -4.265625 1.6875q-2.125 0 -3.625 -1.40625q-1.484375 -1.421875 -1.484375 -3.8125153q0 -2.390625 1.515625 -3.796875q1.53125 -1.40625 3.59375 -1.40625q2.0625 0 3.5 1.25q1.4375 1.25 1.4375 3.421875l0 1.46875zm-7.921875 -1.671875l5.796875 0q0 -1.265625 -0.796875 -1.953125q-0.796875 -0.6875 -1.96875 -0.6875q-1.15625 0 -2.09375 0.71875q-0.9375 0.703125 -0.9375 1.921875zm12.185822 0.328125l0 5.4687653l-2.140625 0l0 -10.10939l2.140625 0l0 1.84375q0.515625 -0.9375 1.40625 -1.46875q0.90625 -0.53125 1.953125 -0.53125q1.703125 0 2.75 1.046875q1.0625 1.046875 1.0625 3.03125l0 6.1875153l-2.125 0l0 -5.5468903q0 -2.796875 -2.3125 -2.796875q-1.109375 0 -1.921875 0.734375q-0.8125 0.734375 -0.8125 2.140625zm12.536316 -2.921875l0 5.1250153q0 0.71875 0.375 1.15625q0.390625 0.421875 1.0625 0.421875q0.6875 0 1.328125 -0.671875l0.875 1.5q-1.125 1.015625 -2.484375 1.015625q-1.359375 0 -2.328125 -0.9375q-0.953125 -0.953125 -0.953125 -2.546875l0 -5.0625153l-1.265625 0l0 -1.71875l1.265625 0l0 -3.171875l2.125 0l0 3.171875l2.671875 0l0 1.71875l-2.671875 0zm7.3139343 8.39064l-2.140625 0l0 -10.10939l2.140625 0l0 10.10939zm-2.0 -12.10939q-0.40625 -0.40625 -0.40625 -0.953125q0 -0.5625 0.40625 -0.953125q0.40625 -0.40625 0.953125 -0.40625q0.546875 0 0.9375 0.40625q0.40625 0.390625 0.40625 0.953125q0 0.546875 -0.40625 0.953125q-0.390625 0.390625 -0.9375 0.390625q-0.546875 0 -0.953125 -0.390625zm7.5961914 1.171875l0 0.828125l2.671875 0l0 1.71875l-2.671875 0l0 8.39064l-2.125 0l0 -8.39064l-1.265625 0l0 -1.71875l1.265625 0l0 -0.78125q0 -1.59375 0.953125 -2.53125q0.96875 -0.9375 2.328125 -0.9375q1.359375 0 2.484375 1.0l-0.875 1.5q-0.640625 -0.65625 -1.328125 -0.65625q-0.671875 0 -1.0625 0.421875q-0.375 0.421875 -0.375 1.15625zm6.716934 10.937515l-2.140625 0l0 -10.10939l2.140625 0l0 10.10939zm-2.0 -12.10939q-0.40625 -0.40625 -0.40625 -0.953125q0 -0.5625 0.40625 -0.953125q0.40625 -0.40625 0.953125 -0.40625q0.546875 0 0.9375 0.40625q0.40625 0.390625 0.40625 0.953125q0 0.546875 -0.40625 0.953125q-0.390625 0.390625 -0.9375 0.390625q-0.546875 0 -0.953125 -0.390625zm14.377426 7.984375l-7.9218597 0q0.078125 1.1093903 0.99998474 1.7812653q0.9375 0.671875 2.140625 0.671875q1.90625 0 2.890625 -1.203125l1.21875 1.34375q-1.640625 1.6875 -4.265625 1.6875q-2.125 0 -3.6249847 -1.40625q-1.484375 -1.421875 -1.484375 -3.8125153q0 -2.390625 1.515625 -3.796875q1.5312347 -1.40625 3.5937347 -1.40625q2.0625 0 3.5 1.25q1.4375 1.25 1.4375 3.421875l0 1.46875zm-7.9218597 -1.671875l5.7968597 0q0 -1.265625 -0.796875 -1.953125q-0.796875 -0.6875 -1.96875 -0.6875q-1.15625 0 -2.09375 0.71875q-0.93748474 0.703125 -0.93748474 1.921875zm15.357681 -2.3125q-1.578125 0 -2.375 1.03125q-0.796875 1.015625 -0.796875 2.75l0 4.3281403l-2.140625 0l0 -10.10939l2.140625 0l0 2.03125q0.515625 -0.953125 1.390625 -1.546875q0.890625 -0.609375 1.875 -0.640625l0.015625 2.15625q-0.0625 0 -0.109375 0zm9.29718 5.0937653q0 1.4375 -1.046875 2.3125q-1.03125 0.859375 -2.671875 0.859375q-1.109375 0 -2.296875 -0.390625q-1.1875 -0.40625 -2.09375 -1.140625l1.03125 -1.640625q1.765625 1.328125 3.421875 1.328125q0.71875 0 1.125 -0.328125q0.421875 -0.34375 0.421875 -0.859375q0 -0.75 -2.015625 -1.3593903q-0.140625 -0.0625 -0.21875 -0.078125q-3.15625 -0.859375 -3.15625 -2.84375q0 -1.40625 1.09375 -2.25q1.09375 -0.859375 2.84375 -0.859375q1.75 0 3.296875 1.03125l-0.796875 1.578125q-1.234375 -0.8125 -2.671875 -0.8125q-0.765625 0 -1.25 0.28125q-0.46875 0.265625 -0.46875 0.8125q0 0.5 0.5 0.71875q0.34375 0.171875 0.953125 0.328125q0.625 0.15625 1.09375 0.3125q0.484375 0.140625 0.921875 0.34375q0.453125 0.1875 0.96875 0.515625q1.015625 0.6875 1.015625 2.1406403z" fill-rule="nonzero"></path><path fill="#000000" d="m101.396904 271.06387l0 0.828125l2.671875 0l0 1.71875l-2.671875 0l0 8.390625l-2.125 0l0 -8.390625l-1.265625 0l0 -1.71875l1.265625 0l0 -0.78125q0 -1.59375 0.953125 -2.53125q0.96875 -0.9375 2.328125 -0.9375q1.359375 0 2.484375 1.0l-0.875 1.5q-0.640625 -0.65625 -1.328125 -0.65625q-0.671875 0 -1.0625 0.421875q-0.375 0.421875 -0.375 1.15625zm6.951309 8.265625q0.90625 0.921875 2.28125 0.921875q1.390625 0 2.296875 -0.921875q0.90625 -0.921875 0.90625 -2.375q0 -1.46875 -0.90625 -2.390625q-0.90625 -0.921875 -2.296875 -0.921875q-1.375 0 -2.28125 0.921875q-0.90625 0.921875 -0.90625 2.390625q0 1.453125 0.90625 2.375zm6.078125 1.3125q-1.515625 1.515625 -3.796875 1.515625q-2.28125 0 -3.796875 -1.515625q-1.515625 -1.515625 -1.515625 -3.6875q0 -2.1875 1.515625 -3.703125q1.515625 -1.515625 3.796875 -1.515625q2.28125 0 3.796875 1.515625q1.53125 1.515625 1.53125 3.703125q0 2.171875 -1.53125 3.6875zm10.788879 -3.28125l0 -5.46875l2.125 0l0 10.109375l-2.125 0l0 -1.84375q-0.515625 0.9375 -1.421875 1.46875q-0.90625 0.53125 -1.9375 0.53125q-1.71875 0 -2.78125 -1.046875q-1.046875 -1.046875 -1.046875 -3.015625l0 -6.203125l2.125 0l0 5.546875q0 2.796875 2.328125 2.796875q1.09375 0 1.90625 -0.734375q0.828125 -0.734375 0.828125 -2.140625zm7.1144485 -0.828125l0 5.46875l-2.140625 0l0 -10.109375l2.140625 0l0 1.84375q0.515625 -0.9375 1.40625 -1.46875q0.90625 -0.53125 1.953125 -0.53125q1.703125 0 2.75 1.046875q1.0625 1.046875 1.0625 3.03125l0 6.1875l-2.125 0l0 -5.546875q0 -2.796875 -2.3125 -2.796875q-1.109375 0 -1.921875 0.734375q-0.8125 0.734375 -0.8125 2.140625zm14.036316 5.625q-1.90625 0 -3.34375 -1.4375q-1.421875 -1.453125 -1.421875 -3.8125q0 -2.359375 1.453125 -3.765625q1.46875 -1.40625 3.484375 -1.40625q2.03125 0 3.265625 1.71875l0 -5.546875l2.140625 0l0 14.09375l-2.140625 0l0 -1.515625q-1.171875 1.671875 -3.4375 1.671875zm-2.640625 -5.15625q0 1.453125 0.9375 2.359375q0.9375 0.90625 2.1875 0.90625q1.25 0 2.125 -0.921875q0.875 -0.921875 0.875 -2.359375q0 -1.4375 -0.875 -2.40625q-0.875 -0.96875 -2.15625 -0.96875q-1.265625 0 -2.1875 0.96875q-0.90625 0.96875 -0.90625 2.421875zm18.305069 5.0l-2.140625 0l0 -10.109375l2.140625 0l0 10.109375zm-2.0 -12.109375q-0.40625 -0.40625 -0.40625 -0.953125q0 -0.5625 0.40625 -0.953125q0.40625 -0.40625 0.953125 -0.40625q0.546875 0 0.9375 0.40625q0.40625 0.390625 0.40625 0.953125q0 0.546875 -0.40625 0.953125q-0.390625 0.390625 -0.9375 0.390625q-0.546875 0 -0.953125 -0.390625zm7.1118164 6.640625l0 5.46875l-2.140625 0l0 -10.109375l2.140625 0l0 1.84375q0.515625 -0.9375 1.40625 -1.46875q0.90625 -0.53125 1.953125 -0.53125q1.703125 0 2.75 1.046875q1.0625 1.046875 1.0625 3.03125l0 6.1875l-2.125 0l0 -5.546875q0 -2.796875 -2.3125 -2.796875q-1.109375 0 -1.921875 0.734375q-0.8125 0.734375 -0.8125 2.140625zm17.648132 -2.921875l0 5.125q0 0.71875 0.375 1.15625q0.390625 0.421875 1.0625 0.421875q0.6875 0 1.328125 -0.671875l0.875 1.5q-1.125 1.015625 -2.484375 1.015625q-1.359375 0 -2.328125 -0.9375q-0.953125 -0.953125 -0.953125 -2.546875l0 -5.0625l-1.265625 0l0 -1.71875l1.265625 0l0 -3.171875l2.125 0l0 3.171875l2.671875 0l0 1.71875l-2.671875 0zm7.3139343 2.921875l0 5.46875l-2.140625 0l0 -14.078125l2.140625 0l0 5.8125q0.453125 -0.9375 1.375 -1.46875q0.921875 -0.53125 1.984375 -0.53125q1.703125 0 2.75 1.046875q1.0625 1.046875 1.0625 3.03125l0 6.1875l-2.125 0l0 -5.546875q0 -2.796875 -2.3125 -2.796875q-1.109375 0 -1.921875 0.734375q-0.8125 0.734375 -0.8125 2.140625zm19.317566 1.34375l-7.921875 0q0.078125 1.109375 1.0 1.78125q0.9375 0.671875 2.140625 0.671875q1.90625 0 2.890625 -1.203125l1.21875 1.34375q-1.640625 1.6875 -4.265625 1.6875q-2.125 0 -3.625 -1.40625q-1.484375 -1.421875 -1.484375 -3.8125q0 -2.390625 1.515625 -3.796875q1.53125 -1.40625 3.59375 -1.40625q2.0625 0 3.5 1.25q1.4375 1.25 1.4375 3.421875l0 1.46875zm-7.921875 -1.671875l5.796875 0q0 -1.265625 -0.796875 -1.953125q-0.796875 -0.6875 -1.96875 -0.6875q-1.15625 0 -2.09375 0.71875q-0.9375 0.703125 -0.9375 1.921875z" fill-rule="nonzero"></path><path fill="#000000" d="m105.64854 300.98575q0 1.4375 -1.046875 2.3125q-1.03125 0.859375 -2.671875 0.859375q-1.109375 0 -2.296875 -0.390625q-1.1875 -0.40625 -2.09375 -1.140625l1.03125 -1.640625q1.765625 1.328125 3.421875 1.328125q0.71875 0 1.125 -0.328125q0.421875 -0.34375 0.421875 -0.859375q0 -0.75 -2.015625 -1.359375q-0.140625 -0.0625 -0.21875 -0.078125q-3.15625 -0.859375 -3.15625 -2.84375q0 -1.40625 1.09375 -2.25q1.09375 -0.859375 2.84375 -0.859375q1.75 0 3.296875 1.03125l-0.796875 1.578125q-1.234375 -0.8125 -2.671875 -0.8125q-0.765625 0 -1.25 0.28125q-0.46875 0.265625 -0.46875 0.8125q0 0.5 0.5 0.71875q0.34375 0.171875 0.953125 0.328125q0.625 0.15625 1.09375 0.3125q0.484375 0.140625 0.921875 0.34375q0.453125 0.1875 0.96875 0.515625q1.015625 0.6875 1.015625 2.140625zm4.6119385 0.34375q0.90625 0.921875 2.28125 0.921875q1.390625 0 2.296875 -0.921875q0.90625 -0.921875 0.90625 -2.375q0 -1.46875 -0.90625 -2.390625q-0.90625 -0.921875 -2.296875 -0.921875q-1.375 0 -2.28125 0.921875q-0.90625 0.921875 -0.90625 2.390625q0 1.453125 0.90625 2.375zm6.078125 1.3125q-1.515625 1.515625 -3.796875 1.515625q-2.28125 0 -3.796875 -1.515625q-1.515625 -1.515625 -1.515625 -3.6875q0 -2.1875 1.515625 -3.703125q1.515625 -1.515625 3.796875 -1.515625q2.28125 0 3.796875 1.515625q1.53125 1.515625 1.53125 3.703125q0 2.171875 -1.53125 3.6875zm10.788879 -3.28125l0 -5.46875l2.1250076 0l0 10.109375l-2.1250076 0l0 -1.84375q-0.515625 0.9375 -1.421875 1.46875q-0.90625 0.53125 -1.9375 0.53125q-1.71875 0 -2.78125 -1.046875q-1.046875 -1.046875 -1.046875 -3.015625l0 -6.203125l2.125 0l0 5.546875q0 2.796875 2.328125 2.796875q1.09375 0 1.90625 -0.734375q0.828125 -0.734375 0.828125 -2.140625zm10.286324 -3.46875q-1.578125 0 -2.375 1.03125q-0.796875 1.015625 -0.796875 2.75l0 4.328125l-2.140625 0l0 -10.109375l2.140625 0l0 2.03125q0.515625 -0.953125 1.390625 -1.546875q0.890625 -0.609375 1.875 -0.640625l0.015625 2.15625q-0.0625 0 -0.109375 0zm6.578415 8.265625q-2.109375 0 -3.625 -1.4375q-1.515625 -1.4375 -1.515625 -3.75q0 -2.328125 1.578125 -3.78125q1.59375 -1.453125 3.875 -1.453125q2.28125 0 3.859375 1.578125l-1.25 1.546875q-1.3125 -1.140625 -2.65625 -1.140625q-1.328125 0 -2.3125 0.890625q-0.96875 0.875 -0.96875 2.28125q0 1.390625 0.96875 2.359375q0.96875 0.96875 2.375 0.96875q1.421875 0 2.6875 -1.296875l1.25 1.375q-1.84375 1.859375 -4.265625 1.859375zm15.667877 -4.28125l-7.921875 0q0.078125 1.109375 1.0 1.78125q0.9375 0.671875 2.140625 0.671875q1.90625 0 2.890625 -1.203125l1.21875 1.34375q-1.640625 1.6875 -4.265625 1.6875q-2.125 0 -3.625 -1.40625q-1.484375 -1.421875 -1.484375 -3.8125q0 -2.390625 1.515625 -3.796875q1.53125 -1.40625 3.59375 -1.40625q2.0625 0 3.5 1.25q1.4375 1.25 1.4375 3.421875l0 1.46875zm-7.921875 -1.671875l5.796875 0q0 -1.265625 -0.796875 -1.953125q-0.796875 -0.6875 -1.96875 -0.6875q-1.15625 0 -2.09375 0.71875q-0.9375 0.703125 -0.9375 1.921875zm19.641388 5.953125q-2.109375 0 -3.625 -1.4375q-1.515625 -1.4375 -1.515625 -3.75q0 -2.328125 1.578125 -3.78125q1.59375 -1.453125 3.875 -1.453125q2.28125 0 3.859375 1.578125l-1.25 1.546875q-1.3125 -1.140625 -2.65625 -1.140625q-1.328125 0 -2.3125 0.890625q-0.96875 0.875 -0.96875 2.28125q0 1.390625 0.96875 2.359375q0.96875 0.96875 2.375 0.96875q1.421875 0 2.6875 -1.296875l1.25 1.375q-1.84375 1.859375 -4.265625 1.859375zm8.636627 -2.828125q0.90625 0.921875 2.28125 0.921875q1.390625 0 2.296875 -0.921875q0.90625 -0.921875 0.90625 -2.375q0 -1.46875 -0.90625 -2.390625q-0.90625 -0.921875 -2.296875 -0.921875q-1.375 0 -2.28125 0.921875q-0.90625 0.921875 -0.90625 2.390625q0 1.453125 0.90625 2.375zm6.078125 1.3125q-1.515625 1.515625 -3.796875 1.515625q-2.28125 0 -3.796875 -1.515625q-1.515625 -1.515625 -1.515625 -3.6875q0 -2.1875 1.515625 -3.703125q1.515625 -1.515625 3.796875 -1.515625q2.28125 0 3.796875 1.515625q1.53125 1.515625 1.53125 3.703125q0 2.171875 -1.53125 3.6875zm7.8357544 1.515625q-1.90625 0 -3.34375 -1.4375q-1.421875 -1.453125 -1.421875 -3.8125q0 -2.359375 1.453125 -3.765625q1.46875 -1.40625 3.484375 -1.40625q2.03125 0 3.265625 1.71875l0 -5.546875l2.140625 0l0 14.09375l-2.140625 0l0 -1.515625q-1.171875 1.671875 -3.4375 1.671875zm-2.640625 -5.15625q0 1.453125 0.9375 2.359375q0.9375 0.90625 2.1875 0.90625q1.25 0 2.125 -0.921875q0.875 -0.921875 0.875 -2.359375q0 -1.4375 -0.875 -2.40625q-0.875 -0.96875 -2.15625 -0.96875q-1.265625 0 -2.1875 0.96875q-0.90625 0.96875 -0.90625 2.421875zm20.458862 0.875l-7.921875 0q0.078125 1.109375 1.0 1.78125q0.9375 0.671875 2.140625 0.671875q1.90625 0 2.890625 -1.203125l1.21875 1.34375q-1.640625 1.6875 -4.265625 1.6875q-2.125 0 -3.625 -1.40625q-1.484375 -1.421875 -1.484375 -3.8125q0 -2.390625 1.515625 -3.796875q1.53125 -1.40625 3.59375 -1.40625q2.0625 0 3.5 1.25q1.4375 1.25 1.4375 3.421875l0 1.46875zm-7.921875 -1.671875l5.796875 0q0 -1.265625 -0.796875 -1.953125q-0.796875 -0.6875 -1.96875 -0.6875q-1.15625 0 -2.09375 0.71875q-0.9375 0.703125 -0.9375 1.921875z" fill-rule="nonzero"></path><path fill="#eefdef" d="m412.89502 146.13911l64.75589 0l0 41.76378l-64.75589 0z" fill-rule="nonzero"></path><path stroke="#000000" stroke-width="2.0" stroke-linejoin="round" stroke-linecap="butt" d="m412.89502 146.13911l64.75589 0l0 41.76378l-64.75589 0z" fill-rule="nonzero"></path><path fill="#000000" d="m438.14325 174.21974q-0.4375 -0.46875 -0.4375 -1.125q0 -0.65625 0.4375 -1.109375q0.453125 -0.453125 1.109375 -0.453125q0.65625 0 1.109375 0.453125q0.46875 0.453125 0.46875 1.109375q0 0.65625 -0.46875 1.125q-0.453125 0.453125 -1.109375 0.453125q-0.65625 0 -1.109375 -0.453125zm5.9718933 0q-0.4375 -0.46875 -0.4375 -1.125q0 -0.65625 0.4375 -1.109375q0.453125 -0.453125 1.109375 -0.453125q0.65625 0 1.109375 0.453125q0.46875 0.453125 0.46875 1.109375q0 0.65625 -0.46875 1.125q-0.453125 0.453125 -1.109375 0.453125q-0.65625 0 -1.109375 -0.453125zm5.9718933 0q-0.4375 -0.46875 -0.4375 -1.125q0 -0.65625 0.4375 -1.109375q0.453125 -0.453125 1.109375 -0.453125q0.65625 0 1.109375 0.453125q0.46875 0.453125 0.46875 1.109375q0 0.65625 -0.46875 1.125q-0.453125 0.453125 -1.109375 0.453125q-0.65625 0 -1.109375 -0.453125z" fill-rule="nonzero"></path><path fill="#000000" fill-opacity="0.0" d="m335.34122 239.14436l184.15744 0l0 71.87401l-184.15744 0z" fill-rule="nonzero"></path><path fill="#000000" d="m380.5046 260.00137l-1.9375 0l0 -1.34375q-1.265625 1.5 -3.375 1.5q-1.578125 0 -2.609375 -0.890625q-1.03125 -0.90625 -1.03125 -2.390625q0 -1.4843903 1.09375 -2.2187653q1.109375 -0.75 2.984375 -0.75l2.765625 0l0 -0.390625q0 -2.015625 -2.25 -2.015625q-1.40625 0 -2.921875 1.03125l-0.953125 -1.328125q1.84375 -1.46875 4.1875 -1.46875q1.78125 0 2.90625 0.90625q1.140625 0.90625 1.140625 2.84375l0 6.5156403zm-2.140625 -3.765625l0 -0.84376526l-2.390625 0q-2.296875 0 -2.296875 1.4375153q0 0.734375 0.5625 1.125q0.578125 0.390625 1.59375 0.390625q1.015625 0 1.765625 -0.5625q0.765625 -0.578125 0.765625 -1.546875zm7.0293274 3.765625l-2.140625 0l0 -14.093765l2.140625 0l0 14.093765zm5.1118164 0l-2.140625 0l0 -14.093765l2.140625 0l0 14.093765zm12.567383 0.15625q-2.109375 0 -3.625 -1.4375q-1.515625 -1.4375 -1.515625 -3.7500153q0 -2.328125 1.578125 -3.78125q1.59375 -1.453125 3.875 -1.453125q2.28125 0 3.859375 1.578125l-1.25 1.546875q-1.3125 -1.140625 -2.65625 -1.140625q-1.328125 0 -2.3125 0.890625q-0.96875 0.875 -0.96875 2.28125q0 1.3906403 0.96875 2.3593903q0.96875 0.96875 2.375 0.96875q1.421875 0 2.6875 -1.296875l1.25 1.375q-1.84375 1.859375 -4.265625 1.859375zm8.636627 -2.828125q0.90625 0.921875 2.28125 0.921875q1.390625 0 2.296875 -0.921875q0.90625 -0.921875 0.90625 -2.3750153q0 -1.46875 -0.90625 -2.390625q-0.90625 -0.921875 -2.296875 -0.921875q-1.375 0 -2.28125 0.921875q-0.90625 0.921875 -0.90625 2.390625q0 1.4531403 0.90625 2.3750153zm6.078125 1.3125q-1.515625 1.515625 -3.796875 1.515625q-2.28125 0 -3.796875 -1.515625q-1.515625 -1.515625 -1.515625 -3.6875153q0 -2.1875 1.515625 -3.703125q1.515625 -1.515625 3.796875 -1.515625q2.28125 0 3.796875 1.515625q1.53125 1.515625 1.53125 3.703125q0 2.1718903 -1.53125 3.6875153zm5.8513794 -4.1093903l0 5.4687653l-2.140625 0l0 -10.10939l2.140625 0l0 1.84375q0.515625 -0.9375 1.40625 -1.46875q0.90625 -0.53125 1.953125 -0.53125q1.703125 0 2.75 1.046875q1.0625 1.046875 1.0625 3.03125l0 6.1875153l-2.125 0l0 -5.5468903q0 -2.796875 -2.3125 -2.796875q-1.109375 0 -1.921875 0.734375q-0.8125 0.734375 -0.8125 2.140625zm14.395691 5.6250153q-2.109375 0 -3.625 -1.4375q-1.515625 -1.4375 -1.515625 -3.7500153q0 -2.328125 1.578125 -3.78125q1.59375 -1.453125 3.875 -1.453125q2.28125 0 3.859375 1.578125l-1.25 1.546875q-1.3125 -1.140625 -2.65625 -1.140625q-1.328125 0 -2.3125 0.890625q-0.96875 0.875 -0.96875 2.28125q0 1.3906403 0.96875 2.3593903q0.96875 0.96875 2.375 0.96875q1.421875 0 2.6875 -1.296875l1.25 1.375q-1.84375 1.859375 -4.265625 1.859375zm15.667877 -4.2812653l-7.921875 0q0.078125 1.1093903 1.0 1.7812653q0.9375 0.671875 2.140625 0.671875q1.90625 0 2.890625 -1.203125l1.21875 1.34375q-1.640625 1.6875 -4.265625 1.6875q-2.125 0 -3.625 -1.40625q-1.484375 -1.421875 -1.484375 -3.8125153q0 -2.390625 1.515625 -3.796875q1.53125 -1.40625 3.59375 -1.40625q2.0625 0 3.5 1.25q1.4375 1.25 1.4375 3.421875l0 1.46875zm-7.921875 -1.671875l5.796875 0q0 -1.265625 -0.796875 -1.953125q-0.796875 -0.6875 -1.96875 -0.6875q-1.15625 0 -2.09375 0.71875q-0.9375 0.703125 -0.9375 1.921875zm15.467072 -4.46875q2.03125 0 3.4687805 1.40625q1.453125 1.40625 1.453125 3.75q0 2.3281403 -1.4375 3.7968903q-1.4375305 1.46875 -3.3437805 1.46875q-1.90625 0 -3.421875 -1.671875l0 5.203125l-2.140625 0l0 -13.79689l2.140625 0l0 1.765625q1.25 -1.921875 3.28125 -1.921875zm-3.328125 5.234375q0 1.4375153 0.875 2.3593903q0.875 0.921875 2.125 0.921875q1.265625 0 2.1875 -0.90625q0.9375305 -0.921875 0.9375305 -2.3750153q0 -1.453125 -0.9219055 -2.40625q-0.90625 -0.953125 -2.1875 -0.953125q-1.265625 0 -2.140625 0.953125q-0.875 0.953125 -0.875 2.40625zm13.068268 -3.359375l0 5.1250153q0 0.71875 0.375 1.15625q0.390625 0.421875 1.0625 0.421875q0.6875 0 1.328125 -0.671875l0.875 1.5q-1.125 1.015625 -2.484375 1.015625q-1.359375 0 -2.328125 -0.9375q-0.953125 -0.953125 -0.953125 -2.546875l0 -5.0625153l-1.265625 0l0 -1.71875l1.265625 0l0 -3.171875l2.125 0l0 3.171875l2.671875 0l0 1.71875l-2.671875 0zm12.376434 5.3750153q0 1.4375 -1.046875 2.3125q-1.03125 0.859375 -2.671875 0.859375q-1.109375 0 -2.296875 -0.390625q-1.1875 -0.40625 -2.09375 -1.140625l1.03125 -1.640625q1.765625 1.328125 3.421875 1.328125q0.71875 0 1.125 -0.328125q0.421875 -0.34375 0.421875 -0.859375q0 -0.75 -2.015625 -1.3593903q-0.140625 -0.0625 -0.21875 -0.078125q-3.15625 -0.859375 -3.15625 -2.84375q0 -1.40625 1.09375 -2.25q1.09375 -0.859375 2.84375 -0.859375q1.75 0 3.296875 1.03125l-0.796875 1.578125q-1.234375 -0.8125 -2.671875 -0.8125q-0.765625 0 -1.25 0.28125q-0.46875 0.265625 -0.46875 0.8125q0 0.5 0.5 0.71875q0.34375 0.171875 0.953125 0.328125q0.625 0.15625 1.09375 0.3125q0.484375 0.140625 0.921875 0.34375q0.453125 0.1875 0.96875 0.515625q1.015625 0.6875 1.015625 2.1406403z" fill-rule="nonzero"></path><path fill="#000000" d="m370.04886 273.892q-1.578125 0 -2.375 1.03125q-0.796875 1.015625 -0.796875 2.75l0 4.328125l-2.140625 0l0 -10.109375l2.140625 0l0 2.03125q0.515625 -0.953125 1.390625 -1.546875q0.890625 -0.609375 1.875 -0.640625l0.015625 2.15625q-0.0625 0 -0.109375 0zm11.500305 3.984375l-7.921875 0q0.078125 1.109375 1.0 1.78125q0.9375 0.671875 2.140625 0.671875q1.90625 0 2.890625 -1.203125l1.21875 1.34375q-1.640625 1.6875 -4.265625 1.6875q-2.125 0 -3.625 -1.40625q-1.484375 -1.421875 -1.484375 -3.8125q0 -2.390625 1.515625 -3.796875q1.53125 -1.40625 3.59375 -1.40625q2.0625 0 3.5 1.25q1.4375 1.25 1.4375 3.421875l0 1.46875zm-7.921875 -1.671875l5.796875 0q0 -1.265625 -0.796875 -1.953125q-0.796875 -0.6875 -1.96875 -0.6875q-1.15625 0 -2.09375 0.71875q-0.9375 0.703125 -0.9375 1.921875zm12.185822 5.796875l-2.140625 0l0 -14.09375l2.140625 0l0 14.09375zm11.174316 0l-1.9375 0l0 -1.34375q-1.265625 1.5 -3.375 1.5q-1.578125 0 -2.609375 -0.890625q-1.03125 -0.90625 -1.03125 -2.390625q0 -1.484375 1.09375 -2.21875q1.109375 -0.75 2.984375 -0.75l2.765625 0l0 -0.390625q0 -2.015625 -2.25 -2.015625q-1.40625 0 -2.921875 1.03125l-0.953125 -1.328125q1.84375 -1.46875 4.1875 -1.46875q1.78125 0 2.90625 0.90625q1.140625 0.90625 1.140625 2.84375l0 6.515625zm-2.140625 -3.765625l0 -0.84375l-2.390625 0q-2.296875 0 -2.296875 1.4375q0 0.734375 0.5625 1.125q0.578125 0.390625 1.59375 0.390625q1.015625 0 1.765625 -0.5625q0.765625 -0.578125 0.765625 -1.546875zm7.5137024 -4.625l0 5.125q0 0.71875 0.375 1.15625q0.390625 0.421875 1.0625 0.421875q0.6875 0 1.328125 -0.671875l0.875 1.5q-1.125 1.015625 -2.484375 1.015625q-1.359375 0 -2.328125 -0.9375q-0.953125 -0.953125 -0.953125 -2.546875l0 -5.0625l-1.265625 0l0 -1.71875l1.265625 0l0 -3.171875l2.125 0l0 3.171875l2.671875 0l0 1.71875l-2.671875 0zm14.579559 4.265625l-7.921875 0q0.078125 1.109375 1.0 1.78125q0.9375 0.671875 2.140625 0.671875q1.90625 0 2.890625 -1.203125l1.21875 1.34375q-1.640625 1.6875 -4.265625 1.6875q-2.125 0 -3.625 -1.40625q-1.484375 -1.421875 -1.484375 -3.8125q0 -2.390625 1.515625 -3.796875q1.53125 -1.40625 3.59375 -1.40625q2.0625 0 3.5 1.25q1.4375 1.25 1.4375 3.421875l0 1.46875zm-7.921875 -1.671875l5.796875 0q0 -1.265625 -0.796875 -1.953125q-0.796875 -0.6875 -1.96875 -0.6875q-1.15625 0 -2.09375 0.71875q-0.9375 0.703125 -0.9375 1.921875zm14.170197 5.953125q-1.90625 0 -3.34375 -1.4375q-1.421875 -1.453125 -1.421875 -3.8125q0 -2.359375 1.453125 -3.765625q1.46875 -1.40625 3.484375 -1.40625q2.03125 0 3.265625 1.71875l0 -5.546875l2.140625 0l0 14.09375l-2.140625 0l0 -1.515625q-1.171875 1.671875 -3.4375 1.671875zm-2.640625 -5.15625q0 1.453125 0.9375 2.359375q0.9375 0.90625 2.1875 0.90625q1.25 0 2.125 -0.921875q0.875 -0.921875 0.875 -2.359375q0 -1.4375 -0.875 -2.40625q-0.875 -0.96875 -2.15625 -0.96875q-1.265625 0 -2.1875 0.96875q-0.90625 0.96875 -0.90625 2.421875zm18.78946 -3.390625l0 5.125q0 0.71875 0.375 1.15625q0.390625 0.421875 1.0625 0.421875q0.6875 0 1.328125 -0.671875l0.875 1.5q-1.125 1.015625 -2.484375 1.015625q-1.359375 0 -2.328125 -0.9375q-0.953125 -0.953125 -0.953125 -2.546875l0 -5.0625l-1.265625 0l0 -1.71875l1.265625 0l0 -3.171875l2.125 0l0 3.171875l2.671875 0l0 1.71875l-2.671875 0zm7.5483093 5.71875q0.90625 0.921875 2.28125 0.921875q1.390625 0 2.296875 -0.921875q0.90625 -0.921875 0.90625 -2.375q0 -1.46875 -0.90625 -2.390625q-0.90625 -0.921875 -2.296875 -0.921875q-1.375 0 -2.28125 0.921875q-0.90625 0.921875 -0.90625 2.390625q0 1.453125 0.90625 2.375zm6.078125 1.3125q-1.515625 1.515625 -3.796875 1.515625q-2.28125 0 -3.796875 -1.515625q-1.515625 -1.515625 -1.515625 -3.6875q0 -2.1875 1.515625 -3.703125q1.515625 -1.515625 3.796875 -1.515625q2.28125 0 3.796875 1.515625q1.53125 1.515625 1.53125 3.703125q0 2.171875 -1.53125 3.6875zm11.447571 -7.03125l0 5.125q0 0.71875 0.375 1.15625q0.390625 0.421875 1.0625 0.421875q0.6875 0 1.328125 -0.671875l0.875 1.5q-1.125 1.015625 -2.484375 1.015625q-1.359375 0 -2.328125 -0.9375q-0.953125 -0.953125 -0.953125 -2.546875l0 -5.0625l-1.265625 0l0 -1.71875l1.265625 0l0 -3.171875l2.125 0l0 3.171875l2.671875 0l0 1.71875l-2.671875 0zm7.3139343 2.921875l0 5.46875l-2.140625 0l0 -14.078125l2.140625 0l0 5.8125q0.453125 -0.9375 1.375 -1.46875q0.921875 -0.53125 1.984375 -0.53125q1.703125 0 2.75 1.046875q1.0625 1.046875 1.0625 3.03125l0 6.1875l-2.125 0l0 -5.546875q0 -2.796875 -2.3125 -2.796875q-1.109375 0 -1.921875 0.734375q-0.8125 0.734375 -0.8125 2.140625zm19.317566 1.34375l-7.921875 0q0.078125 1.109375 1.0 1.78125q0.9375 0.671875 2.140625 0.671875q1.90625 0 2.890625 -1.203125l1.21875 1.34375q-1.640625 1.6875 -4.265625 1.6875q-2.125 0 -3.625 -1.40625q-1.484375 -1.421875 -1.484375 -3.8125q0 -2.390625 1.515625 -3.796875q1.53125 -1.40625 3.59375 -1.40625q2.0625 0 3.5 1.25q1.4375 1.25 1.4375 3.421875l0 1.46875zm-7.921875 -1.671875l5.796875 0q0 -1.265625 -0.796875 -1.953125q-0.796875 -0.6875 -1.96875 -0.6875q-1.15625 0 -2.09375 0.71875q-0.9375 0.703125 -0.9375 1.921875z" fill-rule="nonzero"></path><path fill="#000000" d="m364.54272 293.73575q2.03125 0 3.46875 1.40625q1.453125 1.40625 1.453125 3.75q0 2.328125 -1.4375 3.796875q-1.4375 1.46875 -3.34375 1.46875q-1.90625 0 -3.421875 -1.671875l0 5.203125l-2.140625 0l0 -13.796875l2.140625 0l0 1.765625q1.25 -1.921875 3.28125 -1.921875zm-3.328125 5.234375q0 1.4375 0.875 2.359375q0.875 0.921875 2.125 0.921875q1.265625 0 2.1875 -0.90625q0.9375 -0.921875 0.9375 -2.375q0 -1.453125 -0.921875 -2.40625q-0.90625 -0.953125 -2.1875 -0.953125q-1.265625 0 -2.140625 0.953125q-0.875 0.953125 -0.875 2.40625zm15.755737 -3.078125q-1.578125 0 -2.375 1.03125q-0.796875 1.015625 -0.796875 2.75l0 4.328125l-2.140625 0l0 -10.109375l2.140625 0l0 2.03125q0.515625 -0.953125 1.390625 -1.546875q0.890625 -0.609375 1.875 -0.640625l0.015625 2.15625q-0.0625 0 -0.109375 0zm4.469055 5.4375q0.90625 0.921875 2.28125 0.921875q1.390625 0 2.296875 -0.921875q0.90625 -0.921875 0.90625 -2.375q0 -1.46875 -0.90625 -2.390625q-0.90625 -0.921875 -2.296875 -0.921875q-1.375 0 -2.28125 0.921875q-0.90625 0.921875 -0.90625 2.390625q0 1.453125 0.90625 2.375zm6.078125 1.3125q-1.515625 1.515625 -3.796875 1.515625q-2.28125 0 -3.796875 -1.515625q-1.515625 -1.515625 -1.515625 -3.6875q0 -2.1875 1.515625 -3.703125q1.515625 -1.515625 3.796875 -1.515625q2.28125 0 3.796875 1.515625q1.53125 1.515625 1.53125 3.703125q0 2.171875 -1.53125 3.6875zm3.7107544 1.828125l0 -10.578125l2.140625 0l0 10.65625q0 1.59375 -0.96875 2.53125q-0.953125 0.953125 -2.3125 0.953125q-1.359375 0 -2.484375 -1.015625l0.984375 -1.59375q0.65625 0.625 1.3125 0.625q0.65625 0 0.984375 -0.421875q0.34375 -0.40625 0.34375 -1.15625zm0.09375 -12.578125q-0.390625 -0.40625 -0.390625 -0.953125q0 -0.5625 0.390625 -0.953125q0.40625 -0.40625 0.953125 -0.40625q0.5625 0 0.953125 0.40625q0.40625 0.390625 0.40625 0.953125q0 0.546875 -0.40625 0.953125q-0.390625 0.390625 -0.953125 0.390625q-0.546875 0 -0.953125 -0.390625zm14.424316 7.984375l-7.921875 0q0.078125 1.109375 1.0 1.78125q0.9375 0.671875 2.140625 0.671875q1.90625 0 2.890625 -1.203125l1.21875 1.34375q-1.640625 1.6875 -4.265625 1.6875q-2.125 0 -3.625 -1.40625q-1.484375 -1.421875 -1.484375 -3.8125q0 -2.390625 1.515625 -3.796875q1.53125 -1.40625 3.59375 -1.40625q2.0625 0 3.5 1.25q1.4375 1.25 1.4375 3.421875l0 1.46875zm-7.921875 -1.671875l5.796875 0q0 -1.265625 -0.796875 -1.953125q-0.796875 -0.6875 -1.96875 -0.6875q-1.15625 0 -2.09375 0.71875q-0.9375 0.703125 -0.9375 1.921875zm14.529572 5.953125q-2.109375 0 -3.625 -1.4375q-1.515625 -1.4375 -1.515625 -3.75q0 -2.328125 1.578125 -3.78125q1.59375 -1.453125 3.875 -1.453125q2.28125 0 3.859375 1.578125l-1.25 1.546875q-1.3125 -1.140625 -2.65625 -1.140625q-1.328125 0 -2.3125 0.890625q-0.96875 0.875 -0.96875 2.28125q0 1.390625 0.96875 2.359375q0.96875 0.96875 2.375 0.96875q1.421875 0 2.6875 -1.296875l1.25 1.375q-1.84375 1.859375 -4.265625 1.859375zm8.886627 -8.546875l0 5.125q0 0.71875 0.375 1.15625q0.390625 0.421875 1.0625 0.421875q0.6875 0 1.328125 -0.671875l0.875 1.5q-1.125 1.015625 -2.484375 1.015625q-1.359375 0 -2.328125 -0.9375q-0.953125 -0.953125 -0.953125 -2.546875l0 -5.0625l-1.265625 0l0 -1.71875l1.265625 0l0 -3.171875l2.125 0l0 3.171875l2.671875 0l0 1.71875l-2.671875 0zm14.175751 8.546875q-1.875 0 -3.1875 -1.03125q-1.296875 -1.046875 -1.296875 -2.84375q0 -2.15625 3.109375 -3.828125q-0.78125 -0.890625 -1.09375 -1.453125q-0.3125 -0.578125 -0.3125 -1.453125q0 -1.515625 1.125 -2.328125q1.125 -0.828125 2.640625 -0.828125q1.515625 0 2.578125 0.78125q1.0625 0.78125 1.0625 2.1875q0 1.875 -3.03125 3.546875q1.515625 1.875 2.46875 2.859375q0.578125 -0.875 0.90625 -2.03125l1.5625 1.09375q-0.5 1.3125 -1.125 2.296875q0.765625 0.78125 1.9375 1.890625l-1.421875 1.328125l-1.75 -1.734375q-1.671875 1.546875 -4.171875 1.546875zm-2.375 -3.78125q0 0.84375 0.71875 1.390625q0.71875 0.546875 1.90625 0.546875q1.203125 0 2.5625 -1.109375q-1.921875 -2.015625 -3.046875 -3.375q-2.140625 1.15625 -2.140625 2.546875zm3.34375 -8.28125q-0.640625 0 -1.140625 0.40625q-0.5 0.390625 -0.5 0.921875q0 0.53125 0.25 0.953125q0.265625 0.421875 0.890625 1.1875q2.140625 -1.0625 2.140625 -1.96875q0 -0.765625 -0.5 -1.125q-0.5 -0.375 -1.140625 -0.375zm15.82486 3.515625l0 5.125q0 0.71875 0.375 1.15625q0.390625 0.421875 1.0625 0.421875q0.6875 0 1.328125 -0.671875l0.875 1.5q-1.125 1.015625 -2.484375 1.015625q-1.359375 0 -2.328125 -0.9375q-0.953125 -0.953125 -0.953125 -2.546875l0 -5.0625l-1.265625 0l0 -1.71875l1.265625 0l0 -3.171875l2.125 0l0 3.171875l2.671875 0l0 1.71875l-2.671875 0zm14.579559 4.265625l-7.921875 0q0.078125 1.109375 1.0 1.78125q0.9375 0.671875 2.140625 0.671875q1.90625 0 2.890625 -1.203125l1.21875 1.34375q-1.640625 1.6875 -4.265625 1.6875q-2.125 0 -3.625 -1.40625q-1.484375 -1.421875 -1.484375 -3.8125q0 -2.390625 1.515625 -3.796875q1.53125 -1.40625 3.59375 -1.40625q2.0625 0 3.5 1.25q1.4375 1.25 1.4375 3.421875l0 1.46875zm-7.921875 -1.671875l5.796875 0q0 -1.265625 -0.796875 -1.953125q-0.796875 -0.6875 -1.96875 -0.6875q-1.15625 0 -2.09375 0.71875q-0.9375 0.703125 -0.9375 1.921875zm18.248322 5.796875l-1.9375 0l0 -1.34375q-1.265625 1.5 -3.375 1.5q-1.578125 0 -2.609375 -0.890625q-1.03125 -0.90625 -1.03125 -2.390625q0 -1.484375 1.09375 -2.21875q1.109375 -0.75 2.984375 -0.75l2.765625 0l0 -0.390625q0 -2.015625 -2.25 -2.015625q-1.40625 0 -2.921875 1.03125l-0.953125 -1.328125q1.84375 -1.46875 4.1875 -1.46875q1.78125 0 2.90625 0.90625q1.140625 0.90625 1.140625 2.84375l0 6.515625zm-2.140625 -3.765625l0 -0.84375l-2.390625 0q-2.296875 0 -2.296875 1.4375q0 0.734375 0.5625 1.125q0.578125 0.390625 1.59375 0.390625q1.015625 0 1.765625 -0.5625q0.765625 -0.578125 0.765625 -1.546875zm7.029358 -1.703125l0 5.46875l-2.140625 0l0 -10.109375l2.140625 0l0 1.84375q0.453125 -0.9375 1.375 -1.46875q0.921875 -0.53125 1.984375 -0.53125q2.390625 0 3.25 1.984375q1.5 -1.984375 3.734375 -1.984375q1.71875 0 2.765625 1.046875q1.0625 1.046875 1.0625 3.03125l0 6.1875l-2.125 0l0 -5.546875q0 -2.796875 -2.328125 -2.796875q-1.078125 0 -1.890625 0.703125q-0.796875 0.6875 -0.84375 2.015625l0 5.625l-2.125 0l0 -5.546875q0 -1.4375 -0.515625 -2.109375q-0.515625 -0.6875 -1.625 -0.6875q-1.09375 0 -1.90625 0.734375q-0.8125 0.734375 -0.8125 2.140625z" fill-rule="nonzero"></path><path fill="#000000" fill-opacity="0.0" d="m229.63255 155.45407l123.464554 -25.826767" fill-rule="nonzero"></path><path stroke="#e87162" stroke-width="3.0" stroke-linejoin="round" stroke-linecap="butt" d="m229.63255 155.45407l113.40111 -23.721664" fill-rule="evenodd"></path><path fill="#e87162" stroke="#e87162" stroke-width="3.0" stroke-linecap="butt" d="m343.03366 131.7324l-2.6114807 3.9930573l8.382141 -5.20018l-9.763702 -1.4043732z" fill-rule="evenodd"></path><path fill="#000000" fill-opacity="0.0" d="m270.73752 88.96588l82.36221 0l0 45.606293l-82.36221 0z" fill-rule="nonzero"></path><path fill="#e24a37" d="m296.1594 128.68588l-3.140625 0l-3.046875 -6.53125q-0.34375 -0.75 -0.703125 -1.234375q-0.359375 -0.5 -0.78125 -0.78125q-0.40625 -0.296875 -0.90625 -0.421875q-0.484375 -0.125 -1.09375 -0.125l-1.3125 0l0 9.09375l-2.78125 0l0 -20.421875l5.46875 0q1.78125 0 3.0625 0.390625q1.28125 0.390625 2.09375 1.09375q0.828125 0.703125 1.203125 1.703125q0.390625 0.984375 0.390625 2.1875q0 0.953125 -0.28125 1.8125q-0.28125 0.84375 -0.84375 1.546875q-0.546875 0.6875 -1.375 1.203125q-0.8125 0.5 -1.875 0.75q0.859375 0.296875 1.453125 1.046875q0.609375 0.734375 1.234375 1.96875l3.234375 6.71875zm-4.453125 -14.8125q0 -1.640625 -1.03125 -2.453125q-1.015625 -0.8125 -2.875 -0.8125l-2.625 0l0 6.75l2.25 0q0.984375 0 1.765625 -0.21875q0.796875 -0.234375 1.34375 -0.671875q0.5625 -0.453125 0.859375 -1.09375q0.3125 -0.65625 0.3125 -1.5z" fill-rule="nonzero"></path><path fill="#000000" fill-opacity="0.0" d="m198.94489 353.51706l184.15747 0l0 71.87402l-184.15747 0z" fill-rule="nonzero"></path><path fill="#000000" d="m234.04518 372.65033q-2.109375 0 -3.625 -1.4375q-1.515625 -1.4375 -1.515625 -3.75q0 -2.328125 1.578125 -3.78125q1.59375 -1.453125 3.875 -1.453125q2.28125 0 3.859375 1.578125l-1.25 1.546875q-1.3125 -1.140625 -2.65625 -1.140625q-1.328125 0 -2.3125 0.890625q-0.96875 0.875 -0.96875 2.28125q0 1.390625 0.96875 2.359375q0.96875 0.96875 2.375 0.96875q1.421875 0 2.6875 -1.296875l1.25 1.375q-1.84375 1.859375 -4.265625 1.859375zm8.636627 -2.828125q0.90625 0.921875 2.28125 0.921875q1.390625 0 2.296875 -0.921875q0.90625 -0.921875 0.90625 -2.375q0 -1.46875 -0.90625 -2.390625q-0.90625 -0.921875 -2.296875 -0.921875q-1.375 0 -2.28125 0.921875q-0.90625 0.921875 -0.90625 2.390625q0 1.453125 0.90625 2.375zm6.078125 1.3125q-1.515625 1.515625 -3.796875 1.515625q-2.28125 0 -3.796875 -1.515625q-1.515625 -1.515625 -1.515625 -3.6875q0 -2.1875 1.515625 -3.703125q1.515625 -1.515625 3.796875 -1.515625q2.28125 0 3.796875 1.515625q1.53125 1.515625 1.53125 3.703125q0 2.171875 -1.53125 3.6875zm5.8513794 -4.109375l0 5.46875l-2.140625 0l0 -10.109375l2.140625 0l0 1.84375q0.515625 -0.9375 1.4062347 -1.46875q0.90625 -0.53125 1.953125 -0.53125q1.703125 0 2.75 1.046875q1.0625 1.046875 1.0625 3.03125l0 6.1875l-2.125 0l0 -5.546875q0 -2.796875 -2.3125 -2.796875q-1.109375 0 -1.9218597 0.734375q-0.8125 0.734375 -0.8125 2.140625zm14.395676 5.625q-2.109375 0 -3.625 -1.4375q-1.515625 -1.4375 -1.515625 -3.75q0 -2.328125 1.578125 -3.78125q1.59375 -1.453125 3.875 -1.453125q2.28125 0 3.859375 1.578125l-1.25 1.546875q-1.3125 -1.140625 -2.65625 -1.140625q-1.328125 0 -2.3125 0.890625q-0.96875 0.875 -0.96875 2.28125q0 1.390625 0.96875 2.359375q0.96875 0.96875 2.375 0.96875q1.421875 0 2.6875 -1.296875l1.25 1.375q-1.84375 1.859375 -4.265625 1.859375zm15.667877 -4.28125l-7.921875 0q0.078125 1.109375 1.0 1.78125q0.9375 0.671875 2.140625 0.671875q1.90625 0 2.890625 -1.203125l1.21875 1.34375q-1.640625 1.6875 -4.265625 1.6875q-2.125 0 -3.625 -1.40625q-1.484375 -1.421875 -1.484375 -3.8125q0 -2.390625 1.515625 -3.796875q1.53125 -1.40625 3.59375 -1.40625q2.0625 0 3.5 1.25q1.4375 1.25 1.4375 3.421875l0 1.46875zm-7.921875 -1.671875l5.796875 0q0 -1.265625 -0.796875 -1.953125q-0.796875 -0.6875 -1.96875 -0.6875q-1.15625 0 -2.09375 0.71875q-0.9375 0.703125 -0.9375 1.921875zm15.467072 -4.46875q2.03125 0 3.46875 1.40625q1.453125 1.40625 1.453125 3.75q0 2.328125 -1.4375 3.796875q-1.4375 1.46875 -3.34375 1.46875q-1.90625 0 -3.421875 -1.671875l0 5.203125l-2.140625 0l0 -13.796875l2.140625 0l0 1.765625q1.25 -1.921875 3.28125 -1.921875zm-3.328125 5.234375q0 1.4375 0.875 2.359375q0.875 0.921875 2.125 0.921875q1.265625 0 2.1875 -0.90625q0.9375 -0.921875 0.9375 -2.375q0 -1.453125 -0.921875 -2.40625q-0.90625 -0.953125 -2.1875 -0.953125q-1.265625 0 -2.140625 0.953125q-0.875 0.953125 -0.875 2.40625zm13.068268 -3.359375l0 5.125q0 0.71875 0.375 1.15625q0.390625 0.421875 1.0625 0.421875q0.6875 0 1.328125 -0.671875l0.875 1.5q-1.125 1.015625 -2.484375 1.015625q-1.359375 0 -2.328125 -0.9375q-0.953125 -0.953125 -0.953125 -2.546875l0 -5.0625l-1.265625 0l0 -1.71875l1.265625 0l0 -3.171875l2.125 0l0 3.171875l2.671875 0l0 1.71875l-2.671875 0z" fill-rule="nonzero"></path><path fill="#000000" d="m318.6047 369.49408q1.8125 0 3.25 -1.796875l2.125 2.390625q-2.484375 2.59375 -5.390625 2.59375q-2.90625 0 -4.921875 -1.828125q-2.0 -1.84375 -2.0 -4.796875q0 -2.96875 2.03125 -4.828125q2.03125 -1.859375 4.8125 -1.859375q1.390625 0 2.8125 0.578125q1.4375 0.578125 2.515625 1.703125l-1.875 2.4375q-0.625 -0.734375 -1.53125 -1.140625q-0.890625 -0.40625 -1.78125 -0.40625q-1.40625 0 -2.4375 0.921875q-1.015625 0.921875 -1.015625 2.5625q0 1.640625 1.015625 2.5625q1.03125 0.90625 2.390625 0.90625zm6.8273315 -13.78125l6.78125 0l0 16.78125l-3.59375 0l0 -13.578125l-3.1875 0l0 -3.203125z" fill-rule="nonzero"></path><path fill="#000000" d="m343.1377 372.49408l-2.140625 0l0 -10.109375l2.140625 0l0 10.109375zm-2.0 -12.109375q-0.40625 -0.40625 -0.40625 -0.953125q0 -0.5625 0.40625 -0.953125q0.40625 -0.40625 0.953125 -0.40625q0.546875 0 0.9375 0.40625q0.40625 0.390625 0.40625 0.953125q0 0.546875 -0.40625 0.953125q-0.390625 0.390625 -0.9375 0.390625q-0.546875 0 -0.953125 -0.390625zm12.174316 9.09375q0 1.4375 -1.046875 2.3125q-1.03125 0.859375 -2.671875 0.859375q-1.109375 0 -2.296875 -0.390625q-1.1875 -0.40625 -2.09375 -1.140625l1.03125 -1.640625q1.765625 1.328125 3.421875 1.328125q0.71875 0 1.125 -0.328125q0.421875 -0.34375 0.421875 -0.859375q0 -0.75 -2.015625 -1.359375q-0.140625 -0.0625 -0.21875 -0.078125q-3.15625 -0.859375 -3.15625 -2.84375q0 -1.40625 1.09375 -2.25q1.09375 -0.859375 2.84375 -0.859375q1.75 0 3.296875 1.03125l-0.796875 1.578125q-1.234375 -0.8125 -2.671875 -0.8125q-0.765625 0 -1.25 0.28125q-0.46875 0.265625 -0.46875 0.8125q0 0.5 0.5 0.71875q0.34375 0.171875 0.953125 0.328125q0.625 0.15625 1.09375 0.3125q0.484375 0.140625 0.921875 0.34375q0.453125 0.1875 0.96875 0.515625q1.015625 0.6875 1.015625 2.140625z" fill-rule="nonzero"></path><path fill="#000000" d="m226.04077 388.26468q-1.578125 0 -2.375 1.03125q-0.796875 1.015625 -0.796875 2.75l0 4.328125l-2.140625 0l0 -10.109375l2.140625 0l0 2.03125q0.515625 -0.953125 1.390625 -1.546875q0.890625 -0.609375 1.875 -0.640625l0.015625 2.15625q-0.0625 0 -0.109375 0zm11.50029 3.984375l-7.921875 0q0.078125 1.109375 1.0 1.78125q0.9375 0.671875 2.140625 0.671875q1.90625 0 2.890625 -1.203125l1.21875 1.34375q-1.640625 1.6875 -4.265625 1.6875q-2.125 0 -3.625 -1.40625q-1.484375 -1.421875 -1.484375 -3.8125q0 -2.390625 1.515625 -3.796875q1.53125 -1.40625 3.59375 -1.40625q2.0625 0 3.5 1.25q1.4375 1.25 1.4375 3.421875l0 1.46875zm-7.921875 -1.671875l5.796875 0q0 -1.265625 -0.796875 -1.953125q-0.796875 -0.6875 -1.96875 -0.6875q-1.15625 0 -2.09375 0.71875q-0.9375 0.703125 -0.9375 1.921875zm15.467072 -4.46875q2.03125 0 3.46875 1.40625q1.453125 1.40625 1.453125 3.75q0 2.328125 -1.4375 3.796875q-1.4375 1.46875 -3.34375 1.46875q-1.90625 0 -3.421875 -1.671875l0 5.203125l-2.140625 0l0 -13.796875l2.140625 0l0 1.765625q1.25 -1.921875 3.28125 -1.921875zm-3.328125 5.234375q0 1.4375 0.875 2.359375q0.875 0.921875 2.125 0.921875q1.265625 0 2.1875 -0.90625q0.9375 -0.921875 0.9375 -2.375q0 -1.453125 -0.921875 -2.40625q-0.90625 -0.953125 -2.1875 -0.953125q-1.265625 0 -2.140625 0.953125q-0.875 0.953125 -0.875 2.40625zm15.755753 -3.078125q-1.578125 0 -2.375 1.03125q-0.796875 1.015625 -0.796875 2.75l0 4.328125l-2.140625 0l0 -10.109375l2.140625 0l0 2.03125q0.515625 -0.953125 1.390625 -1.546875q0.890625 -0.609375 1.875 -0.640625l0.015625 2.15625q-0.0625 0 -0.109375 0zm11.500305 3.984375l-7.921875 0q0.078125 1.109375 1.0 1.78125q0.9375 0.671875 2.140625 0.671875q1.90625 0 2.890625 -1.203125l1.21875 1.34375q-1.640625 1.6875 -4.265625 1.6875q-2.125 0 -3.625 -1.40625q-1.484375 -1.421875 -1.484375 -3.8125q0 -2.390625 1.515625 -3.796875q1.53125 -1.40625 3.59375 -1.40625q2.0625 0 3.5 1.25q1.4375 1.25 1.4375 3.421875l0 1.46875zm-7.921875 -1.671875l5.796875 0q0 -1.265625 -0.796875 -1.953125q-0.796875 -0.6875 -1.96875 -0.6875q-1.15625 0 -2.09375 0.71875q-0.9375 0.703125 -0.9375 1.921875zm17.248322 2.78125q0 1.4375 -1.046875 2.3125q-1.03125 0.859375 -2.671875 0.859375q-1.109375 0 -2.296875 -0.390625q-1.1875 -0.40625 -2.09375 -1.140625l1.03125 -1.640625q1.765625 1.328125 3.421875 1.328125q0.71875 0 1.125 -0.328125q0.421875 -0.34375 0.421875 -0.859375q0 -0.75 -2.015625 -1.359375q-0.140625 -0.0625 -0.21875 -0.078125q-3.15625 -0.859375 -3.15625 -2.84375q0 -1.40625 1.09375 -2.25q1.09375 -0.859375 2.84375 -0.859375q1.75 0 3.296875 1.03125l-0.796875 1.578125q-1.234375 -0.8125 -2.671875 -0.8125q-0.765625 0 -1.25 0.28125q-0.46875 0.265625 -0.46875 0.8125q0 0.5 0.5 0.71875q0.34375 0.171875 0.953125 0.328125q0.625 0.15625 1.09375 0.3125q0.484375 0.140625 0.921875 0.34375q0.453125 0.1875 0.96875 0.515625q1.015625 0.6875 1.015625 2.140625zm11.643188 -1.109375l-7.921875 0q0.078125 1.109375 1.0 1.78125q0.9375 0.671875 2.140625 0.671875q1.90625 0 2.890625 -1.203125l1.21875 1.34375q-1.640625 1.6875 -4.265625 1.6875q-2.125 0 -3.625 -1.40625q-1.484375 -1.421875 -1.484375 -3.8125q0 -2.390625 1.515625 -3.796875q1.53125 -1.40625 3.59375 -1.40625q2.0625 0 3.5 1.25q1.4375 1.25 1.4375 3.421875l0 1.46875zm-7.921875 -1.671875l5.796875 0q0 -1.265625 -0.796875 -1.953125q-0.796875 -0.6875 -1.96875 -0.6875q-1.15625 0 -2.09375 0.71875q-0.9375 0.703125 -0.9375 1.921875zm12.185822 0.328125l0 5.46875l-2.140625 0l0 -10.109375l2.140625 0l0 1.84375q0.515625 -0.9375 1.40625 -1.46875q0.90625 -0.53125 1.953125 -0.53125q1.703125 0 2.75 1.046875q1.0625 1.046875 1.0625 3.03125l0 6.1875l-2.125 0l0 -5.546875q0 -2.796875 -2.3125 -2.796875q-1.109375 0 -1.921875 0.734375q-0.8125 0.734375 -0.8125 2.140625zm12.536316 -2.921875l0 5.125q0 0.71875 0.375 1.15625q0.390625 0.421875 1.0625 0.421875q0.6875 0 1.328125 -0.671875l0.875 1.5q-1.125 1.015625 -2.484375 1.015625q-1.359375 0 -2.328125 -0.9375q-0.953125 -0.953125 -0.953125 -2.546875l0 -5.0625l-1.265625 0l0 -1.71875l1.265625 0l0 -3.171875l2.125 0l0 3.171875l2.671875 0l0 1.71875l-2.671875 0zm14.579559 4.265625l-7.921875 0q0.078125 1.109375 1.0 1.78125q0.9375 0.671875 2.140625 0.671875q1.90625 0 2.890625 -1.203125l1.21875 1.34375q-1.640625 1.6875 -4.265625 1.6875q-2.125 0 -3.625 -1.40625q-1.484375 -1.421875 -1.484375 -3.8125q0 -2.390625 1.515625 -3.796875q1.53125 -1.40625 3.59375 -1.40625q2.0625 0 3.5 1.25q1.4375 1.25 1.4375 3.421875l0 1.46875zm-7.921875 -1.671875l5.796875 0q0 -1.265625 -0.796875 -1.953125q-0.796875 -0.6875 -1.96875 -0.6875q-1.15625 0 -2.09375 0.71875q-0.9375 0.703125 -0.9375 1.921875zm14.170197 5.953125q-1.90625 0 -3.34375 -1.4375q-1.421875 -1.453125 -1.421875 -3.8125q0 -2.359375 1.453125 -3.765625q1.46875 -1.40625 3.484375 -1.40625q2.03125 0 3.265625 1.71875l0 -5.546875l2.140625 0l0 14.09375l-2.140625 0l0 -1.515625q-1.171875 1.671875 -3.4375 1.671875zm-2.640625 -5.15625q0 1.453125 0.9375 2.359375q0.9375 0.90625 2.1875 0.90625q1.25 0 2.125 -0.921875q0.875 -0.921875 0.875 -2.359375q0 -1.4375 -0.875 -2.40625q-0.875 -0.96875 -2.15625 -0.96875q-1.265625 0 -2.1875 0.96875q-0.90625 0.96875 -0.90625 2.421875zm21.586304 -5.265625q2.03125 0 3.46875 1.40625q1.453125 1.40625 1.453125 3.75q0 2.328125 -1.4375 3.796875q-1.4375 1.46875 -3.34375 1.46875q-1.90625 0 -3.421875 -1.671875l0 1.515625l-2.140625 0l0 -14.09375l2.140625 0l0 5.75q1.25 -1.921875 3.28125 -1.921875zm-3.328125 5.234375q0 1.4375 0.875 2.359375q0.875 0.921875 2.125 0.921875q1.265625 0 2.1875 -0.90625q0.9375 -0.921875 0.9375 -2.375q0 -1.453125 -0.921875 -2.40625q-0.90625 -0.953125 -2.1875 -0.953125q-1.265625 0 -2.140625 0.953125q-0.875 0.953125 -0.875 2.40625zm11.724518 9.0625q-1.390625 0 -2.515625 -1.015625l0.96875 -1.71875q0.671875 0.625 1.375 0.625q0.71875 0 1.15625 -0.515625q0.453125 -0.515625 0.453125 -1.125q0 -0.265625 -4.078125 -10.390625l2.28125 0l3.015625 7.453125l3.03125 -7.453125l2.265625 0l-4.890625 12.015625q-0.4375 0.984375 -1.265625 1.546875q-0.8125 0.578125 -1.796875 0.578125z" fill-rule="nonzero"></path><path fill="#000000" d="m231.13495 423.49408l0 -7.765625q0 -1.953125 -1.453125 -1.953125q-0.734375 0 -1.390625 0.59375q-0.65625 0.578125 -1.40625 1.59375l0 7.53125l-2.859375 0l0 -11.90625l2.484375 0l0.0625 1.75q0.359375 -0.453125 0.75 -0.828125q0.40625 -0.375 0.859375 -0.640625q0.453125 -0.265625 0.984375 -0.40625q0.53125 -0.140625 1.1875 -0.140625q0.90625 0 1.578125 0.3125q0.6875 0.296875 1.140625 0.84375q0.46875 0.53125 0.6875 1.3125q0.234375 0.765625 0.234375 1.703125l0 8.0l-2.859375 0zm5.9765625 0l0 -2.109375l3.625 -3.625q1.015625 -1.015625 1.625 -1.75q0.625 -0.75 0.953125 -1.328125q0.328125 -0.578125 0.4375 -1.0625q0.109375 -0.5 0.109375 -1.03125q0 -0.421875 -0.140625 -0.8125q-0.140625 -0.40625 -0.421875 -0.6875q-0.265625 -0.28125 -0.671875 -0.453125q-0.40625 -0.171875 -0.9375 -0.171875q-0.90625 0 -1.6875 0.390625q-0.765625 0.390625 -1.453125 1.046875l-1.515625 -1.9375q1.0 -0.9375 2.25 -1.484375q1.25 -0.5625 2.703125 -0.5625q1.125 0 2.03125 0.296875q0.921875 0.28125 1.5625 0.84375q0.65625 0.5625 1.015625 1.40625q0.359375 0.84375 0.359375 1.9375q0 0.921875 -0.25 1.71875q-0.25 0.78125 -0.71875 1.53125q-0.46875 0.75 -1.15625 1.5q-0.671875 0.75 -1.5625 1.578125l-2.21875 2.125l6.453125 0l0 2.640625l-10.390625 0z" fill-rule="nonzero"></path><path fill="#000000" d="m257.5749 423.49408l-2.140625 0l0 -10.109375l2.140625 0l0 10.109375zm-2.0 -12.109375q-0.40625 -0.40625 -0.40625 -0.953125q0 -0.5625 0.40625 -0.953125q0.40625 -0.40625 0.953125 -0.40625q0.546875 0 0.9375 0.40625q0.40625 0.390625 0.40625 0.953125q0 0.546875 -0.40625 0.953125q-0.390625 0.390625 -0.9375 0.390625q-0.546875 0 -0.953125 -0.390625zm7.1118164 6.640625l0 5.46875l-2.140625 0l0 -10.109375l2.140625 0l0 1.84375q0.515625 -0.9375 1.40625 -1.46875q0.90625 -0.53125 1.953125 -0.53125q1.703125 0 2.75 1.046875q1.0625 1.046875 1.0625 3.03125l0 6.1875l-2.125 0l0 -5.546875q0 -2.796875 -2.3125 -2.796875q-1.109375 0 -1.921875 0.734375q-0.8125 0.734375 -0.8125 2.140625zm17.648132 -2.921875l0 5.125q0 0.71875 0.375 1.15625q0.390625 0.421875 1.0625 0.421875q0.6875 0 1.328125 -0.671875l0.875 1.5q-1.125 1.015625 -2.484375 1.015625q-1.359375 0 -2.328125 -0.9375q-0.953125 -0.953125 -0.953125 -2.546875l0 -5.0625l-1.265625 0l0 -1.71875l1.265625 0l0 -3.171875l2.125 0l0 3.171875l2.671875 0l0 1.71875l-2.671875 0zm7.3139343 2.921875l0 5.46875l-2.140625 0l0 -14.078125l2.140625 0l0 5.8125q0.453125 -0.9375 1.375 -1.46875q0.921875 -0.53125 1.984375 -0.53125q1.703125 0 2.75 1.046875q1.0625 1.046875 1.0625 3.03125l0 6.1875l-2.125 0l0 -5.546875q0 -2.796875 -2.3125 -2.796875q-1.109375 0 -1.921875 0.734375q-0.8125 0.734375 -0.8125 2.140625zm19.317566 1.34375l-7.921875 0q0.078125 1.109375 1.0 1.78125q0.9375 0.671875 2.140625 0.671875q1.90625 0 2.890625 -1.203125l1.21875 1.34375q-1.640625 1.6875 -4.265625 1.6875q-2.125 0 -3.625 -1.40625q-1.484375 -1.421875 -1.484375 -3.8125q0 -2.390625 1.515625 -3.796875q1.53125 -1.40625 3.59375 -1.40625q2.0625 0 3.5 1.25q1.4375 1.25 1.4375 3.421875l0 1.46875zm-7.921875 -1.671875l5.796875 0q0 -1.265625 -0.796875 -1.953125q-0.796875 -0.6875 -1.96875 -0.6875q-1.15625 0 -2.09375 0.71875q-0.9375 0.703125 -0.9375 1.921875zm19.641388 5.953125q-2.109375 0 -3.625 -1.4375q-1.515625 -1.4375 -1.515625 -3.75q0 -2.328125 1.578125 -3.78125q1.59375 -1.453125 3.875 -1.453125q2.28125 0 3.859375 1.578125l-1.25 1.546875q-1.3125 -1.140625 -2.65625 -1.140625q-1.328125 0 -2.3125 0.890625q-0.96875 0.875 -0.96875 2.28125q0 1.390625 0.96875 2.359375q0.96875 0.96875 2.375 0.96875q1.421875 0 2.6875 -1.296875l1.25 1.375q-1.84375 1.859375 -4.265625 1.859375zm8.636627 -2.828125q0.90625 0.921875 2.28125 0.921875q1.390625 0 2.296875 -0.921875q0.90625 -0.921875 0.90625 -2.375q0 -1.46875 -0.90625 -2.390625q-0.90625 -0.921875 -2.296875 -0.921875q-1.375 0 -2.28125 0.921875q-0.90625 0.921875 -0.90625 2.390625q0 1.453125 0.90625 2.375zm6.078125 1.3125q-1.515625 1.515625 -3.796875 1.515625q-2.28125 0 -3.796875 -1.515625q-1.515625 -1.515625 -1.515625 -3.6875q0 -2.1875 1.515625 -3.703125q1.515625 -1.515625 3.796875 -1.515625q2.28125 0 3.796875 1.515625q1.53125 1.515625 1.53125 3.703125q0 2.171875 -1.53125 3.6875zm7.8357544 1.515625q-1.90625 0 -3.34375 -1.4375q-1.421875 -1.453125 -1.421875 -3.8125q0 -2.359375 1.453125 -3.765625q1.46875 -1.40625 3.484375 -1.40625q2.03125 0 3.265625 1.71875l0 -5.546875l2.140625 0l0 14.09375l-2.140625 0l0 -1.515625q-1.171875 1.671875 -3.4375 1.671875zm-2.640625 -5.15625q0 1.453125 0.9375 2.359375q0.9375 0.90625 2.1875 0.90625q1.25 0 2.125 -0.921875q0.875 -0.921875 0.875 -2.359375q0 -1.4375 -0.875 -2.40625q-0.875 -0.96875 -2.15625 -0.96875q-1.265625 0 -2.1875 0.96875q-0.90625 0.96875 -0.90625 2.421875zm20.458862 0.875l-7.921875 0q0.078125 1.109375 1.0 1.78125q0.9375 0.671875 2.140625 0.671875q1.90625 0 2.890625 -1.203125l1.21875 1.34375q-1.640625 1.6875 -4.265625 1.6875q-2.125 0 -3.625 -1.40625q-1.484375 -1.421875 -1.484375 -3.8125q0 -2.390625 1.515625 -3.796875q1.53125 -1.40625 3.59375 -1.40625q2.0625 0 3.5 1.25q1.4375 1.25 1.4375 3.421875l0 1.46875zm-7.921875 -1.671875l5.796875 0q0 -1.265625 -0.796875 -1.953125q-0.796875 -0.6875 -1.96875 -0.6875q-1.15625 0 -2.09375 0.71875q-0.9375 0.703125 -0.9375 1.921875z" fill-rule="nonzero"></path></g></svg>

