<?xml version="1.0" encoding="UTF-8" standalone="no"?>
<!DOCTYPE svg PUBLIC "-//W3C//DTD SVG 1.1//EN" "http://www.w3.org/Graphics/SVG/1.1/DTD/svg11.dtd">
<svg width="100%" height="100%" viewBox="0 0 234 161" version="1.1" xmlns="http://www.w3.org/2000/svg" xmlns:xlink="http://www.w3.org/1999/xlink" xml:space="preserve" xmlns:serif="http://www.serif.com/" style="fill-rule:evenodd;clip-rule:evenodd;stroke-linejoin:round;stroke-miterlimit:2;">
    <g transform="matrix(1,0,0,1,-1083.96,-776.671)">
        <g transform="matrix(6.87306,1.30312,-0.550256,2.90222,1175.83,886.387)">
            <path d="M0,4.201C2.608,4.129 4.858,2.958 6.827,1.313C7.048,1.128 6.618,0.175 6.827,0C4.858,1.645 2.608,2.816 0,2.888C-0.022,2.889 0.002,4.201 0,4.201" style="fill:rgb(35,31,32);fill-rule:nonzero;"/>
        </g>
        <g transform="matrix(4.16667,0,0,4.16667,1162.99,806.539)">
            <path d="M0,1.85C6.673,2.363 13.382,2.087 19.957,0.8C20.049,0.782 19.884,-0.499 19.957,-0.513C13.382,0.774 6.673,1.05 0,0.537C0.024,0.539 -0.043,1.847 0,1.85" style="fill:rgb(35,31,32);fill-rule:nonzero;"/>
        </g>
        <g transform="matrix(4.44722,0,0,4.81154,1161.69,854.197)">
            <path d="M0,-8.774C-1.785,-7.414 -1.901,-5.054 -1.635,-2.992C-1.248,0.01 1.398,1.576 4.222,1.084C8.531,0.334 13.077,-4.547 10.766,-9.037C10.853,-8.867 10.759,-8.395 10.76,-8.205C10.766,-6.115 10.832,-3.985 11.569,-2.004C12.49,0.473 14.872,1.423 17.328,0.503C21.159,-0.933 22.214,-8.141 18.644,-10.35C18.832,-10.233 18.441,-9.162 18.644,-9.037C20.246,-8.045 20.936,-6.342 20.441,-4.547C19.91,-2.622 18.439,-0.984 16.46,-0.56C11.691,0.461 10.783,-5.077 10.772,-8.555C10.77,-8.278 10.768,-8.001 10.766,-7.724C10.967,-7.334 11.108,-6.949 11.202,-6.52C11.244,-6.165 11.254,-6.195 11.231,-6.609C11.206,-6.361 11.139,-6.118 11.075,-5.878C10.819,-4.93 10.23,-4.09 9.598,-3.356C8.234,-1.774 6.255,-0.659 4.222,-0.229C2.27,0.184 0.423,-0.431 -0.76,-2.057C-2.093,-3.889 -1.874,-6.033 0,-7.461C0.217,-7.626 -0.205,-8.618 0,-8.774" style="fill:rgb(35,31,32);fill-rule:nonzero;"/>
        </g>
        <g transform="matrix(4.16667,0,0,4.16667,1179.4,832.343)">
            <path d="M0,1.673C0.003,1.774 0.049,1.73 0.09,1.672C0.149,1.59 0.194,1.494 0.223,1.398C0.26,1.275 0.24,1.129 0.241,1.005C0.243,0.674 0.268,0.33 0.234,0C0.224,-0.101 0.015,0.107 0.002,0.121C-0.013,0.136 -0.003,0.309 -0.003,0.313C-0.004,0.468 -0.005,0.623 -0.005,0.777C-0.005,0.932 -0.004,1.087 -0.003,1.242C-0.003,1.238 0.01,1.425 0.002,1.434C0.022,1.414 0.223,1.205 0.235,1.321C0.234,1.291 0.233,1.261 0.232,1.231L0.232,1.24C0.232,0.84 0.233,0.44 0.233,0.041C0.229,0.12 0.166,0.235 0.121,0.311C0.111,0.329 0.006,0.474 0.003,0.407C0.001,0.316 -0.002,0.519 -0.002,0.473C-0.004,0.604 -0.004,0.735 -0.004,0.866C-0.005,1.134 -0.008,1.404 0,1.673" style="fill:rgb(35,31,32);fill-rule:nonzero;"/>
        </g>
        <g transform="matrix(4.16667,0,0,4.16667,1229.73,828.814)">
            <path d="M0,1.756C0.112,1.644 0.226,1.534 0.332,1.416C0.354,1.393 0.378,1.367 0.392,1.338C0.4,1.32 0.397,1.243 0.397,1.242C0.4,1.053 0.4,0.864 0.4,0.675C0.4,0.563 0.4,0.451 0.399,0.339C0.399,0.261 0.398,0.182 0.397,0.104C0.397,0.074 0.396,0.044 0.394,0.014C0.386,0 0.357,0.013 0.346,0.017C0.226,0.055 0.112,0.125 0,0.18C-0.011,0.186 -0.005,0.38 -0.005,0.373C-0.006,0.527 -0.007,0.682 -0.007,0.837C-0.007,0.992 -0.006,1.147 -0.005,1.301C-0.005,1.289 0.003,1.492 0,1.493C0.028,1.48 0.372,1.286 0.394,1.327C0.392,1.108 0.389,0.889 0.387,0.671L0.387,0.675C0.389,0.456 0.392,0.238 0.394,0.019C0.38,0.064 0.331,0.105 0.3,0.139C0.203,0.243 0.101,0.342 0,0.443C-0.015,0.458 -0.004,0.631 -0.005,0.635C-0.006,0.79 -0.007,0.945 -0.007,1.1C-0.007,1.254 -0.006,1.409 -0.005,1.564C-0.005,1.56 0.009,1.747 0,1.756" style="fill:rgb(35,31,32);fill-rule:nonzero;"/>
        </g>
        <g transform="matrix(7.31586,0,0,4.48555,1178.54,838.061)">
            <path d="M0,-1.556C-0.022,-1.589 -0.217,-1.859 -0.233,-1.834C-0.273,-1.771 -0.238,-1.565 -0.239,-1.5C-0.241,-1.2 -0.242,-0.901 -0.237,-0.601C-0.234,-0.435 -0.153,-0.295 -0.082,-0.147C-0.008,0.009 -0.008,0.111 0.177,0.087C0.327,0.067 0.475,-0.002 0.609,-0.068C0.675,-0.1 0.828,-0.158 0.832,-0.247C0.841,-0.516 0.837,-0.786 0.836,-1.054C0.836,-1.211 0.857,-1.39 0.828,-1.545C0.827,-1.553 0.785,-1.579 0.775,-1.607C0.751,-1.673 0.669,-1.719 0.614,-1.755C0.455,-1.857 0.266,-1.919 0.088,-1.978C-0.027,-2.017 -0.143,-2.05 -0.259,-2.08C-0.34,-2.101 -0.411,-1.559 -0.412,-1.484C-0.42,-1.051 -0.434,-0.613 -0.408,-0.18C-0.399,-0.022 -0.336,0.118 -0.237,0.239C-0.116,0.387 0.078,0.497 0.263,0.545C0.246,0.54 0.269,-0.074 0.269,-0.112C0.269,-0.153 0.295,-0.76 0.263,-0.768C0.133,-0.802 0.011,-0.867 -0.097,-0.945C-0.194,-1.014 -0.271,-1.105 -0.33,-1.209C-0.367,-1.274 -0.386,-1.348 -0.4,-1.421C-0.155,-0.162 -0.518,-0.102 -0.326,-0.627C-0.267,-0.787 -0.267,-0.771 -0.126,-0.731C0.014,-0.692 0.152,-0.646 0.288,-0.594C0.427,-0.542 0.564,-0.481 0.685,-0.394C0.73,-0.361 0.765,-0.321 0.785,-0.269C0.796,-0.238 0.825,-0.251 0.83,-0.223L0.83,-1.536C0.768,-1.371 0.362,-1.268 0.212,-1.233C0.142,-1.216 0.012,-1.195 0,-1.293C-0.023,-1.475 -0.203,-1.636 -0.233,-1.825C-0.233,-1.395 -0.232,-0.965 -0.232,-0.535C-0.233,-0.497 -0.035,-0.296 0,-0.243C-0.012,-0.261 0.004,-0.428 0.005,-0.435C0.006,-0.59 0.007,-0.745 0.007,-0.9C0.007,-1.054 0.006,-1.209 0.005,-1.364C0.004,-1.382 0.017,-1.53 0,-1.556" style="fill:rgb(35,31,32);fill-rule:nonzero;"/>
        </g>
        <g transform="matrix(8.28791,0,0,4.40255,1232.16,833.732)">
            <path d="M0,-1.27C-0.008,-1.485 -0.146,-1.642 -0.363,-1.523C-0.475,-1.462 -0.536,-1.336 -0.566,-1.217C-0.583,-1.147 -0.582,-1.069 -0.584,-0.997C-0.589,-0.698 -0.588,-0.398 -0.586,-0.099C-0.586,-0.042 -0.609,0.549 -0.502,0.543C-0.368,0.536 -0.227,0.453 -0.11,0.395C0.108,0.285 0.32,0.155 0.523,0.02C0.536,0.011 0.528,-0.177 0.528,-0.173C0.53,-0.328 0.53,-0.482 0.53,-0.637C0.53,-0.792 0.53,-0.947 0.528,-1.101C0.528,-1.105 0.539,-1.279 0.523,-1.293C0.257,-1.548 -0.148,-1.802 -0.527,-1.819C-0.517,-1.818 -0.556,-0.507 -0.527,-0.506C-0.148,-0.489 0.257,-0.235 0.523,0.02L0.523,-1.293C0.358,-1.184 0.188,-1.081 0.014,-0.985C-0.113,-0.914 -0.244,-0.848 -0.381,-0.799C-0.428,-0.782 -0.477,-0.771 -0.527,-0.768C-0.552,-0.767 -0.578,-1.012 -0.58,-1.039L-0.576,-0.949C-0.577,-0.965 -0.577,-0.981 -0.577,-0.997C-0.578,-0.597 -0.578,-0.197 -0.579,0.203C-0.569,0.013 -0.477,-0.179 -0.288,-0.243C-0.122,-0.299 -0.009,-0.155 -0.003,-0.004C0,0.087 0.002,-0.116 0.002,-0.07C0.004,-0.201 0.004,-0.332 0.004,-0.463C0.005,-0.731 0.01,-1.001 0,-1.27" style="fill:rgb(35,31,32);fill-rule:nonzero;"/>
        </g>
        <g transform="matrix(4.16667,0,0,4.16667,1160.8,914.748)">
            <path d="M0,-24.908C-2.469,-24.537 -4.107,-22.366 -5.317,-20.365C-6.605,-18.235 -7.514,-15.867 -8.273,-13.505C-9.517,-9.635 -10.045,-4.74 -7.518,-1.248C-4.671,2.684 0.962,3.529 5.46,3.474C11.128,3.405 16.916,1.957 21.221,-1.877C25.402,-5.6 27.269,-11.128 27.065,-16.628C26.941,-19.978 25.259,-28.437 20.219,-26.484C20.063,-26.423 20.358,-25.224 20.219,-25.171C24.75,-26.926 26.493,-20.083 26.93,-16.938C26.963,-16.699 26.986,-16.459 27.01,-16.219C27.009,-16.223 27.022,-15.037 27.056,-15.864C27.024,-15.073 26.925,-14.286 26.801,-13.505C26.563,-11.996 26.103,-10.53 25.502,-9.128C24.398,-6.552 22.614,-4.317 20.463,-2.54C16.073,1.089 10.049,2.221 4.484,2.162C-0.058,2.114 -5.349,0.893 -7.946,-3.192C-10.256,-6.826 -8.808,-11.012 -7.385,-14.71C-6.12,-17.998 -3.971,-22.999 0,-23.595C0.074,-23.606 -0.054,-24.9 0,-24.908" style="fill:rgb(35,31,32);fill-rule:nonzero;"/>
        </g>
        <g transform="matrix(4.16667,0,0,4.16667,1165.19,799.827)">
            <path d="M0,1.646C-0.033,0.575 -0.475,-0.381 -1.052,-1.266C-0.983,-1.159 -1.849,-2.162 -1.849,-2.037C-1.849,-1.904 -1.129,-0.071 -1.052,0.047C-0.487,0.914 -0.036,1.861 -0.003,2.912C-0.013,2.603 0.012,2.042 0,1.646" style="fill:rgb(35,31,32);fill-rule:nonzero;"/>
        </g>
        <g transform="matrix(4.16667,0,0,4.16667,1172.85,799.193)">
            <path d="M0,2.127C-0.086,-0.409 -0.733,-11.141 -0.529,-1.376C-0.404,-0.981 -0.655,-0.464 -0.529,-0.063C-0.194,0.996 -0.021,2.152 -0.007,3.261C-0.003,3.503 0.002,3.06 0.002,3.025C0.004,2.726 0.004,2.426 0,2.127" style="fill:rgb(35,31,32);fill-rule:nonzero;"/>
        </g>
        <g transform="matrix(4.16667,0,0,4.16667,1178.31,794.552)">
            <path d="M0,3.939C0.263,3.081 0.262,2.171 0.525,1.313C0.649,0.911 0.133,-1.792 0.255,-2.189C-0.008,-1.331 0.263,1.768 0,2.626C-0.124,3.029 0.122,3.542 0,3.939" style="fill:rgb(35,31,32);fill-rule:nonzero;"/>
        </g>
        <g transform="matrix(4.16667,0,0,4.16667,1178.31,794.552)">
            <path d="M0,3.939C0.263,3.081 0.262,2.171 0.525,1.313C0.649,0.911 0.133,-1.792 0.255,-2.189C-0.008,-1.331 0.263,1.768 0,2.626C-0.124,3.029 0.122,3.542 0,3.939" style="fill:rgb(35,31,32);fill-rule:nonzero;"/>
        </g>
        <g transform="matrix(4.16667,0,0,4.16667,1236.71,790.28)">
            <path d="M0,3.939C0.263,3.081 0.262,2.171 0.525,1.313C0.649,0.911 0.133,-1.792 0.255,-2.189C-0.008,-1.331 0.263,1.768 0,2.626C-0.124,3.029 0.122,3.542 0,3.939" style="fill:rgb(35,31,32);fill-rule:nonzero;"/>
        </g>
        <g transform="matrix(4.16667,0,0,4.16667,1187.09,798.381)">
            <path d="M0,2.889C0.001,2.111 0.107,1.329 0.519,0.657C0.595,0.532 0.525,0.14 0.525,0.001C0.525,-0.129 0.449,-0.543 0.519,-0.656C-0.123,0.391 -0.012,1.709 -0.013,2.889C-0.013,2.923 -0.014,3.545 -0.007,3.545C0.001,3.545 0,2.923 0,2.889" style="fill:rgb(35,31,32);fill-rule:nonzero;"/>
        </g>
        <g transform="matrix(4.16667,0,0,4.16667,1193.64,797.752)">
            <path d="M0,3.869C0.015,2.819 0.317,1.841 1.047,1.07C1.121,0.992 1.053,0.514 1.053,0.414C1.053,0.323 0.983,-0.175 1.047,-0.243C0.263,0.586 0.009,1.622 -0.007,2.735C-0.011,3.035 -0.011,3.334 -0.009,3.633C-0.009,3.668 -0.003,4.112 0,3.869" style="fill:rgb(35,31,32);fill-rule:nonzero;"/>
        </g>
        <g transform="matrix(4.16667,0,0,4.16667,1203.48,792.364)">
            <path d="M0,4.178C0.03,3.07 -0.458,1.39 0.299,0.604C0.373,0.527 0.532,0.023 0.532,-0.076C0.532,-0.165 0.469,-1.598 0.532,-1.664C-0.241,-0.862 0.33,1.461 0.299,2.588C0.288,2.984 0.008,3.868 0,4.178" style="fill:rgb(35,31,32);fill-rule:nonzero;"/>
        </g>
        <g transform="matrix(4.16667,0,0,4.16667,1212.23,795.648)">
            <path d="M0,3.39C0.031,2.579 0.499,1.879 1.049,1.313C1.122,1.237 1.055,0.754 1.055,0.656C1.055,0.567 0.985,0.065 1.049,0C0.481,0.584 0.029,1.29 -0.003,2.124C-0.019,2.52 0.012,3.081 0,3.39" style="fill:rgb(35,31,32);fill-rule:nonzero;"/>
        </g>
        <g transform="matrix(2.20138,-0.99236,2.0617,4.57353,1215.5,791.458)">
            <path d="M0,3.939C0.559,3.084 1.016,2.168 1.576,1.313C1.652,1.196 1.582,0.79 1.582,0.657C1.582,0.533 1.506,0.106 1.576,0C1.016,0.855 0.559,1.771 0,2.626C-0.077,2.744 -0.007,3.149 -0.007,3.283C-0.007,3.406 0.069,3.833 0,3.939" style="fill:rgb(35,31,32);fill-rule:nonzero;"/>
        </g>
        <g transform="matrix(4.16667,0,0,4.16667,1228.64,797.835)">
            <path d="M0,3.151C0.322,2.522 0.729,1.942 1.05,1.313C1.124,1.169 1.057,0.812 1.057,0.656C1.057,0.51 0.983,0.133 1.05,0C0.729,0.629 0.322,1.209 0,1.838C-0.074,1.982 -0.007,2.339 -0.007,2.495C-0.007,2.641 0.068,3.018 0,3.151" style="fill:rgb(35,31,32);fill-rule:nonzero;"/>
        </g>
        <g transform="matrix(4.16667,0,0,4.16667,1240.67,792.364)">
            <path d="M0,3.939C0.321,3.013 0.777,2.133 1.313,1.313C1.39,1.195 1.016,-1.269 1.32,0.657C1.339,0.779 1.244,0.106 1.313,0C0.777,0.82 0.321,1.7 0,2.626C-0.136,3.02 0.134,3.551 0,3.939" style="fill:rgb(35,31,32);fill-rule:nonzero;"/>
        </g>
        <g transform="matrix(4.16667,0,0,4.16667,1249.42,791.273)">
            <path d="M0,3.676L1.576,1.313C1.653,1.197 1.582,0.788 1.582,0.656C1.582,0.534 1.506,0.104 1.576,0L0,2.363C-0.077,2.479 -0.007,2.888 -0.007,3.02C-0.007,3.142 0.069,3.572 0,3.676" style="fill:rgb(35,31,32);fill-rule:nonzero;"/>
        </g>
        <g transform="matrix(4.16667,0,0,4.16667,1121.42,932.703)">
            <path d="M0,-7.685C-4.078,-8.665 -7.038,-3.053 -8.928,-0.333C-9.136,-0.033 -8.726,0.69 -8.928,0.98C-7.038,-1.74 -4.078,-7.352 0,-6.372C-0.09,-6.394 0.109,-7.659 0,-7.685" style="fill:rgb(35,31,32);fill-rule:nonzero;"/>
        </g>
        <g transform="matrix(4.16667,0,0,4.16667,1250.52,902.073)">
            <path d="M0,0.979C1.8,-5.252 14.18,5 16.018,7.544C15.813,7.261 16.229,6.523 16.018,6.231C14.18,3.687 1.8,-6.565 0,-0.334C-0.117,0.073 0.116,0.578 0,0.979" style="fill:rgb(35,31,32);fill-rule:nonzero;"/>
        </g>
    </g>
</svg>
