<?xml version="1.0" encoding="UTF-8" standalone="no"?>
<!DOCTYPE svg PUBLIC "-//W3C//DTD SVG 1.1//EN" "http://www.w3.org/Graphics/SVG/1.1/DTD/svg11.dtd">
<svg width="100%" height="100%" viewBox="0 0 332 252" version="1.1" xmlns="http://www.w3.org/2000/svg" xmlns:xlink="http://www.w3.org/1999/xlink" xml:space="preserve" xmlns:serif="http://www.serif.com/" style="fill-rule:evenodd;clip-rule:evenodd;stroke-linecap:round;stroke-linejoin:round;stroke-miterlimit:1.5;">
    <g transform="matrix(1,0,0,1,-680.447,-421.469)">
        <g transform="matrix(4.16667,0,0,4.16667,759.475,542.263)">
            <path d="M0,1.85C6.673,2.363 13.382,2.087 19.957,0.8C20.049,0.782 19.884,-0.499 19.957,-0.513C13.382,0.774 6.673,1.05 0,0.537C0.024,0.539 -0.043,1.847 0,1.85" style="fill:rgb(35,31,32);fill-rule:nonzero;"/>
        </g>
        <g transform="matrix(4.16667,0,0,4.16667,760.567,583.246)">
            <path d="M0,-8.774C-1.785,-7.414 -1.901,-5.054 -1.635,-2.992C-1.248,0.01 1.398,1.576 4.222,1.084C8.531,0.334 13.077,-4.547 10.766,-9.037C10.853,-8.867 10.759,-8.395 10.76,-8.205C10.766,-6.115 10.832,-3.985 11.569,-2.004C12.49,0.473 14.872,1.423 17.328,0.503C21.159,-0.933 22.214,-8.141 18.644,-10.35C18.832,-10.233 18.441,-9.162 18.644,-9.037C20.246,-8.045 20.936,-6.342 20.441,-4.547C19.91,-2.622 18.439,-0.984 16.46,-0.56C11.691,0.461 10.783,-5.077 10.772,-8.555C10.77,-8.278 10.768,-8.001 10.766,-7.724C10.967,-7.334 11.108,-6.949 11.202,-6.52C11.244,-6.165 11.254,-6.195 11.231,-6.609C11.206,-6.361 11.139,-6.118 11.075,-5.878C10.819,-4.93 10.23,-4.09 9.598,-3.356C8.234,-1.774 6.255,-0.659 4.222,-0.229C2.27,0.184 0.423,-0.431 -0.76,-2.057C-2.093,-3.889 -1.874,-6.033 0,-7.461C0.217,-7.626 -0.205,-8.618 0,-8.774" style="fill:rgb(35,31,32);fill-rule:nonzero;"/>
        </g>
        <g transform="matrix(4.16667,0,0,4.16667,775.879,568.067)">
            <path d="M0,1.673C0.003,1.774 0.049,1.73 0.09,1.672C0.149,1.59 0.194,1.494 0.223,1.398C0.26,1.275 0.24,1.129 0.241,1.005C0.243,0.674 0.268,0.33 0.234,0C0.224,-0.101 0.015,0.107 0.002,0.121C-0.013,0.136 -0.003,0.309 -0.003,0.313C-0.004,0.468 -0.005,0.623 -0.005,0.777C-0.005,0.932 -0.004,1.087 -0.003,1.242C-0.003,1.238 0.01,1.425 0.002,1.434C0.022,1.414 0.223,1.205 0.235,1.321C0.234,1.291 0.233,1.261 0.232,1.231L0.232,1.24C0.232,0.84 0.233,0.44 0.233,0.041C0.229,0.12 0.166,0.235 0.121,0.311C0.111,0.329 0.006,0.474 0.003,0.407C0.001,0.316 -0.002,0.519 -0.002,0.473C-0.004,0.604 -0.004,0.735 -0.004,0.866C-0.005,1.134 -0.008,1.404 0,1.673" style="fill:rgb(35,31,32);fill-rule:nonzero;"/>
        </g>
        <g transform="matrix(4.16667,0,0,4.16667,826.217,564.538)">
            <path d="M0,1.756C0.112,1.644 0.226,1.534 0.332,1.416C0.354,1.393 0.378,1.367 0.392,1.338C0.4,1.32 0.397,1.243 0.397,1.242C0.4,1.053 0.4,0.864 0.4,0.675C0.4,0.563 0.4,0.451 0.399,0.339C0.399,0.261 0.398,0.182 0.397,0.104C0.397,0.074 0.396,0.044 0.394,0.014C0.386,0 0.357,0.013 0.346,0.017C0.226,0.055 0.112,0.125 0,0.18C-0.011,0.186 -0.005,0.38 -0.005,0.373C-0.006,0.527 -0.007,0.682 -0.007,0.837C-0.007,0.992 -0.006,1.147 -0.005,1.301C-0.005,1.289 0.003,1.492 0,1.493C0.028,1.48 0.372,1.286 0.394,1.327C0.392,1.108 0.389,0.889 0.387,0.671L0.387,0.675C0.389,0.456 0.392,0.238 0.394,0.019C0.38,0.064 0.331,0.105 0.3,0.139C0.203,0.243 0.101,0.342 0,0.443C-0.015,0.458 -0.004,0.631 -0.005,0.635C-0.006,0.79 -0.007,0.945 -0.007,1.1C-0.007,1.254 -0.006,1.409 -0.005,1.564C-0.005,1.56 0.009,1.747 0,1.756" style="fill:rgb(35,31,32);fill-rule:nonzero;"/>
        </g>
        <g transform="matrix(4.16667,0,0,4.16667,773.696,573.958)">
            <path d="M0,-1.556C-0.022,-1.589 -0.217,-1.859 -0.233,-1.834C-0.273,-1.771 -0.238,-1.565 -0.239,-1.5C-0.241,-1.2 -0.242,-0.901 -0.237,-0.601C-0.234,-0.435 -0.153,-0.295 -0.082,-0.147C-0.008,0.009 -0.008,0.111 0.177,0.087C0.327,0.067 0.475,-0.002 0.609,-0.068C0.675,-0.1 0.828,-0.158 0.832,-0.247C0.841,-0.516 0.837,-0.786 0.836,-1.054C0.836,-1.211 0.857,-1.39 0.828,-1.545C0.827,-1.553 0.785,-1.579 0.775,-1.607C0.751,-1.673 0.669,-1.719 0.614,-1.755C0.455,-1.857 0.266,-1.919 0.088,-1.978C-0.027,-2.017 -0.143,-2.05 -0.259,-2.08C-0.34,-2.101 -0.411,-1.559 -0.412,-1.484C-0.42,-1.051 -0.434,-0.613 -0.408,-0.18C-0.399,-0.022 -0.336,0.118 -0.237,0.239C-0.116,0.387 0.078,0.497 0.263,0.545C0.246,0.54 0.269,-0.074 0.269,-0.112C0.269,-0.153 0.295,-0.76 0.263,-0.768C0.133,-0.802 0.011,-0.867 -0.097,-0.945C-0.194,-1.014 -0.271,-1.105 -0.33,-1.209C-0.367,-1.274 -0.386,-1.348 -0.4,-1.421C-0.155,-0.162 -0.518,-0.102 -0.326,-0.627C-0.267,-0.787 -0.267,-0.771 -0.126,-0.731C0.014,-0.692 0.152,-0.646 0.288,-0.594C0.427,-0.542 0.564,-0.481 0.685,-0.394C0.73,-0.361 0.765,-0.321 0.785,-0.269C0.796,-0.238 0.825,-0.251 0.83,-0.223L0.83,-1.536C0.768,-1.371 0.362,-1.268 0.212,-1.233C0.142,-1.216 0.012,-1.195 0,-1.293C-0.023,-1.475 -0.203,-1.636 -0.233,-1.825C-0.233,-1.395 -0.232,-0.965 -0.232,-0.535C-0.233,-0.497 -0.035,-0.296 0,-0.243C-0.012,-0.261 0.004,-0.428 0.005,-0.435C0.006,-0.59 0.007,-0.745 0.007,-0.9C0.007,-1.054 0.006,-1.209 0.005,-1.364C0.004,-1.382 0.017,-1.53 0,-1.556" style="fill:rgb(35,31,32);fill-rule:nonzero;"/>
        </g>
        <g transform="matrix(4.16667,0,0,4.16667,826.221,569.583)">
            <path d="M0,-1.27C-0.008,-1.485 -0.146,-1.642 -0.363,-1.523C-0.475,-1.462 -0.536,-1.336 -0.566,-1.217C-0.583,-1.147 -0.582,-1.069 -0.584,-0.997C-0.589,-0.698 -0.588,-0.398 -0.586,-0.099C-0.586,-0.042 -0.609,0.549 -0.502,0.543C-0.368,0.536 -0.227,0.453 -0.11,0.395C0.108,0.285 0.32,0.155 0.523,0.02C0.536,0.011 0.528,-0.177 0.528,-0.173C0.53,-0.328 0.53,-0.482 0.53,-0.637C0.53,-0.792 0.53,-0.947 0.528,-1.101C0.528,-1.105 0.539,-1.279 0.523,-1.293C0.257,-1.548 -0.148,-1.802 -0.527,-1.819C-0.517,-1.818 -0.556,-0.507 -0.527,-0.506C-0.148,-0.489 0.257,-0.235 0.523,0.02L0.523,-1.293C0.358,-1.184 0.188,-1.081 0.014,-0.985C-0.113,-0.914 -0.244,-0.848 -0.381,-0.799C-0.428,-0.782 -0.477,-0.771 -0.527,-0.768C-0.552,-0.767 -0.578,-1.012 -0.58,-1.039L-0.576,-0.949C-0.577,-0.965 -0.577,-0.981 -0.577,-0.997C-0.578,-0.597 -0.578,-0.197 -0.579,0.203C-0.569,0.013 -0.477,-0.179 -0.288,-0.243C-0.122,-0.299 -0.009,-0.155 -0.003,-0.004C0,0.087 0.002,-0.116 0.002,-0.07C0.004,-0.201 0.004,-0.332 0.004,-0.463C0.005,-0.731 0.01,-1.001 0,-1.27" style="fill:rgb(35,31,32);fill-rule:nonzero;"/>
        </g>
        <g transform="matrix(4.16667,0,0,4.16667,757.287,650.471)">
            <path d="M0,-24.908C-2.469,-24.537 -4.107,-22.366 -5.317,-20.365C-6.605,-18.235 -7.514,-15.867 -8.273,-13.505C-9.517,-9.635 -10.045,-4.74 -7.518,-1.248C-4.671,2.684 0.962,3.529 5.46,3.474C11.128,3.405 16.916,1.957 21.221,-1.877C25.402,-5.6 27.269,-11.128 27.065,-16.628C26.941,-19.978 25.259,-28.437 20.219,-26.484C20.063,-26.423 20.358,-25.224 20.219,-25.171C24.75,-26.926 26.493,-20.083 26.93,-16.938C26.963,-16.699 26.986,-16.459 27.01,-16.219C27.009,-16.223 27.022,-15.037 27.056,-15.864C27.024,-15.073 26.925,-14.286 26.801,-13.505C26.563,-11.996 26.103,-10.53 25.502,-9.128C24.398,-6.552 22.614,-4.317 20.463,-2.54C16.073,1.089 10.049,2.221 4.484,2.162C-0.058,2.114 -5.349,0.893 -7.946,-3.192C-10.256,-6.826 -8.808,-11.012 -7.385,-14.71C-6.12,-17.998 -3.971,-22.999 0,-23.595C0.074,-23.606 -0.054,-24.9 0,-24.908" style="fill:rgb(35,31,32);fill-rule:nonzero;"/>
        </g>
        <g transform="matrix(4.16667,0,0,4.16667,761.67,535.55)">
            <path d="M0,1.646C-0.033,0.575 -0.475,-0.381 -1.052,-1.266C-0.983,-1.159 -1.059,-0.734 -1.059,-0.609C-1.059,-0.476 -1.129,-0.071 -1.052,0.047C-0.487,0.914 -0.036,1.861 -0.003,2.912C-0.013,2.603 0.012,2.042 0,1.646" style="fill:rgb(35,31,32);fill-rule:nonzero;"/>
        </g>
        <g transform="matrix(4.16667,0,0,4.16667,769.333,534.917)">
            <path d="M0,2.127C-0.016,0.953 -0.174,-0.255 -0.529,-1.376C-0.404,-0.981 -0.655,-0.464 -0.529,-0.063C-0.194,0.996 -0.021,2.152 -0.007,3.261C-0.003,3.503 0.002,3.06 0.002,3.025C0.004,2.726 0.004,2.426 0,2.127" style="fill:rgb(35,31,32);fill-rule:nonzero;"/>
        </g>
        <g transform="matrix(4.16667,0,0,4.16667,774.792,530.275)">
            <path d="M0,3.939C0.263,3.081 0.262,2.171 0.525,1.313C0.649,0.911 0.403,0.397 0.525,0C0.262,0.858 0.263,1.768 0,2.626C-0.124,3.029 0.122,3.542 0,3.939" style="fill:rgb(35,31,32);fill-rule:nonzero;"/>
        </g>
        <g transform="matrix(4.16667,0,0,4.16667,783.571,534.105)">
            <path d="M0,2.889C0.001,2.111 0.107,1.329 0.519,0.657C0.595,0.532 0.525,0.14 0.525,0.001C0.525,-0.129 0.449,-0.543 0.519,-0.656C-0.123,0.391 -0.012,1.709 -0.013,2.889C-0.013,2.923 -0.014,3.545 -0.007,3.545C0.001,3.545 0,2.923 0,2.889" style="fill:rgb(35,31,32);fill-rule:nonzero;"/>
        </g>
        <g transform="matrix(4.16667,0,0,4.16667,790.125,533.475)">
            <path d="M0,3.869C0.015,2.819 0.317,1.841 1.047,1.07C1.121,0.992 1.053,0.514 1.053,0.414C1.053,0.323 0.983,-0.175 1.047,-0.243C0.263,0.586 0.009,1.622 -0.007,2.735C-0.011,3.035 -0.011,3.334 -0.009,3.633C-0.009,3.668 -0.003,4.112 0,3.869" style="fill:rgb(35,31,32);fill-rule:nonzero;"/>
        </g>
        <g transform="matrix(4.16667,0,0,4.16667,799.962,528.088)">
            <path d="M0,4.178C0.03,3.07 0.554,2.099 1.311,1.313C1.385,1.236 1.318,0.755 1.318,0.656C1.318,0.567 1.248,0.066 1.311,0C0.538,0.802 0.028,1.785 -0.003,2.912C-0.014,3.308 0.008,3.868 0,4.178" style="fill:rgb(35,31,32);fill-rule:nonzero;"/>
        </g>
        <g transform="matrix(4.16667,0,0,4.16667,808.717,531.371)">
            <path d="M0,3.39C0.031,2.579 0.499,1.879 1.049,1.313C1.122,1.237 1.055,0.754 1.055,0.656C1.055,0.567 0.985,0.065 1.049,0C0.481,0.584 0.029,1.29 -0.003,2.124C-0.019,2.52 0.012,3.081 0,3.39" style="fill:rgb(35,31,32);fill-rule:nonzero;"/>
        </g>
        <g transform="matrix(4.16667,0,0,4.16667,817.462,530.275)">
            <path d="M0,3.939C0.559,3.084 1.016,2.168 1.576,1.313C1.652,1.196 1.582,0.79 1.582,0.657C1.582,0.533 1.506,0.106 1.576,0C1.016,0.855 0.559,1.771 0,2.626C-0.077,2.744 -0.007,3.149 -0.007,3.283C-0.007,3.406 0.069,3.833 0,3.939" style="fill:rgb(35,31,32);fill-rule:nonzero;"/>
        </g>
        <g transform="matrix(4.16667,0,0,4.16667,825.121,533.559)">
            <path d="M0,3.151C0.322,2.522 0.729,1.942 1.05,1.313C1.124,1.169 1.057,0.812 1.057,0.656C1.057,0.51 0.983,0.133 1.05,0C0.729,0.629 0.322,1.209 0,1.838C-0.074,1.982 -0.007,2.339 -0.007,2.495C-0.007,2.641 0.068,3.018 0,3.151" style="fill:rgb(35,31,32);fill-rule:nonzero;"/>
        </g>
        <g transform="matrix(4.16667,0,0,4.16667,837.154,528.088)">
            <path d="M0,3.939C0.321,3.013 0.777,2.133 1.313,1.313C1.39,1.195 1.32,0.79 1.32,0.657C1.32,0.533 1.244,0.106 1.313,0C0.777,0.82 0.321,1.7 0,2.626C-0.136,3.02 0.134,3.551 0,3.939" style="fill:rgb(35,31,32);fill-rule:nonzero;"/>
        </g>
        <g transform="matrix(4.16667,0,0,4.16667,845.908,526.996)">
            <path d="M0,3.676L1.576,1.313C1.653,1.197 1.582,0.788 1.582,0.656C1.582,0.534 1.506,0.104 1.576,0L0,2.363C-0.077,2.479 -0.007,2.888 -0.007,3.02C-0.007,3.142 0.069,3.572 0,3.676" style="fill:rgb(35,31,32);fill-rule:nonzero;"/>
        </g>
        <g transform="matrix(4.16667,0,0,4.16667,717.9,668.427)">
            <path d="M0,-7.685C-4.078,-8.665 -7.038,-3.053 -8.928,-0.333C-9.136,-0.033 -8.726,0.69 -8.928,0.98C-7.038,-1.74 -4.078,-7.352 0,-6.372C-0.09,-6.394 0.109,-7.659 0,-7.685" style="fill:rgb(35,31,32);fill-rule:nonzero;"/>
        </g>
        <g transform="matrix(4.16667,0,0,4.16667,847.004,637.797)">
            <path d="M0,0.979C1.8,-5.252 14.18,5 16.018,7.544C15.813,7.261 16.229,6.523 16.018,6.231C14.18,3.687 1.8,-6.565 0,-0.334C-0.117,0.073 0.116,0.578 0,0.979" style="fill:rgb(35,31,32);fill-rule:nonzero;"/>
        </g>
        <g transform="matrix(4.16667,0,0,4.16667,781.358,624.372)">
            <path d="M0,4.201C2.608,4.129 4.858,2.958 6.827,1.313C7.048,1.128 6.618,0.175 6.827,0C4.858,1.645 2.608,2.816 0,2.888C-0.022,2.889 0.002,4.201 0,4.201" style="fill:rgb(35,31,32);fill-rule:nonzero;"/>
        </g>
        <g transform="matrix(4.16667,0,0,4.16667,892.167,545.98)">
            <path d="M0,-3.939C-1.05,-3.151 -2.626,0.788 0,0.788C2.888,0.525 2.363,-4.727 -1.05,-3.676" style="fill:rgb(230,231,232);fill-rule:nonzero;"/>
        </g>
        <g transform="matrix(4.16667,0,0,4.16667,906.392,532.455)">
            <path d="M0,-5.251C0,-5.514 0.788,-6.039 -0.263,-5.776C-1.05,-4.726 -2.626,-1.05 -0.788,-0.262C1.576,0.788 3.151,-4.726 0,-4.988" style="fill:rgb(230,231,232);fill-rule:nonzero;"/>
        </g>
        <g transform="matrix(4.16667,0,0,4.16667,936.454,478.988)">
            <path d="M0,0.752C-0.198,0.549 -0.36,0.321 -0.511,0.082C-0.588,-0.041 -0.653,-0.177 -0.797,-0.231C-0.955,-0.29 -1.051,-0.194 -1.073,-0.05C-1.139,0.382 -1.097,0.846 -1.097,1.28C-1.097,1.401 -0.877,1.429 -0.801,1.37C-0.522,1.152 -0.202,0.885 -0.231,0.495C-0.256,0.143 -0.497,-0.148 -0.51,-0.511C-0.514,-0.644 -0.839,-0.677 -0.835,-0.558C-0.824,-0.269 -0.723,-0.025 -0.618,0.24C-0.439,0.685 -0.729,0.972 -1.068,1.237L-0.772,1.327C-0.772,0.964 -0.775,0.6 -0.764,0.237C-0.762,0.157 -0.757,0.077 -0.748,-0.003C-0.731,-0.146 -0.983,-0.123 -0.937,-0.066C-0.708,0.217 -0.552,0.539 -0.294,0.805C-0.214,0.886 0.107,0.862 0,0.752" style="fill:rgb(35,31,32);fill-rule:nonzero;"/>
        </g>
        <g transform="matrix(4.16667,0,0,4.16667,874.312,552.396)">
            <path d="M0,-3.097C-0.744,-2.478 -1.861,0.619 0,0.619C2.047,0.413 1.675,-3.716 -0.744,-2.891" style="fill:rgb(230,231,232);fill-rule:nonzero;"/>
        </g>
        <g transform="matrix(4.16667,0,0,4.16667,942.504,508.466)">
            <path d="M0,-13.883C-2.006,-21.523 -14.608,-0.672 -3.019,-3.416C-11.834,8.554 17.934,1.046 9.102,-6.679C18.259,-3.94 18.973,-19.162 10.811,-17.425C9.035,-22.437 3.249,-21.721 3.18,-16.207C1.919,-20.424 -4.959,-16.308 -1.047,-14.159" style="fill:rgb(230,231,232);fill-rule:nonzero;"/>
        </g>
        <g transform="matrix(4.16667,0,0,4.16667,943.162,491.875)">
            <path d="M0,-9.881C-0.39,-11.275 -1.379,-12.09 -2.796,-11.434C-4.639,-10.58 -5.942,-8.44 -6.839,-6.716C-7.698,-5.067 -8.715,-2.603 -7.945,-0.739C-7.144,1.2 -4.789,1.044 -3.084,0.659C-3.163,0.606 -3.243,0.553 -3.323,0.499C-4.44,2.039 -6.053,4.74 -3.952,6.188C-2.149,7.43 0.672,6.954 2.642,6.498C5.173,5.912 7.909,4.79 9.681,2.821C10.341,2.088 10.787,1.172 10.755,0.172C10.727,-0.71 9.955,-2.317 9.185,-2.535C11.876,-1.774 14.522,-2.729 15.797,-5.264C16.899,-7.454 16.738,-10.474 15.074,-12.337C14.337,-13.163 13.272,-13.579 12.189,-13.669C11.455,-13.729 10.87,-13.331 10.547,-14.07C10.191,-14.884 9.617,-15.575 8.924,-16.121C7.872,-16.951 6.447,-17.113 5.223,-16.619C3.504,-15.925 2.922,-13.922 2.862,-12.245C2.968,-12.232 3.074,-12.218 3.18,-12.205C2.557,-14.033 0.817,-14.525 -0.883,-13.809C-2.725,-13.032 -3.071,-11.172 -1.307,-10.124C-1.197,-10.058 -0.92,-10.12 -1.105,-10.229C-2.553,-11.09 -2.472,-12.421 -1.166,-13.348C0.314,-14.399 2.252,-14.037 2.862,-12.245C2.897,-12.143 3.175,-12.052 3.18,-12.205C3.246,-14.056 3.953,-15.974 5.859,-16.595C8.058,-17.311 9.799,-15.284 10.493,-13.463C10.529,-13.369 10.653,-13.331 10.746,-13.349C14.461,-14.072 16.474,-10.924 16.114,-7.548C15.716,-3.811 12.547,-1.773 8.968,-2.785C8.898,-2.805 8.699,-2.77 8.814,-2.667C13.427,1.465 6.768,5.108 3.137,6.135C1.122,6.705 -1.532,7.199 -3.503,6.227C-5.867,5.06 -4.061,2.051 -3.032,0.632C-2.95,0.518 -3.201,0.456 -3.272,0.472C-5.11,0.887 -7.391,0.911 -7.804,-1.353C-8.106,-3.005 -7.388,-4.829 -6.691,-6.291C-5.929,-7.888 -1.564,-14.377 -0.318,-9.921C-0.285,-9.805 0.035,-9.756 0,-9.881" style="fill:rgb(35,31,32);fill-rule:nonzero;"/>
        </g>
        <g transform="matrix(4.16667,0,0,4.16667,958.179,495.22)">
            <path d="M0,0.752C-0.198,0.549 -0.36,0.321 -0.511,0.082C-0.588,-0.041 -0.653,-0.177 -0.797,-0.231C-0.955,-0.29 -1.051,-0.194 -1.073,-0.05C-1.139,0.382 -1.097,0.846 -1.097,1.28C-1.097,1.401 -0.877,1.429 -0.801,1.37C-0.522,1.152 -0.202,0.885 -0.231,0.495C-0.256,0.143 -0.497,-0.148 -0.51,-0.511C-0.514,-0.644 -0.839,-0.677 -0.835,-0.558C-0.824,-0.269 -0.723,-0.025 -0.618,0.24C-0.439,0.685 -0.729,0.972 -1.068,1.237L-0.772,1.327C-0.772,0.964 -0.775,0.6 -0.764,0.237C-0.762,0.157 -0.757,0.077 -0.748,-0.003C-0.731,-0.146 -0.983,-0.123 -0.937,-0.066C-0.708,0.217 -0.552,0.539 -0.294,0.805C-0.214,0.886 0.107,0.862 0,0.752" style="fill:rgb(35,31,32);fill-rule:nonzero;"/>
        </g>
        <g transform="matrix(1,0,0,1,-381.792,-248.044)">
            <path d="M1334.65,696.85C1334.65,696.85 1332.11,720.472 1334.65,732.283" style="fill:none;stroke:black;stroke-width:1px;"/>
        </g>
    </g>
</svg>
