<?xml version="1.0" encoding="UTF-8" standalone="no"?>
<!DOCTYPE svg PUBLIC "-//W3C//DTD SVG 1.1//EN" "http://www.w3.org/Graphics/SVG/1.1/DTD/svg11.dtd">
<svg width="100%" height="100%" viewBox="0 0 2064 1383" version="1.1" xmlns="http://www.w3.org/2000/svg" xmlns:xlink="http://www.w3.org/1999/xlink" xml:space="preserve" xmlns:serif="http://www.serif.com/" style="fill-rule:evenodd;clip-rule:evenodd;stroke-linecap:round;stroke-linejoin:round;stroke-miterlimit:1.5;">
    <g transform="matrix(1,0,0,1,-201.769,-793.759)">
        <path d="M330.254,868.127L330.254,2081.57L1984.6,2081.57" style="fill:none;stroke:rgb(99,100,102);stroke-width:16.67px;"/>
        <g transform="matrix(-0.5,0.866025,-0.866025,-0.5,339.101,850.433)">
            <path d="M0,-35.388L35.388,35.388L-35.388,35.388L0,-35.388Z" style="fill:none;stroke:rgb(99,100,102);stroke-width:16.67px;stroke-dasharray:16.67,0.83,0,0;"/>
            <path d="M0,-35.388L35.388,35.388L-35.388,35.388L0,-35.388Z" style="fill:rgb(99,100,102);"/>
        </g>
        <g transform="matrix(-0.866025,-0.5,0.392039,-0.679031,2006.12,2083.8)">
            <path d="M0,-35.388L35.388,35.388L-35.388,35.388L0,-35.388Z" style="fill:none;stroke:rgb(99,100,102);stroke-width:16.67px;stroke-dasharray:16.67,0.83,0,0;"/>
            <path d="M0,-35.388L35.388,35.388L-35.388,35.388L0,-35.388Z" style="fill:rgb(99,100,102);"/>
        </g>
        <g transform="matrix(0.77314,0,0,0.77314,70.2533,491.432)">
            <g transform="matrix(111.624,0,0,111.624,2425.76,2173.36)">
            </g>
            <text x="330.254px" y="2173.36px" style="font-family:'SorbetLTD';font-size:111.624px;">2013 2015 2017 2019 2021 2023 2025</text>
        </g>
        <g transform="matrix(4.73412e-17,-0.77314,0.77314,4.73412e-17,-1411.53,1967.71)">
            <g transform="matrix(111.624,0,0,111.624,1363.11,2173.36)">
            </g>
            <text x="330.254px" y="2173.36px" style="font-family:'SorbetLTD';font-size:111.624px;">Long-term Confidence</text>
        </g>
        <g transform="matrix(1.252,0,0,1.252,708.867,-1792.38)">
            <g transform="matrix(111.624,0,0,111.624,1108.83,2173.36)">
            </g>
            <text x="330.254px" y="2173.36px" style="font-family:'MinionPro-Regular', 'Minion Pro', serif;font-size:111.624px;">M<tspan x="426.138px " y="2173.36px ">y</tspan> S<tspan x="557.184px 604.736px 654.297px 682.873px " y="2173.36px 2173.36px 2173.36px 2173.36px ">cala</tspan> J<tspan x="791.594px 847.294px 906.566px 948.648px 1009.26px 1057.59px " y="2173.36px 2173.36px 2173.36px 2173.36px 2173.36px 2173.36px ">ourney</tspan></text>
        </g>
        <g transform="matrix(0.715986,0,0,0.715986,503.107,-346.808)">
            <g transform="matrix(111.624,0,0,111.624,1120.77,2173.36)">
            </g>
            <text x="330.254px" y="2173.36px" style="font-family:'MinionPro-Regular', 'Minion Pro', serif;font-size:111.624px;">I<tspan x="366.531px 457.951px 547.25px 605.183px 639.897px 688.007px 743.931px " y="2173.36px 2173.36px 2173.36px 2173.36px 2173.36px 2173.36px 2173.36px ">mmutabl</tspan>e va<tspan x="946.193px 973.094px " y="2173.36px 2173.36px ">lu</tspan>es</text>
        </g>
        <g transform="matrix(0.715986,0,0,0.715986,1464.83,-148.103)">
            <g transform="matrix(111.624,0,0,111.624,1120.77,2173.36)">
            </g>
            <text x="330.254px" y="2173.36px" style="font-family:'MinionPro-Regular', 'Minion Pro', serif;font-size:111.624px;">I<tspan x="366.531px 457.951px 547.25px 605.183px 639.897px 688.007px 743.931px " y="2173.36px 2173.36px 2173.36px 2173.36px 2173.36px 2173.36px 2173.36px ">mmutabl</tspan>e va<tspan x="946.193px 973.094px " y="2173.36px 2173.36px ">lu</tspan>es</text>
        </g>
        <g transform="matrix(0.715986,0,0,0.715986,161.81,-447.933)">
            <g transform="matrix(111.624,0,0,111.624,776.19,2173.36)">
            </g>
            <text x="330.254px" y="2173.36px" style="font-family:'MinionPro-Regular', 'Minion Pro', serif;font-size:111.624px;">F<tspan x="387.07px 446.342px 506.954px 554.952px 589.555px 619.47px 675.059px 735.224px " y="2173.36px 2173.36px 2173.36px 2173.36px 2173.36px 2173.36px 2173.36px 2173.36px ">unctions</tspan></text>
        </g>
        <g transform="matrix(0.715986,0,0,0.715986,1150.98,-56.5742)">
            <g transform="matrix(111.624,0,0,111.624,776.19,2173.36)">
            </g>
            <text x="330.254px" y="2173.36px" style="font-family:'MinionPro-Regular', 'Minion Pro', serif;font-size:111.624px;">F<tspan x="387.07px 446.342px 506.954px 554.952px 589.555px 619.47px 675.059px 735.224px " y="2173.36px 2173.36px 2173.36px 2173.36px 2173.36px 2173.36px 2173.36px 2173.36px ">unctions</tspan></text>
        </g>
        <g transform="matrix(0.715986,0,0,0.715986,669.929,-56.5742)">
            <g transform="matrix(111.624,0,0,111.624,623.154,2173.36)">
            </g>
            <text x="330.254px" y="2173.36px" style="font-family:'MinionPro-Regular', 'Minion Pro', serif;font-size:111.624px;">A<tspan x="404.483px 452.481px 485.857px 541.445px 582.188px " y="2173.36px 2173.36px 2173.36px 2173.36px 2173.36px ">ctors</tspan></text>
        </g>
        <g transform="matrix(0.715986,0,0,0.715986,598.174,-205.646)">
            <g transform="matrix(111.624,0,0,111.624,521.465,2173.36)">
            </g>
            <text x="330.254px" y="2173.36px" style="font-family:'MinionPro-Regular', 'Minion Pro', serif;font-size:111.624px;">FRP</text>
        </g>
        <g transform="matrix(0.715986,0,0,0.715986,729.084,124.293)">
            <g transform="matrix(111.624,0,0,111.624,660.659,2173.36)">
            </g>
            <text x="330.254px" y="2173.36px" style="font-family:'MinionPro-Regular', 'Minion Pro', serif;font-size:111.624px;">H<tspan x="413.078px 461.746px 502.266px 556.626px 603.62px 632.419px " y="2173.36px 2173.36px 2173.36px 2173.36px 2173.36px 2173.36px ">askell</tspan></text>
        </g>
        <path d="M338.55,2075.74C338.116,2080.32 334.047,2083.69 329.468,2083.25C324.889,2082.82 321.524,2078.75 321.957,2074.17C321.957,2074.17 364.53,1625.12 451.89,1362.82C474.732,1294.24 500.787,1238.31 529.698,1205.83C550.745,1182.19 573.578,1170.61 597.602,1173.38C620.54,1176.03 643.345,1186.65 665.601,1203.56C697.655,1227.91 728.747,1265.44 757.803,1309.87C866.532,1476.08 947.489,1739.17 951.133,1751.11C953.085,1755.72 973.479,1803.11 1006.81,1849.1C1029.75,1880.76 1058.8,1911.9 1092.38,1927.22C1125.36,1942.26 1167.62,1932.39 1215.19,1910.03C1290.15,1874.78 1377.34,1807.85 1461.88,1747.17C1532.28,1696.63 1585.16,1640.85 1635.34,1590.92C1686.53,1539.98 1735.04,1495.09 1795.73,1467.28C1799.91,1465.36 1804.86,1467.2 1806.78,1471.38C1808.69,1475.56 1806.85,1480.51 1802.67,1482.43C1743.73,1509.44 1696.81,1553.26 1647.09,1602.74C1596.35,1653.23 1542.81,1709.59 1471.6,1760.71C1386.19,1822.02 1298.01,1889.5 1222.28,1925.11C1169.38,1949.98 1122.13,1959.11 1085.47,1942.38C1049.42,1925.94 1017.94,1892.86 993.309,1858.88C957.028,1808.81 935.585,1757.13 935.585,1757.13C935.479,1756.88 935.386,1756.62 935.305,1756.35C935.305,1756.35 854.031,1487.42 743.855,1318.99C715.969,1276.36 686.283,1240.2 655.519,1216.83C635.896,1201.92 615.915,1192.27 595.691,1189.94C576.552,1187.73 558.914,1198.08 542.147,1216.92C514.341,1248.15 489.671,1302.13 467.703,1368.09C380.799,1629.02 338.55,2075.74 338.55,2075.74Z" style="fill:rgb(150,26,30);"/>
    </g>
</svg>
