<?xml version="1.0" encoding="UTF-8" standalone="no"?>
<!DOCTYPE svg PUBLIC "-//W3C//DTD SVG 1.1//EN" "http://www.w3.org/Graphics/SVG/1.1/DTD/svg11.dtd">
<svg width="100%" height="100%" viewBox="0 0 1732 838" version="1.1" xmlns="http://www.w3.org/2000/svg" xmlns:xlink="http://www.w3.org/1999/xlink" xml:space="preserve" xmlns:serif="http://www.serif.com/" style="fill-rule:evenodd;clip-rule:evenodd;stroke-linecap:round;stroke-linejoin:round;stroke-miterlimit:1.5;">
    <g transform="matrix(1,0,0,1,-321.92,-1299.15)">
        <g transform="matrix(1,0,0,1,-5.68434e-14,14.8499)">
            <path d="M330.254,2081.57L1984.6,2081.57" style="fill:none;stroke:rgb(99,100,102);stroke-width:16.67px;"/>
        </g>
        <g transform="matrix(-0.866025,-0.5,0.392039,-0.679031,2001.38,2105.27)">
            <path d="M0,-35.388L35.388,35.388L-35.388,35.388L0,-35.388Z" style="fill:none;stroke:rgb(99,100,102);stroke-width:16.67px;stroke-dasharray:16.67,0.83,0,0;"/>
            <path d="M0,-35.388L35.388,35.388L-35.388,35.388L0,-35.388Z" style="fill:rgb(99,100,102);"/>
        </g>
        <g transform="matrix(0.193989,0,0,1,280.809,52.8381)">
            <rect x="401.03" y="1371.31" width="118.585" height="624.501" style="fill:none;stroke:rgb(150,26,30);stroke-width:14.58px;"/>
            <rect x="401.03" y="1371.31" width="118.585" height="624.501" style="fill:rgb(150,26,30);"/>
        </g>
        <g transform="matrix(0.193989,0,0,1,421.253,52.8381)">
            <rect x="401.03" y="1371.31" width="118.585" height="624.501" style="fill:none;stroke:rgb(150,26,30);stroke-width:14.58px;"/>
            <rect x="401.03" y="1371.31" width="118.585" height="624.501" style="fill:rgb(150,26,30);"/>
        </g>
        <g transform="matrix(0.193989,0,0,1,568.18,52.8381)">
            <rect x="401.03" y="1371.31" width="118.585" height="624.501" style="fill:none;stroke:rgb(150,26,30);stroke-width:14.58px;"/>
            <rect x="401.03" y="1371.31" width="118.585" height="624.501" style="fill:rgb(150,26,30);"/>
        </g>
        <g transform="matrix(0.193989,0,0,1,814.455,52.8381)">
            <rect x="401.03" y="1371.31" width="118.585" height="624.501" style="fill:none;stroke:rgb(150,26,30);stroke-width:14.58px;"/>
            <rect x="401.03" y="1371.31" width="118.585" height="624.501" style="fill:rgb(150,26,30);"/>
        </g>
        <g transform="matrix(0.193989,0,0,1,1162.36,52.8381)">
            <rect x="401.03" y="1371.31" width="118.585" height="624.501" style="fill:none;stroke:rgb(150,26,30);stroke-width:14.58px;"/>
            <rect x="401.03" y="1371.31" width="118.585" height="624.501" style="fill:rgb(150,26,30);"/>
        </g>
        <g transform="matrix(0.193989,0,0,1,1553.99,52.8381)">
            <rect x="401.03" y="1371.31" width="118.585" height="624.501" style="fill:none;stroke:rgb(150,26,30);stroke-width:14.58px;"/>
            <rect x="401.03" y="1371.31" width="118.585" height="624.501" style="fill:rgb(150,26,30);"/>
        </g>
        <g transform="matrix(1,0,0,1,31.2715,72.1697)">
            <g transform="matrix(45.2276,0,0,45.2276,446.267,1274.83)">
            </g>
            <text x="371.28px" y="1274.83px" style="font-family:'MinionPro-Regular', 'Minion Pro', serif;font-size:45.228px;">5m<tspan x="429.669px " y="1274.83px ">s</tspan></text>
        </g>
        <g transform="matrix(1,0,0,1,171.716,72.1697)">
            <g transform="matrix(45.2276,0,0,45.2276,446.267,1274.83)">
            </g>
            <text x="371.28px" y="1274.83px" style="font-family:'MinionPro-Regular', 'Minion Pro', serif;font-size:45.228px;">5m<tspan x="429.669px " y="1274.83px ">s</tspan></text>
        </g>
        <g transform="matrix(1,0,0,1,356.734,72.1697)">
            <g transform="matrix(45.2276,0,0,45.2276,467.976,1274.83)">
            </g>
            <text x="371.28px" y="1274.83px" style="font-family:'MinionPro-Regular', 'Minion Pro', serif;font-size:45.228px;">10m<tspan x="451.378px " y="1274.83px ">s</tspan></text>
        </g>
        <g transform="matrix(1,0,0,1,650.559,72.1697)">
            <g transform="matrix(45.2276,0,0,45.2276,467.976,1274.83)">
            </g>
            <text x="371.28px" y="1274.83px" style="font-family:'MinionPro-Regular', 'Minion Pro', serif;font-size:45.228px;">15m<tspan x="451.378px " y="1274.83px ">s</tspan></text>
        </g>
        <g transform="matrix(5.32532,0,0,5.32532,-602.173,-5075.16)">
            <g transform="matrix(45.2276,0,0,45.2276,402.215,1274.83)">
            </g>
            <text x="371.28px" y="1274.83px" style="font-family:'MinionPro-Regular', 'Minion Pro', serif;font-size:45.228px;fill:rgb(99,100,102);">...</text>
        </g>
        <g transform="matrix(2.04258,0,0,2.04258,1179.6,-1233.81)">
            <g transform="matrix(45.2276,0,0,45.2276,402.215,1274.83)">
            </g>
            <text x="371.28px" y="1274.83px" style="font-family:'MinionPro-Regular', 'Minion Pro', serif;font-size:45.228px;fill:rgb(99,100,102);">...</text>
        </g>
        <g transform="matrix(0.0041806,-0.272293,0.149279,0.00229193,346.923,1488.5)">
            <path d="M294.733,335.72C290.955,333.988 286.541,334.707 283.403,330.497C283.353,330.43 277.325,312.314 277.333,312.255C278.264,305.366 277.849,297.316 280.154,291.601C280.805,289.987 284.283,281.364 292.34,280.075C308.838,277.436 400.297,284.174 427.536,315.044C442.443,331.937 441.762,357.674 434.521,373.768C431.959,379.462 427.222,389.31 421.446,416.714C414.201,451.087 408.909,503.554 407.204,559.465C424.329,568.567 457.141,595.368 464.867,613.405C471.614,629.158 469.466,653.021 455.839,663.553C444.81,672.076 423.749,673.856 409.163,674.471C407.869,685.051 406.031,707.885 405.334,754.996C404.794,791.531 405.143,827.253 405.872,863.49C408.809,871.047 409.558,881.52 406.407,891.9C404.174,899.257 397.978,906.287 392.854,906.968C370.021,923.648 317.257,963.632 287.404,956.273C280.703,954.621 280.221,954.75 276.248,944.79C276.211,944.697 273.479,924.029 273.497,923.977C280.003,904.647 279.64,898.543 292.003,901.067C313.229,905.401 355.8,876.796 377.53,861.794C377.12,822.826 376.628,736.981 379.35,688.932C380.904,661.499 383.739,627.884 398.424,623.09C399.67,622.683 407.256,622.389 416.099,621.508C408.295,615.244 400.723,610.066 396.016,608.168C393.402,609.332 389.908,609.638 386.439,606.709C385.453,605.877 379.435,600.797 378.314,586.869C377.868,581.33 379.225,502.388 389.709,432.893C396.062,390.789 403.04,367.905 408.321,354.047C382.938,336.811 308.443,332.042 294.733,335.72ZM442.398,647.298C440.814,650.233 440.298,651.346 442.405,647.308C442.402,647.304 442.4,647.301 442.398,647.298Z" style="fill:rgb(100,101,103);"/>
        </g>
        <g transform="matrix(0.0041806,-0.272293,0.149279,0.00229193,487.367,1488.5)">
            <path d="M294.733,335.72C290.955,333.988 286.541,334.707 283.403,330.497C283.353,330.43 277.325,312.314 277.333,312.255C278.264,305.366 277.849,297.316 280.154,291.601C280.805,289.987 284.282,281.365 292.34,280.075C308.832,277.435 400.285,284.149 427.539,315.035C442.448,331.929 441.77,357.673 434.526,373.776C434.259,374.368 413.739,409.326 407.82,542.771C407.636,546.902 407.482,550.91 407.353,554.702C412.606,555.358 419.034,556.808 426.936,559.343C451.192,567.124 458.511,574.382 460.998,576.848C474.38,590.119 474.424,617.804 461.338,634.896C448.641,651.479 421.624,666.615 409.454,672.167C408.16,681.513 406.086,703.89 405.331,754.996C404.77,792.979 405.21,830.279 405.879,863.479C408.82,871.052 409.558,881.544 406.413,891.907C406.04,893.137 404.313,898.824 399.176,903.509C396.982,905.51 397.036,905.777 394.613,906.598C394.073,906.781 393.498,906.9 392.897,906.949C370.078,923.613 317.28,963.638 287.404,956.273C280.703,954.621 280.221,954.75 276.248,944.79C276.211,944.697 273.479,924.029 273.497,923.977C275.526,917.949 276.472,910.081 279.607,905.919C287.11,895.961 288.041,901.861 297.309,901.504C320.9,900.595 357.365,875.618 377.521,861.74C377.413,851.925 377.302,839.694 377.251,827.72C376.571,669.113 382.358,647.68 387.567,635.46C392.283,624.395 398.23,623.021 399.817,622.78C405.029,620.544 413.071,616.077 421.021,610.905C412.608,608.129 404.203,606.279 398.685,606.491C396.329,608.485 391.266,610.886 386.296,606.563C378.334,599.638 378.198,584.836 378.177,582.581C378.177,582.579 378.863,512.859 387.955,445.256C394.662,395.381 402.66,368.931 408.31,354.051C382.931,336.833 308.46,332.044 294.733,335.72Z" style="fill:rgb(100,101,103);"/>
        </g>
        <g transform="matrix(0.0041806,-0.272293,0.31099,0.00477472,584.632,1487.74)">
            <path d="M296.694,320.954C295.106,321.234 289.858,321.954 285.412,319.937C285.356,319.912 277.867,312.169 277.87,312.14C278.203,308.747 277.106,304.986 278.896,301.962C279.429,301.061 282.325,296.167 290.778,294.7C310.412,291.292 404.876,297.634 431.957,329.433C446.738,346.789 436.375,363.338 434.612,367.532C412,421.322 407.796,528.874 406.943,570.019C413.813,571.722 422.918,575.174 434.967,581.643C439.657,584.161 459.501,595.049 467.288,605.641C474.602,615.589 472.777,628.746 453.202,641.288C442.152,648.368 424.185,655.776 411.279,659.352C410.087,664.539 408.296,676.268 406.91,703.512C403.953,761.623 405.311,831.697 406.257,871.37C409.316,875.365 409.892,880.878 405.94,886.032C402.695,890.264 400.028,891.643 399.377,891.979C398.22,892.578 396.981,893.017 395.704,893.3C371.224,910.89 318.943,950.499 284.575,941.324C283.625,941.07 277.924,939.548 274.966,934.426C274.938,934.377 274.058,924.201 274.08,924.179C276.612,921.607 278.237,918.011 281.698,916.479C287.37,913.968 294.271,915.913 293.378,915.661C292.873,915.519 295.648,916.301 300.008,915.621C322.891,912.056 360.388,885.55 377.448,873.527C377.136,842.882 376.278,729.573 379.885,680.544C382.09,650.57 385.24,640.383 395.916,636.918C397.257,636.483 397.406,636.522 399.012,636.255L399.007,636.234C409.906,633.501 432.851,624.579 440.687,617.17C432.227,609.281 410.27,597.083 398.991,594.147C397.146,594.983 394.816,595.652 392.201,595.615C387.329,595.546 378.518,592.463 378.124,582.971C378.012,580.275 380.565,425.744 408.758,358.31C411.519,351.706 415.338,347.328 403.746,339.83C379.486,324.135 315.033,318.444 296.822,320.945C296.898,320.935 296.987,320.915 297.093,320.887C297.264,320.841 297.151,320.871 296.818,320.932L296.481,319.676C296.564,320.386 296.202,320.951 296.694,320.954ZM296.694,320.954C296.738,320.947 296.78,320.939 296.818,320.932L296.822,320.945C296.774,320.952 296.731,320.955 296.694,320.954Z" style="fill:rgb(100,101,103);"/>
        </g>
        <g transform="matrix(0.0041806,-0.272293,0.463828,0.00712129,783.969,1487.02)">
            <path d="M298.107,316.142C279.317,312.007 278.557,312.428 278.521,311.817C278.39,309.534 276.79,307.108 278.155,304.969C278.601,304.27 281.012,300.494 290.463,299.05C318.918,294.705 441.73,306.244 439.99,350.306C439.554,361.333 432.157,364.098 422.766,406.612C410.007,464.379 407.465,541.168 406.9,572.28C412.253,572.85 418.596,574.085 426.106,576.249C439.556,580.125 470.226,591.414 470.955,604.072C471.033,605.425 473.792,618.849 432.681,643.892C431.905,644.365 420.664,651.248 412.387,654.707C410.982,658.857 408.644,670.138 406.942,703.239C403.974,760.968 405.266,827.496 406.406,873.614C409.148,876.018 409.808,879.328 406.9,882.868C404.626,885.636 402.262,887.783 397.82,888.915C397.806,888.919 397.792,888.922 397.778,888.926C376.478,904.225 333.108,936.932 298.18,938.271C296.309,938.343 289.738,938.564 282.709,936.688C276.293,934.975 274.472,931.853 274.147,931.296C274.126,931.26 274.855,924.432 274.88,924.419C277.791,922.918 279.966,920.665 283.632,919.928C289.514,918.745 289.582,920.154 295.788,920.354C296.767,920.386 305.007,920.394 325.244,909.892C346.454,898.884 366.284,884.149 377.373,876.442C377.117,851.291 376.286,732.462 379.684,683.016C382,649.331 385.407,645.05 391.895,642.103C393.703,641.281 394.501,641.035 395.644,640.83C408.835,635.066 440.728,614.783 441.897,604.922C437.461,599.591 415.048,590.655 402.614,588.981C400.49,590.173 396.666,591.614 391.79,591.486C386.312,591.341 378.408,588.849 378.114,583.035C378.033,581.438 379.519,496.509 391.205,427.116C396.591,395.137 401.578,375.446 410.078,356.041C412.369,350.812 417.879,335.354 370.944,323.876C343.574,317.183 310.127,315.097 298.259,316.405L298.107,316.142Z" style="fill:rgb(100,101,103);"/>
        </g>
        <g transform="matrix(1,0,0,1,1387.76,53.0483)">
            <g transform="matrix(45.2276,0,0,45.2276,489.686,1274.83)">
            </g>
            <text x="371.28px" y="1274.83px" style="font-family:'MinionPro-Regular', 'Minion Pro', serif;font-size:45.228px;">700m<tspan x="473.087px " y="1274.83px ">s</tspan></text>
        </g>
        <g transform="matrix(0.0041806,-0.272293,0.463828,0.00712129,1521.16,1467.89)">
            <path d="M298.108,316.142C279.317,312.007 278.557,312.428 278.521,311.817C278.39,309.534 276.79,307.108 278.155,304.969C278.601,304.27 281.013,300.492 290.463,299.051C319.118,294.683 442.813,306.467 439.841,350.908C439.158,361.127 432.547,364.091 423.615,402.373C415.097,438.879 408.472,499.557 407.093,572.203C410.219,572.544 413.676,573.111 417.501,573.955C436.279,578.098 470.217,590.894 470.932,604.072C471.042,606.107 472.862,618.582 435.101,642.175C430.141,645.275 419.743,651.44 412.092,654.602C407.12,668.775 406.03,722.16 405.913,727.91C404.509,796.68 407.428,880.803 407.31,880.976C405.86,883.095 405.662,885.695 402.945,887.329C402.902,887.355 392.188,890.051 392.157,890.044C388.546,889.194 384.118,889.076 381.335,887.481C378.552,885.886 377.856,883.373 376.712,881.191C376.561,880.903 374.817,688.018 383.658,653.893C384.794,649.505 386.46,643.406 395.282,641.123C395.453,641.079 395.623,641.035 395.796,640.993C409.103,635.142 440.845,614.898 441.924,604.949C437.295,599.547 414.903,590.76 402.68,589.087C400.519,590.287 396.673,591.718 391.782,591.589C386.3,591.445 378.244,588.957 377.936,583.034C377.735,579.171 380.772,422.502 409.656,357.282C411.571,352.96 421.207,336.092 370.972,323.838C343.554,317.15 310.077,315.087 298.258,316.404L298.108,316.142Z" style="fill:rgb(100,101,103);"/>
        </g>
    </g>
</svg>
